Abhaya Libre Latin-Regular.ufo
<glyph name="asterisk" format="1">
  <advance width="383"/>
  <unicode hex="002A"/>
  <outline>
    <contour>
      <point x="228" y="636"/>
      <point x="216" y="650"/>
      <point x="193" y="650" type="curve" smooth="yes"/>
      <point x="171" y="650"/>
      <point x="157" y="637"/>
      <point x="157" y="617" type="curve" smooth="yes"/>
      <point x="157" y="591"/>
      <point x="182" y="544"/>
      <point x="185" y="487" type="curve"/>
      <point x="200" y="487" type="line"/>
      <point x="203" y="542"/>
      <point x="228" y="591"/>
      <point x="228" y="618" type="curve" smooth="yes"/>
    </contour>
    <contour>
      <point x="157" y="341"/>
      <point x="169" y="327"/>
      <point x="192" y="327" type="curve" smooth="yes"/>
      <point x="214" y="327"/>
      <point x="228" y="340"/>
      <point x="228" y="360" type="curve" smooth="yes"/>
      <point x="228" y="386"/>
      <point x="203" y="433"/>
      <point x="200" y="490" type="curve"/>
      <point x="185" y="490" type="line"/>
      <point x="182" y="435"/>
      <point x="157" y="386"/>
      <point x="157" y="359" type="curve" smooth="yes"/>
    </contour>
    <contour>
      <point x="338" y="532"/>
      <point x="344" y="549"/>
      <point x="333" y="569" type="curve" smooth="yes"/>
      <point x="322" y="588"/>
      <point x="303" y="593"/>
      <point x="286" y="583" type="curve" smooth="yes"/>
      <point x="264" y="570"/>
      <point x="235" y="525"/>
      <point x="187" y="494" type="curve"/>
      <point x="195" y="481" type="line"/>
      <point x="244" y="506"/>
      <point x="299" y="509"/>
      <point x="322" y="523" type="curve" smooth="yes"/>
    </contour>
    <contour>
      <point x="47" y="445"/>
      <point x="41" y="428"/>
      <point x="52" y="408" type="curve" smooth="yes"/>
      <point x="63" y="389"/>
      <point x="82" y="384"/>
      <point x="99" y="394" type="curve" smooth="yes"/>
      <point x="121" y="407"/>
      <point x="150" y="452"/>
      <point x="198" y="483" type="curve"/>
      <point x="190" y="496" type="line"/>
      <point x="141" y="471"/>
      <point x="86" y="468"/>
      <point x="63" y="454" type="curve" smooth="yes"/>
    </contour>
    <contour>
      <point x="303" y="384"/>
      <point x="321" y="388"/>
      <point x="332" y="407" type="curve" smooth="yes"/>
      <point x="343" y="426"/>
      <point x="338" y="445"/>
      <point x="321" y="455" type="curve" smooth="yes"/>
      <point x="299" y="467"/>
      <point x="245" y="470"/>
      <point x="195" y="496" type="curve"/>
      <point x="187" y="483" type="line"/>
      <point x="233" y="453"/>
      <point x="264" y="407"/>
      <point x="287" y="394" type="curve" smooth="yes"/>
    </contour>
    <contour>
      <point x="82" y="593"/>
      <point x="64" y="589"/>
      <point x="53" y="570" type="curve" smooth="yes"/>
      <point x="42" y="551"/>
      <point x="47" y="532"/>
      <point x="64" y="522" type="curve" smooth="yes"/>
      <point x="86" y="510"/>
      <point x="140" y="507"/>
      <point x="190" y="481" type="curve"/>
      <point x="198" y="494" type="line"/>
      <point x="152" y="524"/>
      <point x="121" y="570"/>
      <point x="98" y="583" type="curve" smooth="yes"/>
    </contour>
  </outline>
</glyph>
<glyph name="plus" format="1">
  <advance width="470"/>
  <unicode hex="002B"/>
  <outline>
    <contour>
      <point x="58" y="226" type="line"/>
      <point x="200" y="226" type="line"/>
      <point x="200" y="354" type="line"/>
      <point x="250" y="354" type="line"/>
      <point x="250" y="226" type="line"/>
      <point x="394" y="226" type="line"/>
      <point x="394" y="185" type="line"/>
      <point x="250" y="185" type="line"/>
      <point x="250" y="60" type="line"/>
      <point x="200" y="60" type="line"/>
      <point x="200" y="185" type="line"/>
      <point x="58" y="185" type="line"/>
    </contour>
  </outline>
</glyph>
<glyph name="two" format="1">
  <advance width="468"/>
  <unicode hex="0032"/>
  <outline>
    <contour>
      <point x="80" y="70" type="line"/>
      <point x="80" y="149"/>
      <point x="397" y="223"/>
      <point x="397" y="397" type="curve" smooth="yes"/>
      <point x="397" y="495"/>
      <point x="311" y="540"/>
      <point x="212" y="540" type="curve" smooth="yes"/>
      <point x="123" y="540"/>
      <point x="31" y="495"/>
      <point x="31" y="411" type="curve" smooth="yes"/>
      <point x="31" y="381"/>
      <point x="47" y="358"/>
      <point x="74" y="358" type="curve" smooth="yes"/>
      <point x="170" y="358"/>
      <point x="77" y="514"/>
      <point x="203" y="514" type="curve" smooth="yes"/>
      <point x="279" y="514"/>
      <point x="312" y="465"/>
      <point x="312" y="398" type="curve" smooth="yes"/>
      <point x="312" y="191"/>
      <point x="30" y="197"/>
      <point x="30" y="20" type="curve"/>
    </contour>
    <contour>
      <point x="411" y="0" type="line"/>
      <point x="411" y="70" type="line"/>
      <point x="80" y="70" type="line"/>
      <point x="30" y="20" type="line"/>
      <point x="30" y="0" type="line"/>
    </contour>
    <contour>
      <point x="413" y="168" type="line"/>
      <point x="394" y="168" type="line"/>
      <point x="378" y="114" type="line" smooth="yes"/>
      <point x="366" y="75"/>
      <point x="347" y="70"/>
      <point x="306" y="70" type="curve"/>
      <point x="411" y="0" type="line"/>
    </contour>
  </outline>
</glyph>
<glyph name="three" format="1">
  <advance width="498"/>
  <unicode hex="0033"/>
  <outline>
    <contour>
      <point x="365" y="-70"/>
      <point x="443" y="27"/>
      <point x="443" y="122" type="curve" smooth="yes"/>
      <point x="443" y="203"/>
      <point x="386" y="278"/>
      <point x="273" y="278" type="curve" smooth="yes"/>
      <point x="235" y="278"/>
      <point x="190" y="269"/>
      <point x="149" y="251" type="curve"/>
      <point x="171" y="233" type="line"/>
      <point x="195" y="243"/>
      <point x="221" y="248"/>
      <point x="242" y="248" type="curve" smooth="yes"/>
      <point x="313" y="248"/>
      <point x="360" y="196"/>
      <point x="360" y="108" type="curve" smooth="yes"/>
      <point x="360" y="31"/>
      <point x="329" y="-45"/>
      <point x="211" y="-45" type="curve" smooth="yes"/>
      <point x="94" y="-45"/>
      <point x="181" y="104"/>
      <point x="86" y="104" type="curve" smooth="yes"/>
      <point x="57" y="104"/>
      <point x="40" y="83"/>
      <point x="40" y="55" type="curve" smooth="yes"/>
      <point x="40" y="-20"/>
      <point x="121" y="-70"/>
      <point x="225" y="-70" type="curve" smooth="yes"/>
    </contour>
    <contour>
      <point x="76" y="365" type="line"/>
      <point x="94" y="421" type="line" smooth="yes"/>
      <point x="107" y="460"/>
      <point x="131" y="461"/>
      <point x="172" y="461" type="curve"/>
      <point x="55" y="530" type="line"/>
      <point x="53" y="365" type="line"/>
    </contour>
    <contour>
      <point x="427" y="510" type="line"/>
      <point x="330" y="460" type="line"/>
      <point x="149" y="251" type="line"/>
      <point x="171" y="233" type="line"/>
    </contour>
    <contour>
      <point x="330" y="460" type="line"/>
      <point x="427" y="510" type="line"/>
      <point x="427" y="530" type="line"/>
      <point x="55" y="530" type="line"/>
      <point x="55" y="461" type="line"/>
    </contour>
  </outline>
</glyph>
<glyph name="five" format="1">
  <advance width="476"/>
  <unicode hex="0035"/>
  <outline>
    <contour>
      <point x="368" y="-70"/>
      <point x="441" y="27"/>
      <point x="441" y="120" type="curve" smooth="yes"/>
      <point x="441" y="214"/>
      <point x="374" y="299"/>
      <point x="249" y="299" type="curve" smooth="yes"/>
      <point x="193" y="299"/>
      <point x="140" y="282"/>
      <point x="99" y="246" type="curve"/>
      <point x="119" y="226" type="line"/>
      <point x="152" y="253"/>
      <point x="189" y="264"/>
      <point x="226" y="264" type="curve" smooth="yes"/>
      <point x="322" y="264"/>
      <point x="358" y="194"/>
      <point x="358" y="114" type="curve" smooth="yes"/>
      <point x="358" y="26"/>
      <point x="313" y="-45"/>
      <point x="215" y="-45" type="curve" smooth="yes"/>
      <point x="98" y="-45"/>
      <point x="187" y="104"/>
      <point x="92" y="104" type="curve" smooth="yes"/>
      <point x="59" y="104"/>
      <point x="45" y="82"/>
      <point x="45" y="55" type="curve" smooth="yes"/>
      <point x="45" y="-7"/>
      <point x="111" y="-70"/>
      <point x="222" y="-70" type="curve" smooth="yes"/>
    </contour>
    <contour>
      <point x="119" y="503" type="line"/>
      <point x="86" y="503" type="line"/>
      <point x="86" y="251" type="line"/>
      <point x="119" y="226" type="line"/>
    </contour>
    <contour>
      <point x="390" y="446"/>
      <point x="407" y="469"/>
      <point x="407" y="569" type="curve"/>
      <point x="383" y="569" type="line"/>
      <point x="373" y="530"/>
      <point x="351" y="521"/>
      <point x="267" y="521" type="curve" smooth="yes"/>
      <point x="221" y="521"/>
      <point x="161" y="525"/>
      <point x="86" y="528" type="curve"/>
      <point x="86" y="457" type="line"/>
      <point x="149" y="450"/>
      <point x="206" y="446"/>
      <point x="254" y="446" type="curve" smooth="yes"/>
    </contour>
  </outline>
</glyph>
<glyph name="six" format="1">
  <advance width="516"/>
  <unicode hex="0036"/>
  <outline>
    <contour>
      <point x="376" y="-10"/>
      <point x="471" y="57"/>
      <point x="471" y="172" type="curve" smooth="yes"/>
      <point x="471" y="283"/>
      <point x="378" y="347"/>
      <point x="280" y="347" type="curve" smooth="yes"/>
      <point x="228" y="347"/>
      <point x="167" y="326"/>
      <point x="127" y="281" type="curve"/>
      <point x="150" y="279" type="line"/>
      <point x="157" y="433"/>
      <point x="177" y="555"/>
      <point x="285" y="555" type="curve" smooth="yes"/>
      <point x="413" y="555"/>
      <point x="311" y="426"/>
      <point x="403" y="426" type="curve" smooth="yes"/>
      <point x="434" y="426"/>
      <point x="452" y="447"/>
      <point x="452" y="476" type="curve" smooth="yes"/>
      <point x="452" y="536"/>
      <point x="381" y="580"/>
      <point x="300" y="580" type="curve" smooth="yes"/>
      <point x="141" y="580"/>
      <point x="60" y="435"/>
      <point x="60" y="260" type="curve" smooth="yes"/>
      <point x="60" y="101"/>
      <point x="123" y="-10"/>
      <point x="269" y="-10" type="curve" smooth="yes"/>
    </contour>
    <contour>
      <point x="188" y="15"/>
      <point x="145" y="76"/>
      <point x="145" y="162" type="curve" smooth="yes"/>
      <point x="145" y="271"/>
      <point x="205" y="318"/>
      <point x="269" y="318" type="curve" smooth="yes"/>
      <point x="331" y="318"/>
      <point x="386" y="275"/>
      <point x="386" y="176" type="curve" smooth="yes"/>
      <point x="386" y="83"/>
      <point x="351" y="15"/>
      <point x="267" y="15" type="curve" smooth="yes"/>
    </contour>
  </outline>
</glyph>
<glyph name="question" format="1">
  <advance width="457"/>
  <unicode hex="003F"/>
  <outline>
    <contour>
      <point x="223" y="167" type="line"/>
      <point x="223" y="339"/>
      <point x="405" y="355"/>
      <point x="405" y="480" type="curve" smooth="yes"/>
      <point x="405" y="573"/>
      <point x="324" y="610"/>
      <point x="232" y="610" type="curve" smooth="yes"/>
      <point x="142" y="610"/>
      <point x="60" y="570"/>
      <point x="60" y="506" type="curve" smooth="yes"/>
      <point x="60" y="476"/>
      <point x="74" y="453"/>
      <point x="109" y="453" type="curve" smooth="yes"/>
      <point x="197" y="453"/>
      <point x="114" y="584"/>
      <point x="223" y="584" type="curve" smooth="yes"/>
      <point x="292" y="584"/>
      <point x="309" y="548"/>
      <point x="309" y="500" type="curve" smooth="yes"/>
      <point x="309" y="367"/>
      <point x="193" y="338"/>
      <point x="193" y="167" type="curve"/>
    </contour>
    <component base="period" xOffset="107"/>
  </outline>
</glyph>
<glyph name="A" format="1">
  <advance width="620"/>
  <unicode hex="0041"/>
  <outline>
    <contour>
      <point x="190" y="0" type="line"/>
      <point x="190" y="22"/>
      <point x="185" y="26"/>
      <point x="166" y="26" type="curve" smooth="yes"/>
      <point x="108" y="26" type="line"/>
      <point x="329" y="600" type="line"/>
      <point x="292" y="600" type="line"/>
      <point x="68" y="26" type="line"/>
      <point x="5" y="26" type="line"/>
      <point x="5" y="0" type="line"/>
    </contour>
    <contour>
      <point x="568" y="0" type="line"/>
      <point x="329" y="600" type="line"/>
      <point x="292" y="600" type="line"/>
      <point x="284" y="499" type="line"/>
      <point x="477" y="0" type="line"/>
    </contour>
    <contour>
      <point x="615" y="0" type="line"/>
      <point x="615" y="22"/>
      <point x="610" y="26"/>
      <point x="590" y="26" type="curve" smooth="yes"/>
      <point x="396" y="26" type="line"/>
      <point x="396" y="0" type="line"/>
    </contour>
    <contour>
      <point x="445" y="220" type="line"/>
      <point x="430" y="249" type="line"/>
      <point x="173" y="249" type="line"/>
      <point x="163" y="220" type="line"/>
    </contour>
    <contour>
      <point x="607" y="9" type="move" name="ogonek"/>
    </contour>
    <contour>
      <point x="310" y="630" type="move" name="top"/>
    </contour>
  </outline>
</glyph>
<glyph name="B" format="1">
  <advance width="592"/>
  <unicode hex="0042"/>
  <outline>
    <contour>
      <point x="322" y="0" type="line"/>
      <point x="468" y="0"/>
      <point x="542" y="89"/>
      <point x="542" y="176" type="curve" smooth="yes"/>
      <point x="542" y="257"/>
      <point x="476" y="331"/>
      <point x="342" y="331" type="curve"/>
      <point x="312" y="312" type="line"/>
      <point x="406" y="312"/>
      <point x="446" y="244"/>
      <point x="446" y="174" type="curve" smooth="yes"/>
      <point x="446" y="101"/>
      <point x="402" y="26"/>
      <point x="317" y="26" type="curve" smooth="yes"/>
      <point x="35" y="26" type="line"/>
      <point x="35" y="0" type="line"/>
    </contour>
    <contour>
      <point x="504" y="538"/>
      <point x="443" y="600"/>
      <point x="319" y="600" type="curve" smooth="yes"/>
      <point x="35" y="600" type="line"/>
      <point x="35" y="574" type="line"/>
      <point x="295" y="574" type="line" smooth="yes"/>
      <point x="382" y="574"/>
      <point x="414" y="521"/>
      <point x="414" y="456" type="curve" smooth="yes"/>
      <point x="414" y="396"/>
      <point x="373" y="339"/>
      <point x="293" y="339" type="curve" smooth="yes"/>
      <point x="160" y="339" type="line"/>
      <point x="160" y="312" type="line"/>
      <point x="312" y="312" type="line" smooth="yes"/>
      <point x="432" y="312"/>
      <point x="504" y="394"/>
      <point x="504" y="464" type="curve" smooth="yes"/>
    </contour>
    <component base="vertical_stem_upper" xOffset="78"/>
  </outline>
</glyph>
<glyph name="D" format="1">
  <advance width="675"/>
  <unicode hex="0044"/>
  <outline>
    <contour>
      <point x="470" y="0"/>
      <point x="620" y="102"/>
      <point x="620" y="300" type="curve" smooth="yes"/>
      <point x="620" y="507"/>
      <point x="472" y="600"/>
      <point x="315" y="600" type="curve"/>
      <point x="312" y="574" type="line"/>
      <point x="432" y="574"/>
      <point x="525" y="517"/>
      <point x="525" y="304" type="curve" smooth="yes"/>
      <point x="525" y="100"/>
      <point x="435" y="26"/>
      <point x="315" y="26" type="curve"/>
      <point x="312" y="0" type="line"/>
    </contour>
    <contour>
      <point x="312" y="0" type="line"/>
      <point x="315" y="26" type="line"/>
      <point x="40" y="26" type="line"/>
      <point x="40" y="0" type="line"/>
    </contour>
    <contour>
      <point x="312" y="574" type="line"/>
      <point x="315" y="600" type="line"/>
      <point x="40" y="600" type="line"/>
      <point x="40" y="574" type="line"/>
    </contour>
    <component base="vertical_stem_upper" xOffset="76"/>
    <contour>
      <point x="338" y="350" type="move" name="center"/>
    </contour>
    <contour>
      <point x="328" y="630" type="move" name="top"/>
    </contour>
  </outline>
</glyph>
<glyph name="H" format="1">
  <advance width="715"/>
  <unicode hex="0048"/>
  <outline>
    <contour>
      <point x="550" y="295" type="line"/>
      <point x="550" y="324" type="line"/>
      <point x="160" y="324" type="line"/>
      <point x="160" y="295" type="line"/>
    </contour>
    <contour>
      <point x="289" y="0" type="line"/>
      <point x="289" y="22"/>
      <point x="284" y="26"/>
      <point x="265" y="26" type="curve" smooth="yes"/>
      <point x="40" y="26" type="line"/>
      <point x="40" y="0" type="line"/>
    </contour>
    <contour>
      <point x="675" y="0" type="line"/>
      <point x="675" y="22"/>
      <point x="670" y="26"/>
      <point x="650" y="26" type="curve" smooth="yes"/>
      <point x="426" y="26" type="line"/>
      <point x="426" y="0" type="line"/>
    </contour>
    <contour>
      <point x="289" y="574" type="line"/>
      <point x="289" y="600" type="line"/>
      <point x="40" y="600" type="line"/>
      <point x="40" y="574" type="line"/>
    </contour>
    <contour>
      <point x="675" y="574" type="line"/>
      <point x="675" y="600" type="line"/>
      <point x="426" y="600" type="line"/>
      <point x="426" y="574" type="line"/>
    </contour>
    <component base="vertical_stem_upper" xOffset="76"/>
    <component base="vertical_stem_upper" xOffset="469"/>
  </outline>
</glyph>
<glyph name="N" format="1">
  <advance width="670"/>
  <unicode hex="004E"/>
  <outline>
    <contour>
      <point x="230" y="0" type="line"/>
      <point x="230" y="22"/>
      <point x="225" y="26"/>
      <point x="206" y="26" type="curve" smooth="yes"/>
      <point x="138" y="26" type="line"/>
      <point x="138" y="600" type="line"/>
      <point x="25" y="600" type="line"/>
      <point x="25" y="574" type="line"/>
      <point x="98" y="574" type="line"/>
      <point x="98" y="26" type="line"/>
      <point x="25" y="26" type="line"/>
      <point x="25" y="0" type="line"/>
    </contour>
    <contour>
      <point x="577" y="574" type="line"/>
      <point x="650" y="574" type="line"/>
      <point x="650" y="600" type="line"/>
      <point x="445" y="600" type="line"/>
      <point x="445" y="574" type="line"/>
      <point x="537" y="574" type="line"/>
      <point x="537" y="5" type="line"/>
      <point x="577" y="5" type="line"/>
    </contour>
    <contour>
      <point x="577" y="5" type="line"/>
      <point x="538" y="124" type="line"/>
      <point x="157" y="600" type="line"/>
      <point x="108" y="600" type="line"/>
      <point x="113" y="520" type="line"/>
      <point x="531" y="-5" type="line"/>
    </contour>
    <contour>
      <point x="335" y="630" type="move" name="top"/>
    </contour>
    <contour>
      <point x="335" y="0" type="move" name="bottom"/>
    </contour>
  </outline>
</glyph>
<glyph name="T" format="1">
  <advance width="574"/>
  <unicode hex="0054"/>
  <outline>
    <contour>
      <point x="539" y="403" type="line"/>
      <point x="534" y="600" type="line"/>
      <point x="386" y="574" type="line"/>
      <point x="453" y="574"/>
      <point x="483" y="520"/>
      <point x="495" y="470" type="curve" smooth="yes"/>
      <point x="511" y="403" type="line"/>
    </contour>
    <contour>
      <point x="440" y="0" type="line"/>
      <point x="440" y="22"/>
      <point x="435" y="26"/>
      <point x="415" y="26" type="curve" smooth="yes"/>
      <point x="135" y="26" type="line"/>
      <point x="135" y="0" type="line"/>
    </contour>
    <contour>
      <point x="63" y="403" type="line"/>
      <point x="79" y="470" type="line" smooth="yes"/>
      <point x="91" y="520"/>
      <point x="121" y="574"/>
      <point x="188" y="574" type="curve"/>
      <point x="40" y="600" type="line"/>
      <point x="35" y="403" type="line"/>
    </contour>
    <contour>
      <point x="518" y="574" type="line"/>
      <point x="534" y="600" type="line"/>
      <point x="40" y="600" type="line"/>
      <point x="46" y="574" type="line"/>
    </contour>
    <component base="vertical_stem_upper" xOffset="202"/>
    <contour>
      <point x="287" y="350" type="move" name="center"/>
    </contour>
    <contour>
      <point x="285" y="0" type="move" name="bottom"/>
    </contour>
    <contour>
      <point x="286" y="630" type="move" name="top"/>
    </contour>
  </outline>
</glyph>
<glyph name="U" format="1">
  <advance width="662"/>
  <unicode hex="0055"/>
  <outline>
    <contour>
      <point x="562" y="600" type="line"/>
      <point x="562" y="234" type="line"/>
      <point x="527" y="228" type="line"/>
      <point x="527" y="600" type="line"/>
    </contour>
    <contour>
      <point x="248" y="18"/>
      <point x="190" y="76"/>
      <point x="190" y="231" type="curve"/>
      <point x="105" y="225" type="line"/>
      <point x="105" y="59"/>
      <point x="193" y="-10"/>
      <point x="338" y="-10" type="curve" smooth="yes"/>
      <point x="493" y="-10"/>
      <point x="562" y="69"/>
      <point x="562" y="234" type="curve"/>
      <point x="527" y="228" type="line"/>
      <point x="527" y="78"/>
      <point x="459" y="18"/>
      <point x="359" y="18" type="curve" smooth="yes"/>
    </contour>
    <contour>
      <point x="190" y="600" type="line"/>
      <point x="190" y="231" type="line"/>
      <point x="105" y="225" type="line"/>
      <point x="105" y="600" type="line"/>
    </contour>
    <contour>
      <point x="30" y="574" type="line"/>
      <point x="30" y="600" type="line"/>
      <point x="279" y="600" type="line"/>
      <point x="279" y="574" type="line"/>
    </contour>
    <contour>
      <point x="431" y="574" type="line"/>
      <point x="431" y="600" type="line"/>
      <point x="637" y="600" type="line"/>
      <point x="637" y="574" type="line"/>
    </contour>
    <contour>
      <point x="466" y="9" type="move" name="ogonek"/>
    </contour>
    <contour>
      <point x="352" y="630" type="move" name="top"/>
    </contour>
  </outline>
</glyph>
<glyph name="V" format="1">
  <advance width="590"/>
  <unicode hex="0056"/>
  <outline>
    <contour>
      <point x="336" y="-5" type="line"/>
      <point x="542" y="574" type="line"/>
      <point x="504" y="574" type="line"/>
      <point x="326" y="68" type="line"/>
      <point x="350" y="68" type="line"/>
      <point x="146" y="600" type="line"/>
      <point x="60" y="600" type="line"/>
      <point x="260" y="69" type="line" smooth="yes"/>
      <point x="283" y="7"/>
      <point x="295" y="-5"/>
      <point x="324" y="-5" type="curve" smooth="yes"/>
    </contour>
    <contour>
      <point x="239" y="574" type="line"/>
      <point x="239" y="600" type="line"/>
      <point x="12" y="600" type="line"/>
      <point x="12" y="574" type="line"/>
    </contour>
    <contour>
      <point x="593" y="574" type="line"/>
      <point x="593" y="600" type="line"/>
      <point x="418" y="600" type="line"/>
      <point x="418" y="574" type="line"/>
    </contour>
  </outline>
</glyph>
<glyph name="X" format="1">
  <advance width="606"/>
  <unicode hex="0058"/>
  <outline>
    <contour>
      <point x="567" y="0" type="line"/>
      <point x="161" y="600" type="line"/>
      <point x="62" y="600" type="line"/>
      <point x="464" y="0" type="line"/>
    </contour>
    <contour>
      <point x="212" y="0" type="line"/>
      <point x="212" y="26" type="line"/>
      <point x="117" y="26" type="line"/>
      <point x="305" y="285" type="line"/>
      <point x="287" y="310" type="line"/>
      <point x="100" y="54" type="line" smooth="yes"/>
      <point x="86" y="35"/>
      <point x="52" y="26"/>
      <point x="32" y="26" type="curve" smooth="yes"/>
      <point x="20" y="26"/>
      <point x="12" y="19"/>
      <point x="12" y="0" type="curve"/>
    </contour>
    <contour>
      <point x="609" y="0" type="line"/>
      <point x="609" y="22"/>
      <point x="604" y="26"/>
      <point x="585" y="26" type="curve" smooth="yes"/>
      <point x="364" y="26" type="line"/>
      <point x="364" y="0" type="line"/>
    </contour>
    <contour>
      <point x="250" y="574" type="line"/>
      <point x="250" y="600" type="line"/>
      <point x="26" y="600" type="line"/>
      <point x="26" y="574" type="line"/>
    </contour>
    <contour>
      <point x="498" y="546" type="line" smooth="yes"/>
      <point x="511" y="564"/>
      <point x="536" y="574"/>
      <point x="561" y="574" type="curve" smooth="yes"/>
      <point x="575" y="574"/>
      <point x="578" y="585"/>
      <point x="578" y="600" type="curve"/>
      <point x="397" y="600" type="line"/>
      <point x="397" y="574" type="line"/>
      <point x="484" y="574" type="line"/>
      <point x="314" y="338" type="line"/>
      <point x="331" y="315" type="line"/>
    </contour>
  </outline>
</glyph>
<glyph name="Z" format="1">
  <advance width="575"/>
  <unicode hex="005A"/>
  <outline>
    <contour>
      <point x="142" y="26" type="line"/>
      <point x="525" y="579" type="line"/>
      <point x="429" y="574" type="line"/>
      <point x="35" y="20" type="line"/>
    </contour>
    <contour>
      <point x="528" y="0" type="line"/>
      <point x="528" y="26" type="line"/>
      <point x="142" y="26" type="line"/>
      <point x="35" y="20" type="line"/>
      <point x="35" y="0" type="line"/>
    </contour>
    <contour>
      <point x="530" y="207" type="line"/>
      <point x="508" y="207" type="line"/>
      <point x="487" y="111" type="line" smooth="yes"/>
      <point x="477" y="66"/>
      <point x="450" y="26"/>
      <point x="389" y="26" type="curve"/>
      <point x="528" y="0" type="line"/>
    </contour>
    <contour>
      <point x="91" y="419" type="line"/>
      <point x="130" y="509" type="line" smooth="yes"/>
      <point x="148" y="550"/>
      <point x="174" y="574"/>
      <point x="211" y="574" type="curve"/>
      <point x="80" y="600" type="line"/>
      <point x="71" y="419" type="line"/>
    </contour>
    <contour>
      <point x="429" y="574" type="line"/>
      <point x="525" y="579" type="line"/>
      <point x="525" y="600" type="line"/>
      <point x="80" y="600" type="line"/>
      <point x="80" y="574" type="line"/>
    </contour>
    <contour>
      <point x="308" y="630" type="move" name="top"/>
    </contour>
  </outline>
</glyph>
<glyph name="a" format="1">
  <advance width="482"/>
  <unicode hex="0061"/>
  <outline>
    <contour>
      <point x="229" y="-10"/>
      <point x="299" y="34"/>
      <point x="314" y="94" type="curve"/>
      <point x="308" y="94" type="line"/>
      <point x="311" y="34"/>
      <point x="334" y="-10"/>
      <point x="391" y="-10" type="curve" smooth="yes"/>
      <point x="449" y="-10"/>
      <point x="474" y="26"/>
      <point x="477" y="94" type="curve"/>
      <point x="451" y="95" type="line"/>
      <point x="447" y="45"/>
      <point x="433" y="21"/>
      <point x="412" y="21" type="curve" smooth="yes"/>
      <point x="395" y="21"/>
      <point x="385" y="40"/>
      <point x="385" y="73" type="curve" smooth="yes"/>
      <point x="385" y="284" type="line" smooth="yes"/>
      <point x="385" y="386"/>
      <point x="333" y="435"/>
      <point x="224" y="435" type="curve" smooth="yes"/>
      <point x="113" y="435"/>
      <point x="62" y="390"/>
      <point x="62" y="349" type="curve" smooth="yes"/>
      <point x="62" y="330"/>
      <point x="74" y="312"/>
      <point x="101" y="312" type="curve" smooth="yes"/>
      <point x="158" y="312"/>
      <point x="116" y="410"/>
      <point x="213" y="410" type="curve" smooth="yes"/>
      <point x="274" y="410"/>
      <point x="310" y="377"/>
      <point x="310" y="307" type="curve" smooth="yes"/>
      <point x="310" y="137" type="line"/>
      <point x="295" y="68"/>
      <point x="240" y="30"/>
      <point x="192" y="30" type="curve" smooth="yes"/>
      <point x="147" y="30"/>
      <point x="114" y="59"/>
      <point x="114" y="122" type="curve" smooth="yes"/>
      <point x="114" y="205"/>
      <point x="195" y="217"/>
      <point x="318" y="217" type="curve"/>
      <point x="318" y="244" type="line"/>
      <point x="131" y="244"/>
      <point x="35" y="205"/>
      <point x="35" y="105" type="curve" smooth="yes"/>
      <point x="35" y="28"/>
      <point x="94" y="-10"/>
      <point x="159" y="-10" type="curve" smooth="yes"/>
    </contour>
    <contour>
      <point x="456" y="9" type="move" name="ogonek"/>
    </contour>
    <contour>
      <point x="241" y="500" type="move" name="top"/>
    </contour>
  </outline>
</glyph>
<glyph name="b" format="1">
  <advance width="550"/>
  <unicode hex="0062"/>
  <outline>
    <contour>
      <point x="166" y="100" type="line"/>
      <point x="146" y="100" type="line"/>
      <point x="169" y="27"/>
      <point x="235" y="-10"/>
      <point x="306" y="-10" type="curve" smooth="yes"/>
      <point x="404" y="-10"/>
      <point x="510" y="66"/>
      <point x="510" y="218" type="curve" smooth="yes"/>
      <point x="510" y="324"/>
      <point x="458" y="435"/>
      <point x="339" y="435" type="curve" smooth="yes"/>
      <point x="270" y="435"/>
      <point x="198" y="401"/>
      <point x="169" y="297" type="curve"/>
      <point x="176" y="297" type="line"/>
      <point x="176" y="650" type="line"/>
      <point x="26" y="650" type="line"/>
      <point x="26" y="625" type="line"/>
      <point x="101" y="625" type="line"/>
      <point x="101" y="85" type="line" smooth="yes"/>
      <point x="101" y="30"/>
      <point x="81" y="25"/>
      <point x="26" y="25" type="curve"/>
      <point x="26" y="0" type="line"/>
      <point x="152" y="0" type="line"/>
    </contour>
    <contour>
      <point x="175" y="308"/>
      <point x="225" y="395"/>
      <point x="308" y="395" type="curve" smooth="yes"/>
      <point x="385" y="395"/>
      <point x="425" y="322"/>
      <point x="425" y="211" type="curve" smooth="yes"/>
      <point x="425" y="78"/>
      <point x="368" y="15"/>
      <point x="296" y="15" type="curve" smooth="yes"/>
      <point x="226" y="15"/>
      <point x="175" y="75"/>
      <point x="175" y="192" type="curve" smooth="yes"/>
    </contour>
  </outline>
</glyph>
<glyph name="d" format="1">
  <advance width="548"/>
  <unicode hex="0064"/>
  <outline>
    <contour>
      <point x="276" y="-10"/>
      <point x="352" y="24"/>
      <point x="381" y="128" type="curve"/>
      <point x="371" y="128" type="line"/>
      <point x="381" y="0" type="line"/>
      <point x="523" y="0" type="line"/>
      <point x="523" y="23"/>
      <point x="518" y="26"/>
      <point x="499" y="26" type="curve" smooth="yes"/>
      <point x="449" y="26" type="line"/>
      <point x="447" y="650" type="line"/>
      <point x="271" y="650" type="line"/>
      <point x="271" y="624" type="line"/>
      <point x="372" y="624" type="line"/>
      <point x="372" y="325" type="line"/>
      <point x="404" y="325" type="line"/>
      <point x="382" y="394"/>
      <point x="319" y="435"/>
      <point x="240" y="435" type="curve" smooth="yes"/>
      <point x="107" y="435"/>
      <point x="40" y="317"/>
      <point x="40" y="202" type="curve" smooth="yes"/>
      <point x="40" y="95"/>
      <point x="98" y="-10"/>
      <point x="211" y="-10" type="curve" smooth="yes"/>
    </contour>
    <contour>
      <point x="165" y="30"/>
      <point x="125" y="103"/>
      <point x="125" y="214" type="curve" smooth="yes"/>
      <point x="125" y="347"/>
      <point x="182" y="410"/>
      <point x="254" y="410" type="curve" smooth="yes"/>
      <point x="323" y="410"/>
      <point x="375" y="350"/>
      <point x="375" y="233" type="curve" smooth="yes"/>
      <point x="375" y="117"/>
      <point x="324" y="30"/>
      <point x="242" y="30" type="curve" smooth="yes"/>
    </contour>
    <contour>
      <point x="274" y="250" type="move" name="center"/>
    </contour>
    <contour>
      <point x="528" y="500" type="move" name="topright"/>
    </contour>
  </outline>
</glyph>
<glyph name="g" format="1">
  <advance width="491"/>
  <unicode hex="0067"/>
  <outline>
    <contour>
      <point x="164" y="140"/>
      <point x="140" y="202"/>
      <point x="140" y="277" type="curve" smooth="yes"/>
      <point x="140" y="352"/>
      <point x="164" y="410"/>
      <point x="240" y="410" type="curve" smooth="yes"/>
      <point x="316" y="410"/>
      <point x="339" y="352"/>
      <point x="339" y="277" type="curve" smooth="yes"/>
      <point x="339" y="202"/>
      <point x="316" y="140"/>
      <point x="240" y="140" type="curve" smooth="yes"/>
    </contour>
    <contour>
      <point x="419" y="377"/>
      <point x="335" y="435"/>
      <point x="241" y="435" type="curve" smooth="yes"/>
      <point x="147" y="435"/>
      <point x="60" y="376"/>
      <point x="60" y="276" type="curve" smooth="yes"/>
      <point x="60" y="181"/>
      <point x="160" y="115"/>
      <point x="239" y="115" type="curve" smooth="yes"/>
      <point x="333" y="115"/>
      <point x="419" y="177"/>
      <point x="419" y="277" type="curve" smooth="yes"/>
    </contour>
    <contour>
      <point x="363" y="350"/>
      <point x="359" y="362"/>
      <point x="359" y="379" type="curve" smooth="yes"/>
      <point x="359" y="410"/>
      <point x="379" y="436"/>
      <point x="403" y="436" type="curve" smooth="yes"/>
      <point x="430" y="436"/>
      <point x="431" y="411"/>
      <point x="453" y="411" type="curve" smooth="yes"/>
      <point x="472" y="411"/>
      <point x="482" y="426"/>
      <point x="482" y="443" type="curve" smooth="yes"/>
      <point x="482" y="465"/>
      <point x="466" y="489"/>
      <point x="431" y="489" type="curve" smooth="yes"/>
      <point x="387" y="489"/>
      <point x="332" y="450"/>
      <point x="332" y="370" type="curve" smooth="yes"/>
      <point x="332" y="365"/>
      <point x="332" y="360"/>
      <point x="333" y="355" type="curve"/>
      <point x="369" y="338" type="line"/>
    </contour>
    <contour>
      <point x="153" y="141" type="line" smooth="yes"/>
      <point x="89" y="141"/>
      <point x="65" y="101"/>
      <point x="65" y="60" type="curve" smooth="yes"/>
      <point x="65" y="16"/>
      <point x="95" y="-33"/>
      <point x="166" y="-34" type="curve" smooth="yes"/>
      <point x="320" y="-36" type="line" smooth="yes"/>
      <point x="380" y="-37"/>
      <point x="410" y="-49"/>
      <point x="410" y="-90" type="curve" smooth="yes"/>
      <point x="410" y="-138"/>
      <point x="328" y="-164"/>
      <point x="241" y="-164" type="curve" smooth="yes"/>
      <point x="152" y="-164"/>
      <point x="109" y="-127"/>
      <point x="109" y="-84" type="curve" smooth="yes"/>
      <point x="109" y="-64"/>
      <point x="121" y="-41"/>
      <point x="141" y="-21" type="curve"/>
      <point x="118" y="-10" type="line"/>
      <point x="89" y="-35"/>
      <point x="75" y="-64"/>
      <point x="75" y="-90" type="curve" smooth="yes"/>
      <point x="75" y="-143"/>
      <point x="130" y="-190"/>
      <point x="241" y="-190" type="curve" smooth="yes"/>
      <point x="394" y="-190"/>
      <point x="458" y="-127"/>
      <point x="458" y="-63" type="curve" smooth="yes"/>
      <point x="458" y="-4"/>
      <point x="420" y="36"/>
      <point x="332" y="38" type="curve" smooth="yes"/>
      <point x="150" y="42" type="line" smooth="yes"/>
      <point x="119" y="43"/>
      <point x="103" y="56"/>
      <point x="103" y="82" type="curve" smooth="yes"/>
      <point x="103" y="99"/>
      <point x="117" y="116"/>
      <point x="151" y="116" type="curve" smooth="yes"/>
      <point x="239" y="115" type="line"/>
      <point x="197" y="141" type="line"/>
    </contour>
    <contour>
      <point x="253" y="500" type="move" name="top"/>
    </contour>
  </outline>
</glyph>
<glyph name="i" format="1">
  <advance width="287"/>
  <unicode hex="0069"/>
  <outline>
    <contour>
      <point x="262" y="22"/>
      <point x="257" y="26"/>
      <point x="238" y="26" type="curve" smooth="yes"/>
      <point x="184" y="26" type="line"/>
      <point x="184" y="425" type="line"/>
      <point x="30" y="425" type="line"/>
      <point x="30" y="399" type="line"/>
      <point x="109" y="399" type="line"/>
      <point x="109" y="78" type="line" smooth="yes"/>
      <point x="109" y="36"/>
      <point x="75" y="26"/>
      <point x="30" y="26" type="curve"/>
      <point x="30" y="0" type="line"/>
      <point x="262" y="0" type="line"/>
    </contour>
    <contour>
      <point x="172" y="516"/>
      <point x="196" y="540"/>
      <point x="196" y="571" type="curve" smooth="yes"/>
      <point x="196" y="601"/>
      <point x="172" y="626"/>
      <point x="142" y="626" type="curve" smooth="yes"/>
      <point x="111" y="626"/>
      <point x="87" y="601"/>
      <point x="87" y="571" type="curve" smooth="yes"/>
      <point x="87" y="540"/>
      <point x="111" y="516"/>
      <point x="142" y="516" type="curve" smooth="yes"/>
    </contour>
  </outline>
</glyph>
<glyph name="j" format="1">
  <advance width="271"/>
  <unicode hex="006A"/>
  <outline>
    <contour>
      <point x="179" y="516"/>
      <point x="203" y="540"/>
      <point x="203" y="571" type="curve" smooth="yes"/>
      <point x="203" y="601"/>
      <point x="179" y="626"/>
      <point x="149" y="626" type="curve" smooth="yes"/>
      <point x="118" y="626"/>
      <point x="94" y="601"/>
      <point x="94" y="571" type="curve" smooth="yes"/>
      <point x="94" y="540"/>
      <point x="118" y="516"/>
      <point x="149" y="516" type="curve" smooth="yes"/>
    </contour>
    <contour>
      <point x="37" y="425" type="line"/>
      <point x="37" y="399" type="line"/>
      <point x="118" y="399" type="line"/>
      <point x="118" y="-3" type="line" smooth="yes"/>
      <point x="118" y="-24"/>
      <point x="118" y="-46"/>
      <point x="118" y="-67" type="curve" smooth="yes"/>
      <point x="117" y="-121"/>
      <point x="108" y="-165"/>
      <point x="77" y="-165" type="curve" smooth="yes"/>
      <point x="35" y="-165"/>
      <point x="62" y="-93"/>
      <point x="13" y="-93" type="curve" smooth="yes"/>
      <point x="-10" y="-93"/>
      <point x="-25" y="-108"/>
      <point x="-25" y="-129" type="curve" smooth="yes"/>
      <point x="-25" y="-164"/>
      <point x="15" y="-190"/>
      <point x="59" y="-190" type="curve" smooth="yes"/>
      <point x="121" y="-190"/>
      <point x="193" y="-143"/>
      <point x="193" y="-13" type="curve" smooth="yes"/>
      <point x="193" y="425" type="line"/>
    </contour>
  </outline>
</glyph>
<glyph name="k" format="1">
  <advance width="510"/>
  <unicode hex="006B"/>
  <outline>
    <contour>
      <point x="252" y="22"/>
      <point x="247" y="26"/>
      <point x="228" y="26" type="curve" smooth="yes"/>
      <point x="181" y="26" type="line"/>
      <point x="181" y="650" type="line"/>
      <point x="30" y="650" type="line"/>
      <point x="30" y="624" type="line"/>
      <point x="106" y="624" type="line"/>
      <point x="106" y="78" type="line" smooth="yes"/>
      <point x="106" y="36"/>
      <point x="72" y="26"/>
      <point x="30" y="26" type="curve"/>
      <point x="30" y="0" type="line"/>
      <point x="252" y="0" type="line"/>
    </contour>
    <contour>
      <point x="164" y="157" type="line"/>
      <point x="382" y="361" type="line" smooth="yes"/>
      <point x="405" y="383"/>
      <point x="423" y="399"/>
      <point x="446" y="399" type="curve" smooth="yes"/>
      <point x="476" y="399"/>
      <point x="478" y="400"/>
      <point x="478" y="425" type="curve"/>
      <point x="310" y="425" type="line"/>
      <point x="310" y="399" type="line"/>
      <point x="383" y="399" type="line"/>
      <point x="158" y="192" type="line"/>
    </contour>
    <contour>
      <point x="233" y="229" type="line"/>
      <point x="377" y="0" type="line"/>
      <point x="510" y="0" type="line"/>
      <point x="510" y="23"/>
      <point x="505" y="26"/>
      <point x="486" y="26" type="curve" smooth="yes"/>
      <point x="448" y="26" type="line"/>
      <point x="284" y="278" type="line"/>
    </contour>
    <contour>
      <point x="289" y="0" type="move" name="bottom"/>
    </contour>
  </outline>
</glyph>
<glyph name="l" format="1">
  <advance width="287"/>
  <unicode hex="006C"/>
  <outline>
    <contour>
      <point x="262" y="22"/>
      <point x="257" y="26"/>
      <point x="238" y="26" type="curve" smooth="yes"/>
      <point x="183" y="26" type="line"/>
      <point x="183" y="650" type="line"/>
      <point x="30" y="650" type="line"/>
      <point x="30" y="624" type="line"/>
      <point x="108" y="624" type="line"/>
      <point x="108" y="80" type="line" smooth="yes"/>
      <point x="108" y="35"/>
      <point x="85" y="26"/>
      <point x="30" y="26" type="curve"/>
      <point x="30" y="0" type="line"/>
      <point x="262" y="0" type="line"/>
    </contour>
  </outline>
</glyph>
<glyph name="r" format="1">
  <advance width="393"/>
  <unicode hex="0072"/>
  <outline>
    <contour>
      <point x="373" y="333"/>
      <point x="388" y="352"/>
      <point x="388" y="374" type="curve" smooth="yes"/>
      <point x="388" y="401"/>
      <point x="365" y="431"/>
      <point x="325" y="431" type="curve" smooth="yes"/>
      <point x="274" y="431"/>
      <point x="198" y="392"/>
      <point x="175" y="310" type="curve"/>
      <point x="182" y="224" type="line"/>
      <point x="182" y="331"/>
      <point x="250" y="392"/>
      <point x="275" y="392" type="curve" smooth="yes"/>
      <point x="310" y="392"/>
      <point x="305" y="333"/>
      <point x="348" y="333" type="curve" smooth="yes"/>
    </contour>
    <contour>
      <point x="279" y="22"/>
      <point x="274" y="26"/>
      <point x="255" y="26" type="curve" smooth="yes"/>
      <point x="182" y="26" type="line"/>
      <point x="182" y="297" type="line"/>
      <point x="177" y="425" type="line"/>
      <point x="30" y="425" type="line"/>
      <point x="30" y="399" type="line"/>
      <point x="107" y="399" type="line"/>
      <point x="107" y="78" type="line" smooth="yes"/>
      <point x="107" y="36"/>
      <point x="82" y="26"/>
      <point x="30" y="26" type="curve"/>
      <point x="30" y="0" type="line"/>
      <point x="279" y="0" type="line"/>
    </contour>
    <contour>
      <point x="199" y="500" type="move" name="top"/>
    </contour>
    <contour>
      <point x="145" y="0" type="move" name="bottom"/>
    </contour>
  </outline>
</glyph>
<glyph name="t" format="1">
  <advance width="331"/>
  <unicode hex="0074"/>
  <outline>
    <contour>
      <point x="25" y="399" type="line"/>
      <point x="326" y="399" type="line"/>
      <point x="326" y="425" type="line"/>
      <point x="25" y="425" type="line"/>
    </contour>
    <contour>
      <point x="96" y="16"/>
      <point x="153" y="-11"/>
      <point x="211" y="-11" type="curve" smooth="yes"/>
      <point x="264" y="-11"/>
      <point x="310" y="19"/>
      <point x="326" y="104" type="curve"/>
      <point x="299" y="109" type="line"/>
      <point x="285" y="44"/>
      <point x="255" y="19"/>
      <point x="226" y="19" type="curve" smooth="yes"/>
      <point x="191" y="19"/>
      <point x="171" y="44"/>
      <point x="171" y="96" type="curve" smooth="yes"/>
      <point x="171" y="541" type="line"/>
      <point x="96" y="520" type="line"/>
      <point x="96" y="118" type="line" smooth="yes"/>
    </contour>
    <contour>
      <point x="166" y="250" type="move" name="center"/>
    </contour>
    <contour>
      <point x="187" y="0" type="move" name="bottom"/>
    </contour>
    <contour>
      <point x="311" y="500" type="move" name="topright"/>
    </contour>
  </outline>
</glyph>
<glyph name="y" format="1">
  <advance width="484"/>
  <unicode hex="0079"/>
  <outline>
    <contour>
      <point x="202" y="399" type="line"/>
      <point x="202" y="425" type="line"/>
      <point x="7" y="425" type="line"/>
      <point x="7" y="399" type="line"/>
      <point x="56" y="399" type="line"/>
      <point x="236" y="0" type="line"/>
      <point x="268" y="0" type="line"/>
      <point x="416" y="365" type="line" smooth="yes"/>
      <point x="426" y="393"/>
      <point x="431" y="399"/>
      <point x="454" y="399" type="curve" smooth="yes"/>
      <point x="472" y="399"/>
      <point x="479" y="400"/>
      <point x="479" y="425" type="curve"/>
      <point x="327" y="425" type="line"/>
      <point x="327" y="399" type="line"/>
      <point x="400" y="399" type="line"/>
      <point x="266" y="64" type="line"/>
      <point x="276" y="64" type="line"/>
      <point x="133" y="399" type="line"/>
    </contour>
    <contour>
      <point x="147" y="-190"/>
      <point x="208" y="-154"/>
      <point x="268" y="0" type="curve"/>
      <point x="258" y="54" type="line"/>
      <point x="198" y="-99"/>
      <point x="156" y="-159"/>
      <point x="103" y="-159" type="curve" smooth="yes"/>
      <point x="68" y="-159"/>
      <point x="93" y="-93"/>
      <point x="39" y="-93" type="curve" smooth="yes"/>
      <point x="13" y="-93"/>
      <point x="-1" y="-108"/>
      <point x="-1" y="-127" type="curve" smooth="yes"/>
      <point x="-1" y="-164"/>
      <point x="39" y="-190"/>
      <point x="85" y="-190" type="curve" smooth="yes"/>
    </contour>
  </outline>
</glyph>
<glyph name="z" format="1">
  <advance width="422"/>
  <unicode hex="007A"/>
  <outline>
    <contour>
      <point x="115" y="26" type="line"/>
      <point x="386" y="409" type="line"/>
      <point x="386" y="430" type="line"/>
      <point x="48" y="430" type="line"/>
      <point x="68" y="404" type="line"/>
      <point x="303" y="404" type="line"/>
      <point x="22" y="22" type="line"/>
    </contour>
    <contour>
      <point x="115" y="26" type="line"/>
      <point x="22" y="22" type="line"/>
      <point x="22" y="0" type="line"/>
      <point x="387" y="0" type="line"/>
      <point x="357" y="26" type="line"/>
    </contour>
    <contour>
      <point x="39" y="300" type="line"/>
      <point x="54" y="300" type="line"/>
      <point x="78" y="355" type="line" smooth="yes"/>
      <point x="93" y="390"/>
      <point x="112" y="404"/>
      <point x="142" y="404" type="curve"/>
      <point x="48" y="430" type="line"/>
    </contour>
    <contour>
      <point x="390" y="151" type="line"/>
      <point x="376" y="151" type="line"/>
      <point x="364" y="96" type="line" smooth="yes"/>
      <point x="357" y="62"/>
      <point x="335" y="26"/>
      <point x="295" y="26" type="curve"/>
      <point x="387" y="0" type="line"/>
    </contour>
    <contour>
      <point x="211" y="500" type="move" name="top"/>
    </contour>
  </outline>
</glyph>
<glyph name="cent" format="1">
  <advance width="461"/>
  <unicode hex="00A2"/>
  <outline>
    <contour>
      <point x="104" y="500"/>
      <point x="40" y="391"/>
      <point x="40" y="273" type="curve" smooth="yes"/>
      <point x="40" y="134"/>
      <point x="138" y="55"/>
      <point x="254" y="55" type="curve" smooth="yes"/>
      <point x="335" y="55"/>
      <point x="403" y="94"/>
      <point x="431" y="165" type="curve"/>
      <point x="405" y="171" type="line"/>
      <point x="379" y="115"/>
      <point x="328" y="82"/>
      <point x="266" y="82" type="curve" smooth="yes"/>
      <point x="189" y="82"/>
      <point x="125" y="158"/>
      <point x="125" y="282" type="curve" smooth="yes"/>
      <point x="125" y="392"/>
      <point x="168" y="475"/>
      <point x="258" y="475" type="curve" smooth="yes"/>
      <point x="369" y="475"/>
      <point x="292" y="358"/>
      <point x="372" y="352" type="curve" smooth="yes"/>
      <point x="401" y="350"/>
      <point x="417" y="370"/>
      <point x="417" y="393" type="curve" smooth="yes"/>
      <point x="417" y="453"/>
      <point x="334" y="500"/>
      <point x="252" y="500" type="curve" smooth="yes"/>
    </contour>
    <contour>
      <point x="233" y="-20" type="line"/>
      <point x="262" y="-20" type="line"/>
      <point x="262" y="570" type="line"/>
      <point x="233" y="570" type="line"/>
    </contour>
  </outline>
</glyph>
<glyph name="currency" format="1">
  <advance width="603"/>
  <unicode hex="00A4"/>
  <outline>
    <contour>
      <point x="375" y="110"/>
      <point x="297" y="110" type="curve" smooth="yes"/>
      <point x="218" y="110"/>
      <point x="139" y="167"/>
      <point x="139" y="281" type="curve" smooth="yes"/>
      <point x="139" y="393"/>
      <point x="217" y="450"/>
      <point x="296" y="450" type="curve" smooth="yes"/>
      <point x="374" y="450"/>
      <point x="453" y="393"/>
      <point x="453" y="280" type="curve" smooth="yes"/>
      <point x="453" y="166"/>
    </contour>
    <contour>
      <point x="197" y="77"/>
      <point x="295" y="77" type="curve" smooth="yes"/>
      <point x="394" y="77"/>
      <point x="493" y="146"/>
      <point x="493" y="282" type="curve" smooth="yes"/>
      <point x="493" y="416"/>
      <point x="396" y="482"/>
      <point x="298" y="482" type="curve" smooth="yes"/>
      <point x="199" y="482"/>
      <point x="99" y="414"/>
      <point x="99" y="279" type="curve" smooth="yes"/>
      <point x="99" y="145"/>
    </contour>
    <contour>
      <point x="418" y="420" type="line"/>
      <point x="442" y="396" type="line"/>
      <point x="540" y="494" type="line"/>
      <point x="516" y="519" type="line"/>
    </contour>
    <contour>
      <point x="58" y="61" type="line"/>
      <point x="83" y="37" type="line"/>
      <point x="181" y="135" type="line"/>
      <point x="157" y="159" type="line"/>
    </contour>
    <contour>
      <point x="155" y="398" type="line"/>
      <point x="179" y="422" type="line"/>
      <point x="80" y="520" type="line"/>
      <point x="56" y="496" type="line"/>
    </contour>
    <contour>
      <point x="514" y="38" type="line"/>
      <point x="538" y="62" type="line"/>
      <point x="440" y="161" type="line"/>
      <point x="416" y="137" type="line"/>
    </contour>
  </outline>
</glyph>
<glyph name="ordfeminine" format="1">
  <advance width="311"/>
  <unicode hex="00AA"/>
  <outline>
    <contour>
      <point x="279" y="244" type="line"/>
      <point x="279" y="279" type="line"/>
      <point x="27" y="279" type="line"/>
      <point x="27" y="244" type="line"/>
    </contour>
    <contour>
      <point x="268" y="331"/>
      <point x="289" y="351"/>
      <point x="291" y="395" type="curve"/>
      <point x="272" y="395" type="line"/>
      <point x="269" y="365"/>
      <point x="261" y="357"/>
      <point x="252" y="357" type="curve" smooth="yes"/>
      <point x="242" y="357"/>
      <point x="237" y="364"/>
      <point x="237" y="384" type="curve" smooth="yes"/>
      <point x="237" y="506" type="line" smooth="yes"/>
      <point x="237" y="578"/>
      <point x="187" y="600"/>
      <point x="128" y="600" type="curve" smooth="yes"/>
      <point x="73" y="600"/>
      <point x="30" y="577"/>
      <point x="30" y="542" type="curve" smooth="yes"/>
      <point x="30" y="522"/>
      <point x="44" y="513"/>
      <point x="61" y="513" type="curve" smooth="yes"/>
      <point x="115" y="513"/>
      <point x="76" y="580"/>
      <point x="131" y="580" type="curve" smooth="yes"/>
      <point x="165" y="580"/>
      <point x="177" y="554"/>
      <point x="177" y="510" type="curve" smooth="yes"/>
      <point x="177" y="428" type="line"/>
      <point x="167" y="393"/>
      <point x="143" y="362"/>
      <point x="113" y="362" type="curve" smooth="yes"/>
      <point x="92" y="362"/>
      <point x="79" y="380"/>
      <point x="79" y="409" type="curve" smooth="yes"/>
      <point x="79" y="439"/>
      <point x="98" y="463"/>
      <point x="182" y="463" type="curve"/>
      <point x="182" y="483" type="line"/>
      <point x="65" y="483"/>
      <point x="15" y="463"/>
      <point x="15" y="402" type="curve" smooth="yes"/>
      <point x="15" y="354"/>
      <point x="52" y="330"/>
      <point x="92" y="330" type="curve" smooth="yes"/>
      <point x="136" y="330"/>
      <point x="167" y="358"/>
      <point x="179" y="394" type="curve"/>
      <point x="175" y="394" type="line"/>
      <point x="178" y="355"/>
      <point x="201" y="331"/>
      <point x="237" y="331" type="curve" smooth="yes"/>
    </contour>
  </outline>
</glyph>
<glyph name="AE" format="1">
  <advance width="860"/>
  <unicode hex="00C6"/>
  <outline>
    <contour>
      <point x="825" y="420" type="line"/>
      <point x="820" y="600" type="line"/>
      <point x="417" y="600" type="line"/>
      <point x="417" y="574" type="line"/>
      <point x="685" y="574" type="line" smooth="yes"/>
      <point x="752" y="574"/>
      <point x="777" y="515"/>
      <point x="791" y="467" type="curve" smooth="yes"/>
      <point x="805" y="420" type="line"/>
    </contour>
    <contour>
      <point x="820" y="0" type="line"/>
      <point x="825" y="180" type="line"/>
      <point x="805" y="180" type="line"/>
      <point x="791" y="133" type="line" smooth="yes"/>
      <point x="776" y="82"/>
      <point x="752" y="26"/>
      <point x="685" y="26" type="curve" smooth="yes"/>
      <point x="359" y="26" type="line"/>
      <point x="359" y="0" type="line"/>
    </contour>
    <contour>
      <point x="731" y="295" type="line"/>
      <point x="731" y="324" type="line"/>
      <point x="484" y="324" type="line"/>
      <point x="484" y="295" type="line"/>
    </contour>
    <contour>
      <point x="191" y="0" type="line"/>
      <point x="191" y="22"/>
      <point x="186" y="26"/>
      <point x="167" y="26" type="curve" smooth="yes"/>
      <point x="110" y="26" type="line"/>
      <point x="459" y="600" type="line"/>
      <point x="417" y="600" type="line"/>
      <point x="65" y="26" type="line"/>
      <point x="5" y="26" type="line"/>
      <point x="5" y="0" type="line"/>
    </contour>
    <contour>
      <point x="578" y="0" type="line"/>
      <point x="578" y="22"/>
      <point x="573" y="26"/>
      <point x="553" y="26" type="curve" smooth="yes"/>
      <point x="359" y="26" type="line"/>
      <point x="359" y="0" type="line"/>
    </contour>
    <contour>
      <point x="478" y="240" type="line"/>
      <point x="463" y="269" type="line"/>
      <point x="243" y="269" type="line"/>
      <point x="233" y="240" type="line"/>
    </contour>
    <component base="vertical_stem_upper" xOffset="402"/>
    <contour>
      <point x="578" y="630" type="move" name="top"/>
    </contour>
  </outline>
</glyph>
<glyph name="eth" format="1">
  <advance width="519"/>
  <unicode hex="00F0"/>
  <outline>
    <contour>
      <point x="405" y="-10"/>
      <point x="474" y="109"/>
      <point x="474" y="246" type="curve" smooth="yes"/>
      <point x="474" y="432"/>
      <point x="347" y="640"/>
      <point x="116" y="650" type="curve"/>
      <point x="113" y="623" type="line"/>
      <point x="286" y="611"/>
      <point x="351" y="468"/>
      <point x="371" y="340" type="curve"/>
      <point x="405" y="341" type="line"/>
      <point x="365" y="384"/>
      <point x="311" y="403"/>
      <point x="257" y="403" type="curve" smooth="yes"/>
      <point x="149" y="403"/>
      <point x="40" y="327"/>
      <point x="40" y="200" type="curve" smooth="yes"/>
      <point x="40" y="63"/>
      <point x="148" y="-10"/>
      <point x="256" y="-10" type="curve" smooth="yes"/>
    </contour>
    <contour>
      <point x="166" y="15"/>
      <point x="125" y="92"/>
      <point x="125" y="196" type="curve" smooth="yes"/>
      <point x="125" y="320"/>
      <point x="182" y="378"/>
      <point x="259" y="378" type="curve" smooth="yes"/>
      <point x="333" y="378"/>
      <point x="391" y="321"/>
      <point x="391" y="201" type="curve" smooth="yes"/>
      <point x="391" y="114"/>
      <point x="352" y="15"/>
      <point x="259" y="15" type="curve" smooth="yes"/>
    </contour>
    <contour>
      <point x="411" y="627" type="line"/>
      <point x="396" y="653" type="line"/>
      <point x="130" y="504" type="line"/>
      <point x="146" y="476" type="line"/>
    </contour>
  </outline>
</glyph>
<glyph name="divide" format="1">
  <advance width="397"/>
  <unicode hex="00F7"/>
  <outline>
    <contour>
      <point x="224" y="128"/>
      <point x="239" y="112"/>
      <point x="239" y="95" type="curve" smooth="yes"/>
      <point x="239" y="76"/>
      <point x="228" y="67"/>
      <point x="206" y="67" type="curve" smooth="yes"/>
      <point x="185" y="67"/>
      <point x="175" y="77"/>
      <point x="175" y="97" type="curve" smooth="yes"/>
      <point x="175" y="118"/>
      <point x="186" y="128"/>
      <point x="207" y="128" type="curve" smooth="yes"/>
    </contour>
    <contour>
      <point x="173" y="313"/>
      <point x="189" y="328"/>
      <point x="206" y="328" type="curve" smooth="yes"/>
      <point x="222" y="328"/>
      <point x="237" y="311"/>
      <point x="237" y="295" type="curve" smooth="yes"/>
      <point x="237" y="275"/>
      <point x="226" y="265"/>
      <point x="205" y="265" type="curve" smooth="yes"/>
      <point x="184" y="265"/>
      <point x="173" y="276"/>
      <point x="173" y="297" type="curve" smooth="yes"/>
    </contour>
    <contour>
      <point x="38" y="182" type="line"/>
      <point x="38" y="222" type="line"/>
      <point x="373" y="222" type="line"/>
      <point x="373" y="182" type="line"/>
    </contour>
  </outline>
</glyph>
<glyph name="dcroat" format="1">
  <advance width="548"/>
  <unicode hex="0111"/>
  <outline>
    <contour>
      <point x="183" y="509" type="line"/>
      <point x="523" y="509" type="line"/>
      <point x="523" y="542" type="line"/>
      <point x="183" y="542" type="line"/>
    </contour>
    <component base="d"/>
  </outline>
</glyph>
<glyph name="lslash" format="1">
  <advance width="287"/>
  <unicode hex="0142"/>
  <outline>
    <contour>
      <point x="19" y="237" type="line"/>
      <point x="292" y="392" type="line"/>
      <point x="277" y="417" type="line"/>
      <point x="4" y="263" type="line"/>
    </contour>
    <component base="l"/>
  </outline>
</glyph>
<glyph name="breve" format="1">
  <advance width="500"/>
  <unicode hex="02D8"/>
  <outline>
    <contour>
      <point x="159" y="586"/>
      <point x="205" y="574"/>
      <point x="254" y="574" type="curve" smooth="yes"/>
      <point x="297" y="574"/>
      <point x="341" y="583"/>
      <point x="352" y="639" type="curve"/>
      <point x="373" y="639" type="line"/>
      <point x="373" y="573"/>
      <point x="340" y="510"/>
      <point x="251" y="510" type="curve" smooth="yes"/>
      <point x="163" y="510"/>
      <point x="128" y="573"/>
      <point x="128" y="639" type="curve"/>
      <point x="148" y="639" type="line"/>
    </contour>
    <contour>
      <point x="251" y="500" type="move" name="_top"/>
    </contour>
  </outline>
</glyph>
<glyph name="ogonek" format="1">
  <advance width="500"/>
  <unicode hex="02DB"/>
  <outline>
    <contour>
      <point x="295" y="-155"/>
      <point x="275" y="-162"/>
      <point x="259" y="-162" type="curve" smooth="yes"/>
      <point x="234" y="-162"/>
      <point x="217" y="-145"/>
      <point x="217" y="-112" type="curve" smooth="yes"/>
      <point x="217" y="-75"/>
      <point x="246" y="-26"/>
      <point x="313" y="0" type="curve"/>
      <point x="312" y="9" type="line"/>
      <point x="190" y="-13"/>
      <point x="141" y="-69"/>
      <point x="141" y="-116" type="curve" smooth="yes"/>
      <point x="141" y="-157"/>
      <point x="177" y="-191"/>
      <point x="237" y="-191" type="curve" smooth="yes"/>
      <point x="268" y="-191"/>
      <point x="301" y="-180"/>
      <point x="326" y="-154" type="curve"/>
      <point x="314" y="-139" type="line"/>
    </contour>
    <contour>
      <point x="313" y="9" type="move" name="_ogonek"/>
    </contour>
  </outline>
</glyph>
<glyph name="anusvara" format="1">
  <advance width="364"/>
  <unicode hex="0D82"/>
  <outline>
    <contour>
      <point x="226" y="265"/>
      <point x="202" y="275"/>
      <point x="173" y="275" type="curve" smooth="yes"/>
      <point x="116" y="275"/>
      <point x="68" y="229"/>
      <point x="68" y="172" type="curve" smooth="yes"/>
      <point x="68" y="116"/>
      <point x="115" y="69"/>
      <point x="172" y="69" type="curve" smooth="yes"/>
      <point x="228" y="69"/>
      <point x="277" y="116"/>
      <point x="277" y="173" type="curve" smooth="yes"/>
      <point x="277" y="200"/>
      <point x="267" y="224"/>
      <point x="247" y="245" type="curve"/>
    </contour>
    <contour>
      <point x="31" y="245"/>
      <point x="95" y="304"/>
      <point x="174" y="304" type="curve" smooth="yes"/>
      <point x="254" y="304"/>
      <point x="315" y="241"/>
      <point x="315" y="164" type="curve" smooth="yes"/>
      <point x="315" y="85"/>
      <point x="252" y="25"/>
      <point x="175" y="25" type="curve" smooth="yes"/>
      <point x="104" y="25"/>
      <point x="31" y="78"/>
      <point x="31" y="166" type="curve" smooth="yes"/>
    </contour>
  </outline>
</glyph>
<glyph name="visarga" format="1">
  <advance width="248"/>
  <unicode hex="0D83"/>
  <outline>
    <contour>
      <point x="86" y="171"/>
      <point x="60" y="147"/>
      <point x="60" y="118" type="curve" smooth="yes"/>
      <point x="60" y="89"/>
      <point x="84" y="63"/>
      <point x="116" y="63" type="curve" smooth="yes"/>
      <point x="147" y="63"/>
      <point x="171" y="86"/>
      <point x="171" y="117" type="curve" smooth="yes"/>
      <point x="171" y="146"/>
      <point x="146" y="171"/>
      <point x="115" y="171" type="curve" smooth="yes"/>
    </contour>
    <contour>
      <point x="86" y="358"/>
      <point x="60" y="334"/>
      <point x="60" y="305" type="curve" smooth="yes"/>
      <point x="60" y="276"/>
      <point x="84" y="250"/>
      <point x="116" y="250" type="curve" smooth="yes"/>
      <point x="147" y="250"/>
      <point x="171" y="273"/>
      <point x="171" y="304" type="curve" smooth="yes"/>
      <point x="171" y="333"/>
      <point x="146" y="358"/>
      <point x="115" y="358" type="curve" smooth="yes"/>
    </contour>
    <contour>
      <point x="32" y="351"/>
      <point x="70" y="387"/>
      <point x="115" y="387" type="curve" smooth="yes"/>
      <point x="160" y="387"/>
      <point x="199" y="350"/>
      <point x="199" y="306" type="curve" smooth="yes"/>
      <point x="199" y="262"/>
      <point x="160" y="224"/>
      <point x="116" y="224" type="curve" smooth="yes"/>
      <point x="71" y="224"/>
      <point x="32" y="262"/>
      <point x="32" y="306" type="curve" smooth="yes"/>
    </contour>
    <contour>
      <point x="32" y="164"/>
      <point x="72" y="201"/>
      <point x="116" y="201" type="curve" smooth="yes"/>
      <point x="161" y="201"/>
      <point x="199" y="163"/>
      <point x="199" y="119" type="curve" smooth="yes"/>
      <point x="199" y="74"/>
      <point x="160" y="37"/>
      <point x="115" y="37" type="curve" smooth="yes"/>
      <point x="70" y="37"/>
      <point x="32" y="75"/>
      <point x="32" y="119" type="curve" smooth="yes"/>
    </contour>
  </outline>
</glyph>
<glyph name="si_A" format="1">
  <advance width="573"/>
  <unicode hex="0D85"/>
  <outline>
    <contour>
      <point x="431" y="229"/>
      <point x="448" y="238"/>
      <point x="457" y="254" type="curve"/>
      <point x="461" y="262"/>
      <point x="463" y="271"/>
      <point x="463" y="281" type="curve" smooth="yes"/>
      <point x="463" y="304"/>
      <point x="451" y="335"/>
      <point x="427" y="374" type="curve"/>
      <point x="422" y="383"/>
      <point x="421" y="392"/>
      <point x="424" y="401" type="curve"/>
      <point x="400" y="388"/>
      <point x="388" y="360"/>
      <point x="388" y="317" type="curve" smooth="yes"/>
      <point x="388" y="233" type="line"/>
      <point x="396" y="230"/>
      <point x="404" y="229"/>
      <point x="411" y="229" type="curve" smooth="yes"/>
    </contour>
    <contour>
      <point x="33" y="224"/>
      <point x="63" y="269"/>
      <point x="115" y="292" type="curve" smooth="yes"/>
      <point x="141" y="303"/>
      <point x="171" y="309"/>
      <point x="206" y="309" type="curve" smooth="yes"/>
      <point x="316" y="309" type="line"/>
      <point x="315" y="348"/>
      <point x="299" y="374"/>
      <point x="268" y="386" type="curve" smooth="yes"/>
      <point x="256" y="391"/>
      <point x="245" y="393"/>
      <point x="236" y="393" type="curve" smooth="yes"/>
      <point x="217" y="393"/>
      <point x="205" y="387"/>
      <point x="185" y="354" type="curve" smooth="yes"/>
      <point x="176" y="339"/>
      <point x="163" y="331"/>
      <point x="144" y="331" type="curve" smooth="yes"/>
      <point x="123" y="331"/>
      <point x="108" y="350"/>
      <point x="108" y="371" type="curve" smooth="yes"/>
      <point x="108" y="380"/>
      <point x="110" y="388"/>
      <point x="115" y="395" type="curve" smooth="yes"/>
      <point x="132" y="420"/>
      <point x="166" y="433"/>
      <point x="217" y="433" type="curve" smooth="yes"/>
      <point x="257" y="433"/>
      <point x="292" y="418"/>
      <point x="314" y="392" type="curve" smooth="yes"/>
      <point x="336" y="366"/>
      <point x="347" y="328"/>
      <point x="347" y="287" type="curve"/>
      <point x="236" y="287" type="line" smooth="yes"/>
      <point x="167" y="287"/>
      <point x="113" y="233"/>
      <point x="113" y="164" type="curve" smooth="yes"/>
      <point x="113" y="105"/>
      <point x="143" y="62"/>
      <point x="197" y="40" type="curve" smooth="yes"/>
      <point x="224" y="29"/>
      <point x="256" y="23"/>
      <point x="294" y="23" type="curve" smooth="yes"/>
      <point x="314" y="23"/>
      <point x="336" y="25"/>
      <point x="359" y="28" type="curve"/>
      <point x="359" y="313" type="line" smooth="yes"/>
      <point x="359" y="377"/>
      <point x="390" y="422"/>
      <point x="439" y="435" type="curve"/>
      <point x="462" y="424" type="line"/>
      <point x="451" y="420"/>
      <point x="445" y="413"/>
      <point x="445" y="403" type="curve" smooth="yes"/>
      <point x="445" y="400"/>
      <point x="446" y="396"/>
      <point x="449" y="392" type="curve"/>
      <point x="451" y="388"/>
      <point x="465" y="375"/>
      <point x="491" y="352" type="curve" smooth="yes"/>
      <point x="514" y="332"/>
      <point x="526" y="309"/>
      <point x="526" y="282" type="curve" smooth="yes"/>
      <point x="526" y="233"/>
      <point x="481" y="200"/>
      <point x="428" y="200" type="curve" smooth="yes"/>
      <point x="415" y="200"/>
      <point x="401" y="202"/>
      <point x="388" y="206" type="curve"/>
      <point x="388" y="29" type="line"/>
      <point x="437" y="37"/>
      <point x="482" y="55"/>
      <point x="523" y="83" type="curve"/>
      <point x="523" y="51" type="line"/>
      <point x="488" y="30"/>
      <point x="443" y="13"/>
      <point x="388" y="2" type="curve"/>
      <point x="388" y="-215" type="line"/>
      <point x="359" y="-215" type="line"/>
      <point x="359" y="0" type="line"/>
      <point x="332" y="-3"/>
      <point x="306" y="-4"/>
      <point x="282" y="-4" type="curve" smooth="yes"/>
      <point x="246" y="-4"/>
      <point x="214" y="-1"/>
      <point x="186" y="4" type="curve" smooth="yes"/>
      <point x="158" y="9"/>
      <point x="133" y="17"/>
      <point x="113" y="29" type="curve"/>
      <point x="92" y="40"/>
      <point x="74" y="53"/>
      <point x="62" y="70" type="curve"/>
      <point x="49" y="86"/>
      <point x="40" y="105"/>
      <point x="36" y="127" type="curve" smooth="yes"/>
      <point x="34" y="138"/>
      <point x="33" y="149"/>
      <point x="33" y="161" type="curve" smooth="yes"/>
    </contour>
  </outline>
</glyph>
<glyph name="si_Aa" format="1">
  <advance width="850"/>
  <unicode hex="0D86"/>
  <outline>
    <contour>
      <point x="734" y="245"/>
      <point x="730" y="278"/>
      <point x="720" y="310" type="curve" smooth="yes"/>
      <point x="710" y="341"/>
      <point x="689" y="361"/>
      <point x="664" y="361" type="curve" smooth="yes"/>
      <point x="651" y="361"/>
      <point x="637" y="358"/>
      <point x="626" y="352" type="curve" smooth="yes"/>
      <point x="615" y="346"/>
      <point x="606" y="336"/>
      <point x="599" y="325" type="curve"/>
      <point x="591" y="314"/>
      <point x="587" y="302"/>
      <point x="584" y="288" type="curve"/>
      <point x="582" y="281"/>
      <point x="581" y="273"/>
      <point x="580" y="265" type="curve"/>
      <point x="580" y="261"/>
      <point x="580" y="257"/>
      <point x="581" y="253" type="curve"/>
      <point x="553" y="253" type="line"/>
      <point x="553" y="257"/>
      <point x="553" y="261"/>
      <point x="553" y="266" type="curve" smooth="yes"/>
      <point x="553" y="341"/>
      <point x="604" y="398"/>
      <point x="675" y="398" type="curve" smooth="yes"/>
      <point x="762" y="398"/>
      <point x="800" y="319"/>
      <point x="800" y="207" type="curve" smooth="yes"/>
      <point x="800" y="70"/>
      <point x="753" y="-4"/>
      <point x="664" y="-4" type="curve" smooth="yes"/>
      <point x="596" y="-4"/>
      <point x="552" y="38"/>
      <point x="552" y="106" type="curve" smooth="yes"/>
      <point x="552" y="113"/>
      <point x="552" y="121"/>
      <point x="553" y="128" type="curve"/>
      <point x="579" y="128" type="line"/>
      <point x="578" y="123"/>
      <point x="578" y="118"/>
      <point x="578" y="113" type="curve" smooth="yes"/>
      <point x="578" y="69"/>
      <point x="608" y="36"/>
      <point x="652" y="36" type="curve" smooth="yes"/>
      <point x="688" y="36"/>
      <point x="713" y="64"/>
      <point x="725" y="116" type="curve" smooth="yes"/>
      <point x="731" y="142"/>
      <point x="734" y="173"/>
      <point x="734" y="210" type="curve" smooth="yes"/>
    </contour>
    <contour>
      <point x="442" y="229"/>
      <point x="463" y="250"/>
      <point x="463" y="281" type="curve" smooth="yes"/>
      <point x="463" y="304"/>
      <point x="451" y="335"/>
      <point x="427" y="374" type="curve"/>
      <point x="422" y="383"/>
      <point x="421" y="392"/>
      <point x="424" y="401" type="curve"/>
      <point x="400" y="388"/>
      <point x="388" y="360"/>
      <point x="388" y="317" type="curve" smooth="yes"/>
      <point x="388" y="233" type="line"/>
      <point x="396" y="230"/>
      <point x="404" y="229"/>
      <point x="411" y="229" type="curve" smooth="yes"/>
    </contour>
    <contour>
      <point x="33" y="254"/>
      <point x="101" y="309"/>
      <point x="206" y="309" type="curve" smooth="yes"/>
      <point x="316" y="309" type="line"/>
      <point x="315" y="348"/>
      <point x="299" y="374"/>
      <point x="268" y="386" type="curve" smooth="yes"/>
      <point x="256" y="391"/>
      <point x="245" y="393"/>
      <point x="236" y="393" type="curve" smooth="yes"/>
      <point x="217" y="393"/>
      <point x="205" y="387"/>
      <point x="185" y="354" type="curve" smooth="yes"/>
      <point x="176" y="339"/>
      <point x="163" y="331"/>
      <point x="144" y="331" type="curve" smooth="yes"/>
      <point x="123" y="331"/>
      <point x="108" y="350"/>
      <point x="108" y="371" type="curve" smooth="yes"/>
      <point x="108" y="380"/>
      <point x="110" y="388"/>
      <point x="115" y="395" type="curve" smooth="yes"/>
      <point x="132" y="420"/>
      <point x="166" y="433"/>
      <point x="217" y="433" type="curve" smooth="yes"/>
      <point x="298" y="433"/>
      <point x="348" y="372"/>
      <point x="347" y="287" type="curve"/>
      <point x="236" y="287" type="line" smooth="yes"/>
      <point x="167" y="287"/>
      <point x="113" y="233"/>
      <point x="113" y="164" type="curve" smooth="yes"/>
      <point x="113" y="76"/>
      <point x="181" y="23"/>
      <point x="294" y="23" type="curve" smooth="yes"/>
      <point x="314" y="23"/>
      <point x="336" y="25"/>
      <point x="359" y="28" type="curve"/>
      <point x="359" y="313" type="line" smooth="yes"/>
      <point x="359" y="377"/>
      <point x="390" y="422"/>
      <point x="439" y="435" type="curve"/>
      <point x="462" y="424" type="line"/>
      <point x="451" y="420"/>
      <point x="445" y="413"/>
      <point x="445" y="403" type="curve" smooth="yes"/>
      <point x="445" y="400"/>
      <point x="446" y="396"/>
      <point x="449" y="392" type="curve"/>
      <point x="451" y="388"/>
      <point x="465" y="375"/>
      <point x="491" y="352" type="curve" smooth="yes"/>
      <point x="514" y="332"/>
      <point x="526" y="309"/>
      <point x="526" y="282" type="curve" smooth="yes"/>
      <point x="526" y="233"/>
      <point x="481" y="200"/>
      <point x="428" y="200" type="curve" smooth="yes"/>
      <point x="415" y="200"/>
      <point x="401" y="202"/>
      <point x="388" y="206" type="curve"/>
      <point x="388" y="29" type="line"/>
      <point x="437" y="37"/>
      <point x="482" y="55"/>
      <point x="523" y="83" type="curve"/>
      <point x="523" y="51" type="line"/>
      <point x="488" y="30"/>
      <point x="443" y="13"/>
      <point x="388" y="2" type="curve"/>
      <point x="388" y="-215" type="line"/>
      <point x="359" y="-215" type="line"/>
      <point x="359" y="0" type="line"/>
      <point x="332" y="-3"/>
      <point x="306" y="-4"/>
      <point x="282" y="-4" type="curve" smooth="yes"/>
      <point x="121" y="-4"/>
      <point x="33" y="53"/>
      <point x="33" y="161" type="curve" smooth="yes"/>
    </contour>
  </outline>
</glyph>
<glyph name="si_I" format="1">
  <advance width="593"/>
  <unicode hex="0D89"/>
  <outline>
    <contour>
      <point x="260" y="13"/>
      <point x="250" y="13"/>
      <point x="238" y="12" type="curve"/>
      <point x="238" y="-16" type="line"/>
      <point x="248" y="-15"/>
      <point x="257" y="-15"/>
      <point x="265" y="-15" type="curve" smooth="yes"/>
      <point x="332" y="-15"/>
      <point x="375" y="-41"/>
      <point x="375" y="-83" type="curve" smooth="yes"/>
      <point x="375" y="-121"/>
      <point x="339" y="-137"/>
      <point x="300" y="-137" type="curve" smooth="yes"/>
      <point x="242" y="-137"/>
      <point x="231" y="-114"/>
      <point x="231" y="-94" type="curve" smooth="yes"/>
      <point x="231" y="-82"/>
      <point x="235" y="-71"/>
      <point x="235" y="-65" type="curve" smooth="yes"/>
      <point x="235" y="-48"/>
      <point x="222" y="-38"/>
      <point x="207" y="-38" type="curve" smooth="yes"/>
      <point x="190" y="-38"/>
      <point x="173" y="-50"/>
      <point x="173" y="-76" type="curve" smooth="yes"/>
      <point x="173" y="-139"/>
      <point x="236" y="-160"/>
      <point x="298" y="-160" type="curve" smooth="yes"/>
      <point x="364" y="-160"/>
      <point x="439" y="-134"/>
      <point x="439" y="-75" type="curve" smooth="yes"/>
      <point x="439" y="-36"/>
      <point x="417" y="-12"/>
      <point x="384" y="-6" type="curve"/>
      <point x="473" y="10"/>
      <point x="544" y="92"/>
      <point x="544" y="198" type="curve" smooth="yes"/>
      <point x="544" y="353"/>
      <point x="444" y="432"/>
      <point x="284" y="432" type="curve" smooth="yes"/>
      <point x="141" y="432"/>
      <point x="33" y="357"/>
      <point x="33" y="221" type="curve" smooth="yes"/>
      <point x="33" y="117"/>
      <point x="115" y="54"/>
      <point x="218" y="54" type="curve" smooth="yes"/>
      <point x="305" y="54"/>
      <point x="389" y="106"/>
      <point x="389" y="186" type="curve" smooth="yes"/>
      <point x="389" y="238"/>
      <point x="356" y="276"/>
      <point x="298" y="276" type="curve" smooth="yes"/>
      <point x="252" y="276"/>
      <point x="216" y="241"/>
      <point x="216" y="195" type="curve" smooth="yes"/>
      <point x="216" y="155"/>
      <point x="251" y="121"/>
      <point x="295" y="121" type="curve" smooth="yes"/>
      <point x="309" y="121"/>
      <point x="326" y="124"/>
      <point x="337" y="131" type="curve"/>
      <point x="308" y="98"/>
      <point x="268" y="81"/>
      <point x="225" y="81" type="curve" smooth="yes"/>
      <point x="138" y="81"/>
      <point x="73" y="134"/>
      <point x="73" y="204" type="curve" smooth="yes"/>
      <point x="73" y="309"/>
      <point x="175" y="357"/>
      <point x="285" y="357" type="curve" smooth="yes"/>
      <point x="405" y="357"/>
      <point x="506" y="292"/>
      <point x="506" y="179" type="curve" smooth="yes"/>
      <point x="506" y="72"/>
      <point x="423" y="11"/>
      <point x="324" y="11" type="curve" smooth="yes"/>
      <point x="307" y="11"/>
      <point x="288" y="13"/>
      <point x="271" y="13" type="curve" smooth="yes"/>
    </contour>
    <contour>
      <point x="327" y="247"/>
      <point x="350" y="226"/>
      <point x="350" y="198" type="curve" smooth="yes"/>
      <point x="350" y="171"/>
      <point x="328" y="149"/>
      <point x="300" y="149" type="curve" smooth="yes"/>
      <point x="273" y="149"/>
      <point x="250" y="170"/>
      <point x="250" y="198" type="curve" smooth="yes"/>
      <point x="250" y="225"/>
      <point x="272" y="247"/>
      <point x="300" y="247" type="curve" smooth="yes"/>
    </contour>
  </outline>
</glyph>
<glyph name="si_Ii" format="1">
  <advance width="528"/>
  <unicode hex="0D8A"/>
  <outline>
    <contour>
      <point x="426" y="505"/>
      <point x="408" y="489"/>
      <point x="408" y="468" type="curve" smooth="yes"/>
      <point x="408" y="447"/>
      <point x="426" y="430"/>
      <point x="447" y="430" type="curve" smooth="yes"/>
      <point x="468" y="430"/>
      <point x="486" y="448"/>
      <point x="486" y="468" type="curve" smooth="yes"/>
      <point x="486" y="488"/>
      <point x="467" y="505"/>
      <point x="447" y="505" type="curve" smooth="yes"/>
    </contour>
    <contour>
      <point x="164" y="576"/>
      <point x="145" y="560"/>
      <point x="145" y="540" type="curve" smooth="yes"/>
      <point x="145" y="519"/>
      <point x="164" y="501"/>
      <point x="185" y="501" type="curve" smooth="yes"/>
      <point x="206" y="501"/>
      <point x="224" y="518"/>
      <point x="224" y="539" type="curve" smooth="yes"/>
      <point x="224" y="560"/>
      <point x="205" y="576"/>
      <point x="184" y="576" type="curve" smooth="yes"/>
    </contour>
    <contour>
      <point x="381" y="503"/>
      <point x="410" y="532"/>
      <point x="445" y="532" type="curve" smooth="yes"/>
      <point x="481" y="532"/>
      <point x="512" y="503"/>
      <point x="512" y="467" type="curve" smooth="yes"/>
      <point x="512" y="432"/>
      <point x="483" y="403"/>
      <point x="448" y="403" type="curve" smooth="yes"/>
      <point x="412" y="403"/>
      <point x="381" y="432"/>
      <point x="381" y="468" type="curve" smooth="yes"/>
    </contour>
    <contour>
      <point x="430" y="343"/>
      <point x="358" y="414"/>
      <point x="266" y="414" type="curve" smooth="yes"/>
      <point x="155" y="414"/>
      <point x="66" y="329"/>
      <point x="66" y="237" type="curve" smooth="yes"/>
      <point x="66" y="150"/>
      <point x="141" y="73"/>
      <point x="244" y="73" type="curve" smooth="yes"/>
      <point x="360" y="73"/>
      <point x="430" y="167"/>
      <point x="430" y="254" type="curve" smooth="yes"/>
    </contour>
    <contour>
      <point x="124" y="0"/>
      <point x="31" y="89"/>
      <point x="31" y="213" type="curve" smooth="yes"/>
      <point x="31" y="313"/>
      <point x="83" y="374"/>
      <point x="170" y="422" type="curve" smooth="yes"/>
      <point x="227" y="453"/>
      <point x="253" y="469"/>
      <point x="308" y="517" type="curve"/>
      <point x="323" y="533"/>
      <point x="340" y="553"/>
      <point x="357" y="578" type="curve" smooth="yes"/>
      <point x="370" y="597"/>
      <point x="382" y="610"/>
      <point x="392" y="618" type="curve"/>
      <point x="397" y="621"/>
      <point x="402" y="623"/>
      <point x="409" y="623" type="curve" smooth="yes"/>
      <point x="425" y="623"/>
      <point x="433" y="617"/>
      <point x="433" y="606" type="curve" smooth="yes"/>
      <point x="433" y="566"/>
      <point x="332" y="487"/>
      <point x="247" y="436" type="curve"/>
      <point x="254" y="437"/>
      <point x="261" y="437"/>
      <point x="268" y="437" type="curve" smooth="yes"/>
      <point x="308" y="437"/>
      <point x="346" y="426"/>
      <point x="378" y="409" type="curve" smooth="yes"/>
      <point x="409" y="392"/>
      <point x="436" y="365"/>
      <point x="454" y="334" type="curve" smooth="yes"/>
      <point x="472" y="302"/>
      <point x="482" y="265"/>
      <point x="482" y="225" type="curve" smooth="yes"/>
      <point x="482" y="86"/>
      <point x="365" y="0"/>
      <point x="248" y="0" type="curve" smooth="yes"/>
    </contour>
    <contour>
      <point x="117" y="573"/>
      <point x="146" y="603"/>
      <point x="181" y="603" type="curve" smooth="yes"/>
      <point x="217" y="603"/>
      <point x="249" y="574"/>
      <point x="249" y="538" type="curve" smooth="yes"/>
      <point x="249" y="503"/>
      <point x="220" y="474"/>
      <point x="184" y="474" type="curve" smooth="yes"/>
      <point x="147" y="474"/>
      <point x="117" y="503"/>
      <point x="117" y="540" type="curve" smooth="yes"/>
    </contour>
  </outline>
</glyph>
<glyph name="si_U" format="1">
  <advance width="651"/>
  <unicode hex="0D8B"/>
  <outline>
    <contour>
      <point x="437" y="432"/>
      <point x="489" y="404"/>
      <point x="518" y="356" type="curve" smooth="yes"/>
      <point x="532" y="332"/>
      <point x="539" y="305"/>
      <point x="539" y="276" type="curve" smooth="yes"/>
      <point x="539" y="275"/>
      <point x="539" y="273"/>
      <point x="539" y="271" type="curve"/>
      <point x="282" y="271" type="line" smooth="yes"/>
      <point x="183" y="271"/>
      <point x="109" y="195"/>
      <point x="109" y="110" type="curve" smooth="yes"/>
      <point x="109" y="78"/>
      <point x="115" y="46"/>
      <point x="127" y="18" type="curve"/>
      <point x="138" y="-11"/>
      <point x="154" y="-37"/>
      <point x="175" y="-58" type="curve" smooth="yes"/>
      <point x="195" y="-79"/>
      <point x="220" y="-97"/>
      <point x="248" y="-109" type="curve" smooth="yes"/>
      <point x="276" y="-121"/>
      <point x="307" y="-128"/>
      <point x="340" y="-128" type="curve" smooth="yes"/>
      <point x="467" y="-128"/>
      <point x="573" y="-46"/>
      <point x="574" y="69" type="curve"/>
      <point x="603" y="69" type="line"/>
      <point x="604" y="-22"/>
      <point x="546" y="-96"/>
      <point x="462" y="-133" type="curve" smooth="yes"/>
      <point x="420" y="-152"/>
      <point x="374" y="-161"/>
      <point x="325" y="-161" type="curve" smooth="yes"/>
      <point x="253" y="-161"/>
      <point x="189" y="-140"/>
      <point x="134" y="-98" type="curve"/>
      <point x="117" y="-86"/>
      <point x="102" y="-71"/>
      <point x="90" y="-57" type="curve"/>
      <point x="77" y="-43"/>
      <point x="66" y="-27"/>
      <point x="58" y="-11" type="curve"/>
      <point x="49" y="5"/>
      <point x="43" y="23"/>
      <point x="39" y="42" type="curve"/>
      <point x="34" y="61"/>
      <point x="32" y="80"/>
      <point x="32" y="101" type="curve" smooth="yes"/>
      <point x="32" y="206"/>
      <point x="124" y="296"/>
      <point x="237" y="296" type="curve" smooth="yes"/>
      <point x="507" y="296" type="line"/>
      <point x="500" y="364"/>
      <point x="443" y="390"/>
      <point x="408" y="390" type="curve" smooth="yes"/>
      <point x="381" y="390"/>
      <point x="360" y="378"/>
      <point x="346" y="354" type="curve"/>
      <point x="337" y="337"/>
      <point x="323" y="329"/>
      <point x="305" y="329" type="curve" smooth="yes"/>
      <point x="285" y="329"/>
      <point x="267" y="346"/>
      <point x="267" y="366" type="curve" smooth="yes"/>
      <point x="267" y="370"/>
      <point x="268" y="374"/>
      <point x="269" y="378" type="curve"/>
      <point x="277" y="402"/>
      <point x="296" y="418"/>
      <point x="326" y="426" type="curve" smooth="yes"/>
      <point x="341" y="430"/>
      <point x="358" y="432"/>
      <point x="378" y="432" type="curve" smooth="yes"/>
    </contour>
  </outline>
</glyph>
<glyph name="si_Uu" format="1">
  <advance width="994"/>
  <unicode hex="0D8C"/>
  <outline>
    <contour>
      <point x="623" y="212"/>
      <point x="580" y="258"/>
      <point x="580" y="321" type="curve" smooth="yes"/>
      <point x="580" y="370"/>
      <point x="592" y="405"/>
      <point x="617" y="428" type="curve"/>
      <point x="652" y="428" type="line"/>
      <point x="623" y="410"/>
      <point x="609" y="375"/>
      <point x="609" y="322" type="curve" smooth="yes"/>
      <point x="609" y="275"/>
      <point x="641" y="237"/>
      <point x="685" y="237" type="curve" smooth="yes"/>
      <point x="713" y="237"/>
      <point x="733" y="261"/>
      <point x="733" y="290" type="curve" smooth="yes"/>
      <point x="733" y="307"/>
      <point x="726" y="323"/>
      <point x="713" y="337" type="curve"/>
      <point x="712" y="341"/>
      <point x="712" y="345"/>
      <point x="712" y="349" type="curve" smooth="yes"/>
      <point x="712" y="400"/>
      <point x="744" y="432"/>
      <point x="817" y="432" type="curve" smooth="yes"/>
      <point x="870" y="432"/>
      <point x="911" y="381"/>
      <point x="928" y="321" type="curve" smooth="yes"/>
      <point x="936" y="290"/>
      <point x="940" y="258"/>
      <point x="940" y="225" type="curve" smooth="yes"/>
      <point x="940" y="148"/>
      <point x="919" y="77"/>
      <point x="871" y="32" type="curve" smooth="yes"/>
      <point x="847" y="9"/>
      <point x="819" y="-2"/>
      <point x="786" y="-2" type="curve" smooth="yes"/>
      <point x="723" y="-2"/>
      <point x="681" y="52"/>
      <point x="681" y="120" type="curve" smooth="yes"/>
      <point x="681" y="132"/>
      <point x="682" y="144"/>
      <point x="685" y="157" type="curve"/>
      <point x="711" y="157" type="line"/>
      <point x="709" y="146"/>
      <point x="708" y="136"/>
      <point x="708" y="125" type="curve" smooth="yes"/>
      <point x="708" y="81"/>
      <point x="722" y="51"/>
      <point x="750" y="35" type="curve" smooth="yes"/>
      <point x="761" y="29"/>
      <point x="773" y="26"/>
      <point x="785" y="26" type="curve" smooth="yes"/>
      <point x="842" y="26"/>
      <point x="870" y="91"/>
      <point x="870" y="220" type="curve" smooth="yes"/>
      <point x="870" y="300"/>
      <point x="861" y="353"/>
      <point x="840" y="385" type="curve"/>
      <point x="829" y="400"/>
      <point x="816" y="408"/>
      <point x="799" y="408" type="curve" smooth="yes"/>
      <point x="780" y="408"/>
      <point x="766" y="403"/>
      <point x="756" y="392" type="curve" smooth="yes"/>
      <point x="746" y="381"/>
      <point x="740" y="366"/>
      <point x="740" y="349" type="curve" smooth="yes"/>
      <point x="740" y="347"/>
      <point x="740" y="345"/>
      <point x="740" y="343" type="curve"/>
      <point x="764" y="330"/>
      <point x="776" y="312"/>
      <point x="776" y="288" type="curve" smooth="yes"/>
      <point x="776" y="256"/>
      <point x="757" y="232"/>
      <point x="729" y="221" type="curve" smooth="yes"/>
      <point x="715" y="215"/>
      <point x="700" y="212"/>
      <point x="683" y="212" type="curve" smooth="yes"/>
    </contour>
    <contour>
      <point x="467" y="432"/>
      <point x="539" y="364"/>
      <point x="539" y="276" type="curve" smooth="yes"/>
      <point x="539" y="275"/>
      <point x="539" y="273"/>
      <point x="539" y="271" type="curve"/>
      <point x="282" y="271" type="line" smooth="yes"/>
      <point x="183" y="271"/>
      <point x="109" y="195"/>
      <point x="109" y="110" type="curve" smooth="yes"/>
      <point x="109" y="-22"/>
      <point x="208" y="-128"/>
      <point x="340" y="-128" type="curve" smooth="yes"/>
      <point x="467" y="-128"/>
      <point x="573" y="-46"/>
      <point x="574" y="69" type="curve"/>
      <point x="603" y="69" type="line"/>
      <point x="604" y="-22"/>
      <point x="546" y="-96"/>
      <point x="462" y="-133" type="curve" smooth="yes"/>
      <point x="420" y="-152"/>
      <point x="374" y="-161"/>
      <point x="325" y="-161" type="curve" smooth="yes"/>
      <point x="181" y="-161"/>
      <point x="32" y="-62"/>
      <point x="32" y="101" type="curve" smooth="yes"/>
      <point x="32" y="206"/>
      <point x="124" y="296"/>
      <point x="237" y="296" type="curve" smooth="yes"/>
      <point x="507" y="296" type="line"/>
      <point x="500" y="364"/>
      <point x="443" y="390"/>
      <point x="408" y="390" type="curve" smooth="yes"/>
      <point x="381" y="390"/>
      <point x="360" y="378"/>
      <point x="346" y="354" type="curve"/>
      <point x="337" y="337"/>
      <point x="323" y="329"/>
      <point x="305" y="329" type="curve" smooth="yes"/>
      <point x="285" y="329"/>
      <point x="267" y="346"/>
      <point x="267" y="366" type="curve" smooth="yes"/>
      <point x="267" y="370"/>
      <point x="268" y="374"/>
      <point x="269" y="378" type="curve"/>
      <point x="281" y="414"/>
      <point x="317" y="432"/>
      <point x="378" y="432" type="curve" smooth="yes"/>
    </contour>
  </outline>
</glyph>
<glyph name="si_vocalicR" format="1">
  <advance width="894"/>
  <unicode hex="0D8D"/>
  <outline>
    <contour>
      <point x="521" y="372"/>
      <point x="489" y="392"/>
      <point x="450" y="392" type="curve" smooth="yes"/>
      <point x="395" y="392"/>
      <point x="366" y="364"/>
      <point x="362" y="309" type="curve"/>
      <point x="381" y="314"/>
      <point x="405" y="317"/>
      <point x="433" y="317" type="curve" smooth="yes"/>
      <point x="464" y="317"/>
      <point x="489" y="313"/>
      <point x="506" y="306" type="curve"/>
      <point x="516" y="315"/>
      <point x="521" y="326"/>
      <point x="521" y="339" type="curve" smooth="yes"/>
    </contour>
    <contour>
      <point x="220" y="433"/>
      <point x="258" y="411"/>
      <point x="277" y="371" type="curve" smooth="yes"/>
      <point x="286" y="351"/>
      <point x="291" y="326"/>
      <point x="291" y="297" type="curve" smooth="yes"/>
      <point x="291" y="292"/>
      <point x="291" y="287"/>
      <point x="291" y="282" type="curve"/>
      <point x="268" y="283"/>
      <point x="249" y="284"/>
      <point x="232" y="284" type="curve" smooth="yes"/>
      <point x="121" y="284"/>
      <point x="70" y="238"/>
      <point x="70" y="174" type="curve" smooth="yes"/>
      <point x="70" y="118"/>
      <point x="131" y="72"/>
      <point x="192" y="72" type="curve" smooth="yes"/>
      <point x="249" y="72"/>
      <point x="299" y="100"/>
      <point x="299" y="145" type="curve" smooth="yes"/>
      <point x="299" y="182" type="line"/>
      <point x="329" y="182" type="line"/>
      <point x="329" y="145" type="line" smooth="yes"/>
      <point x="329" y="97"/>
      <point x="385" y="72"/>
      <point x="450" y="72" type="curve" smooth="yes"/>
      <point x="514" y="72"/>
      <point x="568" y="117"/>
      <point x="568" y="177" type="curve" smooth="yes"/>
      <point x="568" y="238"/>
      <point x="521" y="284"/>
      <point x="461" y="289" type="curve" smooth="yes"/>
      <point x="450" y="290"/>
      <point x="439" y="290"/>
      <point x="428" y="290" type="curve" smooth="yes"/>
      <point x="397" y="290"/>
      <point x="365" y="287"/>
      <point x="330" y="280" type="curve"/>
      <point x="330" y="284"/>
      <point x="330" y="288"/>
      <point x="330" y="291" type="curve" smooth="yes"/>
      <point x="330" y="376"/>
      <point x="380" y="432"/>
      <point x="461" y="432" type="curve" smooth="yes"/>
      <point x="512" y="432"/>
      <point x="544" y="410"/>
      <point x="557" y="365" type="curve"/>
      <point x="558" y="360"/>
      <point x="559" y="355"/>
      <point x="559" y="350" type="curve" smooth="yes"/>
      <point x="559" y="327"/>
      <point x="546" y="304"/>
      <point x="529" y="297" type="curve"/>
      <point x="582" y="272"/>
      <point x="608" y="226"/>
      <point x="608" y="160" type="curve" smooth="yes"/>
      <point x="608" y="80"/>
      <point x="544" y="0"/>
      <point x="444" y="0" type="curve" smooth="yes"/>
      <point x="380" y="0"/>
      <point x="336" y="27"/>
      <point x="312" y="82" type="curve"/>
      <point x="291" y="27"/>
      <point x="247" y="-1"/>
      <point x="178" y="-1" type="curve" smooth="yes"/>
      <point x="93" y="-1"/>
      <point x="31" y="70"/>
      <point x="31" y="153" type="curve" smooth="yes"/>
      <point x="31" y="256"/>
      <point x="108" y="310"/>
      <point x="225" y="310" type="curve" smooth="yes"/>
      <point x="236" y="310"/>
      <point x="248" y="310"/>
      <point x="261" y="309" type="curve"/>
      <point x="258" y="358"/>
      <point x="235" y="382"/>
      <point x="191" y="382" type="curve" smooth="yes"/>
      <point x="190" y="382"/>
      <point x="190" y="382"/>
      <point x="189" y="382" type="curve" smooth="yes"/>
      <point x="172" y="382"/>
      <point x="159" y="373"/>
      <point x="151" y="354" type="curve" smooth="yes"/>
      <point x="142" y="333"/>
      <point x="128" y="323"/>
      <point x="107" y="323" type="curve" smooth="yes"/>
      <point x="81" y="323"/>
      <point x="68" y="336"/>
      <point x="68" y="362" type="curve" smooth="yes"/>
      <point x="68" y="405"/>
      <point x="112" y="433"/>
      <point x="163" y="433" type="curve" smooth="yes"/>
    </contour>
    <contour>
      <point x="664" y="64"/>
      <point x="693" y="30"/>
      <point x="733" y="29" type="curve" smooth="yes"/>
      <point x="742" y="29"/>
      <point x="754" y="31"/>
      <point x="768" y="36" type="curve" smooth="yes"/>
      <point x="782" y="41"/>
      <point x="791" y="43"/>
      <point x="795" y="43" type="curve" smooth="yes"/>
      <point x="799" y="43"/>
      <point x="802" y="42"/>
      <point x="805" y="40" type="curve"/>
      <point x="803" y="53"/>
      <point x="802" y="79"/>
      <point x="802" y="117" type="curve" smooth="yes"/>
      <point x="802" y="154"/>
      <point x="802" y="180"/>
      <point x="801" y="194" type="curve"/>
      <point x="784" y="194"/>
      <point x="758" y="191"/>
      <point x="723" y="185" type="curve"/>
      <point x="684" y="174"/>
      <point x="664" y="148"/>
      <point x="664" y="107" type="curve" smooth="yes"/>
    </contour>
    <contour>
      <point x="686" y="358"/>
      <point x="657" y="310"/>
      <point x="657" y="254" type="curve" smooth="yes"/>
      <point x="657" y="250"/>
      <point x="657" y="246"/>
      <point x="657" y="242" type="curve"/>
      <point x="633" y="242" type="line"/>
      <point x="633" y="245"/>
      <point x="633" y="247"/>
      <point x="633" y="250" type="curve" smooth="yes"/>
      <point x="633" y="333"/>
      <point x="672" y="393"/>
      <point x="743" y="393" type="curve" smooth="yes"/>
      <point x="796" y="393"/>
      <point x="835" y="347"/>
      <point x="851" y="290" type="curve" smooth="yes"/>
      <point x="859" y="261"/>
      <point x="863" y="230"/>
      <point x="863" y="197" type="curve" smooth="yes"/>
      <point x="863" y="195"/>
      <point x="863" y="193"/>
      <point x="863" y="191" type="curve" smooth="yes"/>
      <point x="863" y="168"/>
      <point x="860" y="138"/>
      <point x="855" y="101" type="curve" smooth="yes"/>
      <point x="850" y="63"/>
      <point x="847" y="37"/>
      <point x="847" y="24" type="curve" smooth="yes"/>
      <point x="847" y="16"/>
      <point x="847" y="9"/>
      <point x="848" y="3" type="curve"/>
      <point x="817" y="3" type="line"/>
      <point x="814" y="12"/>
      <point x="809" y="17"/>
      <point x="802" y="17" type="curve" smooth="yes"/>
      <point x="798" y="17"/>
      <point x="787" y="14"/>
      <point x="769" y="8" type="curve"/>
      <point x="753" y="2"/>
      <point x="739" y="-1"/>
      <point x="726" y="-1" type="curve" smooth="yes"/>
      <point x="685" y="-1"/>
      <point x="646" y="36"/>
      <point x="637" y="73" type="curve" smooth="yes"/>
      <point x="634" y="84"/>
      <point x="633" y="96"/>
      <point x="633" y="107" type="curve" smooth="yes"/>
      <point x="633" y="186"/>
      <point x="700" y="222"/>
      <point x="801" y="222" type="curve"/>
      <point x="794" y="313"/>
      <point x="772" y="358"/>
      <point x="733" y="358" type="curve" smooth="yes"/>
    </contour>
  </outline>
</glyph>
<glyph name="si_vocalicRr" format="1">
  <advance width="1146"/>
  <unicode hex="0D8E"/>
  <outline>
    <contour>
      <point x="911" y="64"/>
      <point x="940" y="30"/>
      <point x="980" y="29" type="curve" smooth="yes"/>
      <point x="989" y="29"/>
      <point x="1001" y="31"/>
      <point x="1015" y="36" type="curve" smooth="yes"/>
      <point x="1029" y="41"/>
      <point x="1038" y="43"/>
      <point x="1042" y="43" type="curve" smooth="yes"/>
      <point x="1046" y="43"/>
      <point x="1049" y="42"/>
      <point x="1052" y="40" type="curve"/>
      <point x="1050" y="53"/>
      <point x="1049" y="79"/>
      <point x="1049" y="117" type="curve" smooth="yes"/>
      <point x="1049" y="154"/>
      <point x="1049" y="180"/>
      <point x="1048" y="194" type="curve"/>
      <point x="1031" y="194"/>
      <point x="1005" y="191"/>
      <point x="970" y="185" type="curve"/>
      <point x="931" y="174"/>
      <point x="911" y="148"/>
      <point x="911" y="107" type="curve" smooth="yes"/>
    </contour>
    <contour>
      <point x="971" y="358"/>
      <point x="961" y="356"/>
      <point x="953" y="353" type="curve"/>
      <point x="945" y="349"/>
      <point x="939" y="344"/>
      <point x="933" y="337" type="curve" smooth="yes"/>
      <point x="927" y="330"/>
      <point x="921" y="322"/>
      <point x="917" y="314" type="curve"/>
      <point x="912" y="305"/>
      <point x="909" y="296"/>
      <point x="907" y="286" type="curve" smooth="yes"/>
      <point x="905" y="276"/>
      <point x="904" y="265"/>
      <point x="904" y="254" type="curve" smooth="yes"/>
      <point x="904" y="250"/>
      <point x="904" y="246"/>
      <point x="904" y="242" type="curve"/>
      <point x="880" y="242" type="line"/>
      <point x="880" y="245"/>
      <point x="880" y="247"/>
      <point x="880" y="250" type="curve" smooth="yes"/>
      <point x="880" y="333"/>
      <point x="919" y="393"/>
      <point x="990" y="393" type="curve" smooth="yes"/>
      <point x="1069" y="393"/>
      <point x="1110" y="302"/>
      <point x="1110" y="197" type="curve" smooth="yes"/>
      <point x="1110" y="195"/>
      <point x="1110" y="193"/>
      <point x="1110" y="191" type="curve" smooth="yes"/>
      <point x="1110" y="168"/>
      <point x="1107" y="138"/>
      <point x="1102" y="101" type="curve" smooth="yes"/>
      <point x="1097" y="63"/>
      <point x="1094" y="37"/>
      <point x="1094" y="24" type="curve" smooth="yes"/>
      <point x="1094" y="16"/>
      <point x="1094" y="9"/>
      <point x="1095" y="3" type="curve"/>
      <point x="1064" y="3" type="line"/>
      <point x="1061" y="12"/>
      <point x="1056" y="17"/>
      <point x="1049" y="17" type="curve" smooth="yes"/>
      <point x="1045" y="17"/>
      <point x="1034" y="14"/>
      <point x="1016" y="8" type="curve"/>
      <point x="1000" y="2"/>
      <point x="986" y="-1"/>
      <point x="973" y="-1" type="curve" smooth="yes"/>
      <point x="932" y="-1"/>
      <point x="893" y="36"/>
      <point x="884" y="73" type="curve" smooth="yes"/>
      <point x="881" y="84"/>
      <point x="880" y="96"/>
      <point x="880" y="107" type="curve" smooth="yes"/>
      <point x="880" y="186"/>
      <point x="947" y="222"/>
      <point x="1048" y="222" type="curve"/>
      <point x="1041" y="313"/>
      <point x="1019" y="358"/>
      <point x="980" y="358" type="curve" smooth="yes"/>
    </contour>
    <contour>
      <point x="521" y="372"/>
      <point x="489" y="392"/>
      <point x="450" y="392" type="curve" smooth="yes"/>
      <point x="395" y="392"/>
      <point x="366" y="364"/>
      <point x="362" y="309" type="curve"/>
      <point x="381" y="314"/>
      <point x="405" y="317"/>
      <point x="433" y="317" type="curve" smooth="yes"/>
      <point x="464" y="317"/>
      <point x="489" y="313"/>
      <point x="506" y="306" type="curve"/>
      <point x="516" y="315"/>
      <point x="521" y="326"/>
      <point x="521" y="339" type="curve" smooth="yes"/>
    </contour>
    <contour>
      <point x="220" y="433"/>
      <point x="258" y="411"/>
      <point x="277" y="371" type="curve" smooth="yes"/>
      <point x="286" y="351"/>
      <point x="291" y="326"/>
      <point x="291" y="297" type="curve" smooth="yes"/>
      <point x="291" y="292"/>
      <point x="291" y="287"/>
      <point x="291" y="282" type="curve"/>
      <point x="268" y="283"/>
      <point x="249" y="284"/>
      <point x="232" y="284" type="curve" smooth="yes"/>
      <point x="121" y="284"/>
      <point x="70" y="238"/>
      <point x="70" y="174" type="curve" smooth="yes"/>
      <point x="70" y="118"/>
      <point x="131" y="72"/>
      <point x="192" y="72" type="curve" smooth="yes"/>
      <point x="249" y="72"/>
      <point x="299" y="100"/>
      <point x="299" y="145" type="curve" smooth="yes"/>
      <point x="299" y="182" type="line"/>
      <point x="329" y="182" type="line"/>
      <point x="329" y="145" type="line" smooth="yes"/>
      <point x="329" y="97"/>
      <point x="385" y="72"/>
      <point x="450" y="72" type="curve" smooth="yes"/>
      <point x="514" y="72"/>
      <point x="568" y="117"/>
      <point x="568" y="177" type="curve" smooth="yes"/>
      <point x="568" y="238"/>
      <point x="521" y="284"/>
      <point x="461" y="289" type="curve" smooth="yes"/>
      <point x="450" y="290"/>
      <point x="439" y="290"/>
      <point x="428" y="290" type="curve" smooth="yes"/>
      <point x="397" y="290"/>
      <point x="365" y="287"/>
      <point x="330" y="280" type="curve"/>
      <point x="330" y="284"/>
      <point x="330" y="288"/>
      <point x="330" y="291" type="curve" smooth="yes"/>
      <point x="330" y="376"/>
      <point x="380" y="432"/>
      <point x="461" y="432" type="curve" smooth="yes"/>
      <point x="512" y="432"/>
      <point x="544" y="410"/>
      <point x="557" y="365" type="curve"/>
      <point x="558" y="360"/>
      <point x="559" y="355"/>
      <point x="559" y="350" type="curve" smooth="yes"/>
      <point x="559" y="327"/>
      <point x="546" y="304"/>
      <point x="529" y="297" type="curve"/>
      <point x="582" y="272"/>
      <point x="608" y="226"/>
      <point x="608" y="160" type="curve" smooth="yes"/>
      <point x="608" y="80"/>
      <point x="544" y="0"/>
      <point x="444" y="0" type="curve" smooth="yes"/>
      <point x="380" y="0"/>
      <point x="336" y="27"/>
      <point x="312" y="82" type="curve"/>
      <point x="291" y="27"/>
      <point x="247" y="-1"/>
      <point x="178" y="-1" type="curve" smooth="yes"/>
      <point x="93" y="-1"/>
      <point x="31" y="70"/>
      <point x="31" y="153" type="curve" smooth="yes"/>
      <point x="31" y="256"/>
      <point x="108" y="310"/>
      <point x="225" y="310" type="curve" smooth="yes"/>
      <point x="236" y="310"/>
      <point x="248" y="310"/>
      <point x="261" y="309" type="curve"/>
      <point x="258" y="358"/>
      <point x="235" y="382"/>
      <point x="191" y="382" type="curve" smooth="yes"/>
      <point x="190" y="382"/>
      <point x="190" y="382"/>
      <point x="189" y="382" type="curve" smooth="yes"/>
      <point x="172" y="382"/>
      <point x="159" y="373"/>
      <point x="151" y="354" type="curve" smooth="yes"/>
      <point x="142" y="333"/>
      <point x="128" y="323"/>
      <point x="107" y="323" type="curve" smooth="yes"/>
      <point x="81" y="323"/>
      <point x="68" y="336"/>
      <point x="68" y="362" type="curve" smooth="yes"/>
      <point x="68" y="405"/>
      <point x="112" y="433"/>
      <point x="163" y="433" type="curve" smooth="yes"/>
    </contour>
    <contour>
      <point x="664" y="64"/>
      <point x="693" y="30"/>
      <point x="733" y="29" type="curve" smooth="yes"/>
      <point x="742" y="29"/>
      <point x="754" y="31"/>
      <point x="768" y="36" type="curve" smooth="yes"/>
      <point x="782" y="41"/>
      <point x="791" y="43"/>
      <point x="795" y="43" type="curve" smooth="yes"/>
      <point x="799" y="43"/>
      <point x="802" y="42"/>
      <point x="805" y="40" type="curve"/>
      <point x="803" y="53"/>
      <point x="802" y="79"/>
      <point x="802" y="117" type="curve" smooth="yes"/>
      <point x="802" y="154"/>
      <point x="802" y="180"/>
      <point x="801" y="194" type="curve"/>
      <point x="784" y="194"/>
      <point x="758" y="191"/>
      <point x="723" y="185" type="curve"/>
      <point x="684" y="174"/>
      <point x="664" y="148"/>
      <point x="664" y="107" type="curve" smooth="yes"/>
    </contour>
    <contour>
      <point x="686" y="358"/>
      <point x="657" y="310"/>
      <point x="657" y="254" type="curve" smooth="yes"/>
      <point x="657" y="250"/>
      <point x="657" y="246"/>
      <point x="657" y="242" type="curve"/>
      <point x="633" y="242" type="line"/>
      <point x="633" y="245"/>
      <point x="633" y="247"/>
      <point x="633" y="250" type="curve" smooth="yes"/>
      <point x="633" y="333"/>
      <point x="672" y="393"/>
      <point x="743" y="393" type="curve" smooth="yes"/>
      <point x="796" y="393"/>
      <point x="835" y="347"/>
      <point x="851" y="290" type="curve" smooth="yes"/>
      <point x="859" y="261"/>
      <point x="863" y="230"/>
      <point x="863" y="197" type="curve" smooth="yes"/>
      <point x="863" y="195"/>
      <point x="863" y="193"/>
      <point x="863" y="191" type="curve" smooth="yes"/>
      <point x="863" y="168"/>
      <point x="860" y="138"/>
      <point x="855" y="101" type="curve" smooth="yes"/>
      <point x="850" y="63"/>
      <point x="847" y="37"/>
      <point x="847" y="24" type="curve" smooth="yes"/>
      <point x="847" y="16"/>
      <point x="847" y="9"/>
      <point x="848" y="3" type="curve"/>
      <point x="817" y="3" type="line"/>
      <point x="814" y="12"/>
      <point x="809" y="17"/>
      <point x="802" y="17" type="curve" smooth="yes"/>
      <point x="798" y="17"/>
      <point x="787" y="14"/>
      <point x="769" y="8" type="curve"/>
      <point x="753" y="2"/>
      <point x="739" y="-1"/>
      <point x="726" y="-1" type="curve" smooth="yes"/>
      <point x="685" y="-1"/>
      <point x="646" y="36"/>
      <point x="637" y="73" type="curve" smooth="yes"/>
      <point x="634" y="84"/>
      <point x="633" y="96"/>
      <point x="633" y="107" type="curve" smooth="yes"/>
      <point x="633" y="186"/>
      <point x="700" y="222"/>
      <point x="801" y="222" type="curve"/>
      <point x="794" y="313"/>
      <point x="772" y="358"/>
      <point x="733" y="358" type="curve" smooth="yes"/>
    </contour>
  </outline>
</glyph>
<glyph name="si_vocalicU" format="1">
  <advance width="805"/>
  <unicode hex="0D8F"/>
  <outline>
    <contour>
      <point x="331" y="432"/>
      <point x="372" y="393"/>
      <point x="372" y="324" type="curve" smooth="yes"/>
      <point x="372" y="310"/>
      <point x="370" y="295"/>
      <point x="366" y="280" type="curve"/>
      <point x="254" y="280"/>
      <point x="243" y="282"/>
      <point x="204" y="244" type="curve" smooth="yes"/>
      <point x="184" y="225"/>
      <point x="174" y="203"/>
      <point x="174" y="178" type="curve" smooth="yes"/>
      <point x="174" y="139"/>
      <point x="205" y="110"/>
      <point x="252" y="94" type="curve" smooth="yes"/>
      <point x="299" y="78"/>
      <point x="349" y="71"/>
      <point x="401" y="71" type="curve" smooth="yes"/>
      <point x="544" y="71"/>
      <point x="615" y="106"/>
      <point x="615" y="175" type="curve" smooth="yes"/>
      <point x="615" y="247"/>
      <point x="564" y="283"/>
      <point x="463" y="283" type="curve" smooth="yes"/>
      <point x="448" y="283"/>
      <point x="432" y="282"/>
      <point x="414" y="281" type="curve"/>
      <point x="410" y="295"/>
      <point x="408" y="309"/>
      <point x="408" y="322" type="curve" smooth="yes"/>
      <point x="408" y="390"/>
      <point x="457" y="431"/>
      <point x="530" y="432" type="curve" smooth="yes"/>
      <point x="549" y="432"/>
      <point x="563" y="429"/>
      <point x="573" y="422" type="curve"/>
      <point x="570" y="429"/>
      <point x="569" y="436"/>
      <point x="569" y="443" type="curve" smooth="yes"/>
      <point x="569" y="467"/>
      <point x="585" y="479"/>
      <point x="616" y="479" type="curve" smooth="yes"/>
      <point x="715" y="479"/>
      <point x="761" y="348"/>
      <point x="761" y="243" type="curve" smooth="yes"/>
      <point x="761" y="196"/>
      <point x="753" y="141"/>
      <point x="737" y="90" type="curve" smooth="yes"/>
      <point x="721" y="39"/>
      <point x="692" y="2"/>
      <point x="657" y="2" type="curve" smooth="yes"/>
      <point x="630" y="2"/>
      <point x="608" y="23"/>
      <point x="608" y="51" type="curve" smooth="yes"/>
      <point x="608" y="54"/>
      <point x="608" y="58"/>
      <point x="609" y="61" type="curve"/>
      <point x="564" y="20"/>
      <point x="494" y="0"/>
      <point x="401" y="0" type="curve" smooth="yes"/>
      <point x="302" y="0"/>
      <point x="230" y="20"/>
      <point x="184" y="61" type="curve"/>
      <point x="185" y="58"/>
      <point x="185" y="55"/>
      <point x="185" y="52" type="curve" smooth="yes"/>
      <point x="185" y="31"/>
      <point x="175" y="16"/>
      <point x="156" y="7" type="curve"/>
      <point x="149" y="4"/>
      <point x="142" y="2"/>
      <point x="135" y="2" type="curve" smooth="yes"/>
      <point x="100" y="2"/>
      <point x="71" y="39"/>
      <point x="55" y="89" type="curve" smooth="yes"/>
      <point x="39" y="139"/>
      <point x="31" y="193"/>
      <point x="31" y="240" type="curve" smooth="yes"/>
      <point x="31" y="316"/>
      <point x="50" y="390"/>
      <point x="95" y="441" type="curve" smooth="yes"/>
      <point x="118" y="466"/>
      <point x="144" y="479"/>
      <point x="175" y="479" type="curve" smooth="yes"/>
      <point x="206" y="479"/>
      <point x="222" y="467"/>
      <point x="222" y="444" type="curve" smooth="yes"/>
      <point x="222" y="439"/>
      <point x="221" y="433"/>
      <point x="219" y="426" type="curve"/>
      <point x="230" y="430"/>
      <point x="243" y="432"/>
      <point x="256" y="432" type="curve" smooth="yes"/>
    </contour>
    <contour>
      <point x="190" y="448"/>
      <point x="186" y="452"/>
      <point x="175" y="452" type="curve" smooth="yes"/>
      <point x="132" y="452"/>
      <point x="95" y="406"/>
      <point x="78" y="354" type="curve" smooth="yes"/>
      <point x="69" y="328"/>
      <point x="64" y="302"/>
      <point x="63" y="277" type="curve" smooth="yes"/>
      <point x="62" y="262"/>
      <point x="62" y="249"/>
      <point x="62" y="236" type="curve" smooth="yes"/>
      <point x="62" y="184"/>
      <point x="72" y="132"/>
      <point x="92" y="80" type="curve"/>
      <point x="101" y="98"/>
      <point x="114" y="107"/>
      <point x="130" y="107" type="curve" smooth="yes"/>
      <point x="137" y="107"/>
      <point x="144" y="106"/>
      <point x="151" y="103" type="curve"/>
      <point x="144" y="114"/>
      <point x="140" y="129"/>
      <point x="138" y="146" type="curve" smooth="yes"/>
      <point x="137" y="155"/>
      <point x="136" y="164"/>
      <point x="136" y="173" type="curve" smooth="yes"/>
      <point x="136" y="240"/>
      <point x="192" y="290"/>
      <point x="259" y="301" type="curve" smooth="yes"/>
      <point x="276" y="304"/>
      <point x="303" y="305"/>
      <point x="340" y="305" type="curve"/>
      <point x="341" y="311"/>
      <point x="342" y="317"/>
      <point x="342" y="324" type="curve" smooth="yes"/>
      <point x="342" y="368"/>
      <point x="322" y="390"/>
      <point x="281" y="390" type="curve" smooth="yes"/>
      <point x="263" y="390"/>
      <point x="252" y="383"/>
      <point x="247" y="369" type="curve" smooth="yes"/>
      <point x="235" y="336"/>
      <point x="223" y="322"/>
      <point x="196" y="322" type="curve" smooth="yes"/>
      <point x="171" y="322"/>
      <point x="158" y="334"/>
      <point x="158" y="359" type="curve" smooth="yes"/>
      <point x="158" y="375"/>
      <point x="166" y="390"/>
      <point x="182" y="404" type="curve"/>
      <point x="187" y="413"/>
      <point x="190" y="423"/>
      <point x="190" y="435" type="curve" smooth="yes"/>
    </contour>
    <contour>
      <point x="603" y="452"/>
      <point x="596" y="444"/>
      <point x="596" y="428" type="curve" smooth="yes"/>
      <point x="596" y="418"/>
      <point x="599" y="407"/>
      <point x="605" y="395" type="curve"/>
      <point x="616" y="384"/>
      <point x="621" y="366"/>
      <point x="621" y="340" type="curve" smooth="yes"/>
      <point x="621" y="316"/>
      <point x="612" y="297"/>
      <point x="593" y="284" type="curve"/>
      <point x="632" y="257"/>
      <point x="652" y="217"/>
      <point x="652" y="166" type="curve" smooth="yes"/>
      <point x="652" y="139"/>
      <point x="647" y="118"/>
      <point x="637" y="101" type="curve"/>
      <point x="644" y="106"/>
      <point x="652" y="108"/>
      <point x="661" y="108" type="curve" smooth="yes"/>
      <point x="680" y="108"/>
      <point x="695" y="100"/>
      <point x="704" y="84" type="curve"/>
      <point x="721" y="140"/>
      <point x="729" y="194"/>
      <point x="729" y="247" type="curve" smooth="yes"/>
      <point x="729" y="368"/>
      <point x="675" y="452"/>
      <point x="618" y="452" type="curve" smooth="yes"/>
    </contour>
    <contour>
      <point x="686" y="65"/>
      <point x="673" y="78"/>
      <point x="661" y="78" type="curve" smooth="yes"/>
      <point x="646" y="78"/>
      <point x="634" y="66"/>
      <point x="634" y="55" type="curve" smooth="yes"/>
      <point x="634" y="39"/>
      <point x="648" y="28"/>
      <point x="661" y="28" type="curve" smooth="yes"/>
      <point x="676" y="28"/>
      <point x="686" y="38"/>
      <point x="686" y="53" type="curve" smooth="yes"/>
    </contour>
    <contour>
      <point x="511" y="305"/>
      <point x="526" y="303"/>
      <point x="569" y="295" type="curve"/>
      <point x="584" y="308"/>
      <point x="591" y="323"/>
      <point x="591" y="342" type="curve" smooth="yes"/>
      <point x="591" y="379"/>
      <point x="562" y="401"/>
      <point x="522" y="401" type="curve" smooth="yes"/>
      <point x="499" y="401"/>
      <point x="478" y="393"/>
      <point x="463" y="381" type="curve" smooth="yes"/>
      <point x="447" y="368"/>
      <point x="438" y="348"/>
      <point x="438" y="327" type="curve" smooth="yes"/>
      <point x="438" y="320"/>
      <point x="439" y="312"/>
      <point x="441" y="304" type="curve"/>
      <point x="459" y="305"/>
      <point x="473" y="305"/>
      <point x="484" y="305" type="curve" smooth="yes"/>
    </contour>
    <contour>
      <point x="112" y="78"/>
      <point x="98" y="58"/>
      <point x="110" y="39" type="curve"/>
      <point x="115" y="32"/>
      <point x="122" y="28"/>
      <point x="131" y="28" type="curve" smooth="yes"/>
      <point x="151" y="28"/>
      <point x="164" y="49"/>
      <point x="152" y="68" type="curve"/>
      <point x="147" y="75"/>
      <point x="140" y="78"/>
      <point x="131" y="78" type="curve" smooth="yes"/>
    </contour>
  </outline>
</glyph>
<glyph name="si_vocalicUu" format="1">
  <advance width="1175"/>
  <unicode hex="0D90"/>
  <outline>
    <contour>
      <point x="826" y="212"/>
      <point x="783" y="258"/>
      <point x="783" y="321" type="curve" smooth="yes"/>
      <point x="783" y="370"/>
      <point x="795" y="405"/>
      <point x="820" y="428" type="curve"/>
      <point x="855" y="428" type="line"/>
      <point x="826" y="410"/>
      <point x="812" y="375"/>
      <point x="812" y="322" type="curve" smooth="yes"/>
      <point x="812" y="275"/>
      <point x="844" y="237"/>
      <point x="888" y="237" type="curve" smooth="yes"/>
      <point x="916" y="237"/>
      <point x="936" y="261"/>
      <point x="936" y="290" type="curve" smooth="yes"/>
      <point x="936" y="307"/>
      <point x="929" y="323"/>
      <point x="916" y="337" type="curve"/>
      <point x="915" y="341"/>
      <point x="915" y="345"/>
      <point x="915" y="349" type="curve" smooth="yes"/>
      <point x="915" y="400"/>
      <point x="947" y="432"/>
      <point x="1020" y="432" type="curve" smooth="yes"/>
      <point x="1073" y="432"/>
      <point x="1114" y="381"/>
      <point x="1131" y="321" type="curve" smooth="yes"/>
      <point x="1139" y="290"/>
      <point x="1143" y="258"/>
      <point x="1143" y="225" type="curve" smooth="yes"/>
      <point x="1143" y="148"/>
      <point x="1122" y="77"/>
      <point x="1074" y="32" type="curve" smooth="yes"/>
      <point x="1050" y="9"/>
      <point x="1022" y="-2"/>
      <point x="989" y="-2" type="curve" smooth="yes"/>
      <point x="926" y="-2"/>
      <point x="884" y="52"/>
      <point x="884" y="120" type="curve" smooth="yes"/>
      <point x="884" y="132"/>
      <point x="885" y="144"/>
      <point x="888" y="157" type="curve"/>
      <point x="914" y="157" type="line"/>
      <point x="912" y="146"/>
      <point x="911" y="136"/>
      <point x="911" y="125" type="curve" smooth="yes"/>
      <point x="911" y="89"/>
      <point x="922" y="59"/>
      <point x="946" y="40" type="curve" smooth="yes"/>
      <point x="958" y="31"/>
      <point x="972" y="26"/>
      <point x="988" y="26" type="curve" smooth="yes"/>
      <point x="1045" y="26"/>
      <point x="1073" y="91"/>
      <point x="1073" y="220" type="curve" smooth="yes"/>
      <point x="1073" y="345"/>
      <point x="1049" y="408"/>
      <point x="1002" y="408" type="curve" smooth="yes"/>
      <point x="966" y="408"/>
      <point x="943" y="385"/>
      <point x="943" y="349" type="curve" smooth="yes"/>
      <point x="943" y="347"/>
      <point x="943" y="345"/>
      <point x="943" y="343" type="curve"/>
      <point x="967" y="330"/>
      <point x="979" y="312"/>
      <point x="979" y="288" type="curve" smooth="yes"/>
      <point x="979" y="241"/>
      <point x="938" y="212"/>
      <point x="886" y="212" type="curve" smooth="yes"/>
    </contour>
    <contour>
      <point x="331" y="432"/>
      <point x="372" y="393"/>
      <point x="372" y="324" type="curve" smooth="yes"/>
      <point x="372" y="310"/>
      <point x="370" y="295"/>
      <point x="366" y="280" type="curve"/>
      <point x="254" y="280"/>
      <point x="243" y="282"/>
      <point x="204" y="244" type="curve" smooth="yes"/>
      <point x="184" y="225"/>
      <point x="174" y="203"/>
      <point x="174" y="178" type="curve" smooth="yes"/>
      <point x="174" y="139"/>
      <point x="205" y="110"/>
      <point x="252" y="94" type="curve" smooth="yes"/>
      <point x="299" y="78"/>
      <point x="349" y="71"/>
      <point x="401" y="71" type="curve" smooth="yes"/>
      <point x="544" y="71"/>
      <point x="615" y="106"/>
      <point x="615" y="175" type="curve" smooth="yes"/>
      <point x="615" y="247"/>
      <point x="564" y="283"/>
      <point x="463" y="283" type="curve" smooth="yes"/>
      <point x="448" y="283"/>
      <point x="432" y="282"/>
      <point x="414" y="281" type="curve"/>
      <point x="410" y="295"/>
      <point x="408" y="309"/>
      <point x="408" y="322" type="curve" smooth="yes"/>
      <point x="408" y="390"/>
      <point x="457" y="431"/>
      <point x="530" y="432" type="curve" smooth="yes"/>
      <point x="549" y="432"/>
      <point x="563" y="429"/>
      <point x="573" y="422" type="curve"/>
      <point x="570" y="429"/>
      <point x="569" y="436"/>
      <point x="569" y="443" type="curve" smooth="yes"/>
      <point x="569" y="467"/>
      <point x="585" y="479"/>
      <point x="616" y="479" type="curve" smooth="yes"/>
      <point x="715" y="479"/>
      <point x="761" y="348"/>
      <point x="761" y="243" type="curve" smooth="yes"/>
      <point x="761" y="196"/>
      <point x="753" y="141"/>
      <point x="737" y="90" type="curve" smooth="yes"/>
      <point x="721" y="39"/>
      <point x="692" y="2"/>
      <point x="657" y="2" type="curve" smooth="yes"/>
      <point x="644" y="2"/>
      <point x="631" y="7"/>
      <point x="623" y="16" type="curve"/>
      <point x="614" y="25"/>
      <point x="608" y="38"/>
      <point x="608" y="51" type="curve" smooth="yes"/>
      <point x="608" y="54"/>
      <point x="608" y="58"/>
      <point x="609" y="61" type="curve"/>
      <point x="564" y="20"/>
      <point x="494" y="0"/>
      <point x="401" y="0" type="curve" smooth="yes"/>
      <point x="302" y="0"/>
      <point x="230" y="20"/>
      <point x="184" y="61" type="curve"/>
      <point x="185" y="58"/>
      <point x="185" y="55"/>
      <point x="185" y="52" type="curve" smooth="yes"/>
      <point x="185" y="25"/>
      <point x="160" y="2"/>
      <point x="135" y="2" type="curve" smooth="yes"/>
      <point x="100" y="2"/>
      <point x="71" y="39"/>
      <point x="55" y="89" type="curve" smooth="yes"/>
      <point x="39" y="139"/>
      <point x="31" y="193"/>
      <point x="31" y="240" type="curve" smooth="yes"/>
      <point x="31" y="316"/>
      <point x="50" y="390"/>
      <point x="95" y="441" type="curve" smooth="yes"/>
      <point x="118" y="466"/>
      <point x="144" y="479"/>
      <point x="175" y="479" type="curve" smooth="yes"/>
      <point x="206" y="479"/>
      <point x="222" y="467"/>
      <point x="222" y="444" type="curve" smooth="yes"/>
      <point x="222" y="439"/>
      <point x="221" y="433"/>
      <point x="219" y="426" type="curve"/>
      <point x="230" y="430"/>
      <point x="243" y="432"/>
      <point x="256" y="432" type="curve" smooth="yes"/>
    </contour>
    <contour>
      <point x="190" y="448"/>
      <point x="186" y="452"/>
      <point x="175" y="452" type="curve" smooth="yes"/>
      <point x="132" y="452"/>
      <point x="95" y="406"/>
      <point x="78" y="354" type="curve" smooth="yes"/>
      <point x="69" y="328"/>
      <point x="64" y="302"/>
      <point x="63" y="277" type="curve" smooth="yes"/>
      <point x="62" y="262"/>
      <point x="62" y="249"/>
      <point x="62" y="236" type="curve" smooth="yes"/>
      <point x="62" y="184"/>
      <point x="72" y="132"/>
      <point x="92" y="80" type="curve"/>
      <point x="101" y="98"/>
      <point x="114" y="107"/>
      <point x="130" y="107" type="curve" smooth="yes"/>
      <point x="137" y="107"/>
      <point x="144" y="106"/>
      <point x="151" y="103" type="curve"/>
      <point x="141" y="120"/>
      <point x="136" y="144"/>
      <point x="136" y="173" type="curve" smooth="yes"/>
      <point x="136" y="240"/>
      <point x="192" y="290"/>
      <point x="259" y="301" type="curve" smooth="yes"/>
      <point x="276" y="304"/>
      <point x="303" y="305"/>
      <point x="340" y="305" type="curve"/>
      <point x="341" y="311"/>
      <point x="342" y="317"/>
      <point x="342" y="324" type="curve" smooth="yes"/>
      <point x="342" y="368"/>
      <point x="322" y="390"/>
      <point x="281" y="390" type="curve" smooth="yes"/>
      <point x="263" y="390"/>
      <point x="252" y="383"/>
      <point x="247" y="369" type="curve" smooth="yes"/>
      <point x="235" y="336"/>
      <point x="223" y="322"/>
      <point x="196" y="322" type="curve" smooth="yes"/>
      <point x="171" y="322"/>
      <point x="158" y="334"/>
      <point x="158" y="359" type="curve" smooth="yes"/>
      <point x="158" y="375"/>
      <point x="166" y="390"/>
      <point x="182" y="404" type="curve"/>
      <point x="187" y="413"/>
      <point x="190" y="423"/>
      <point x="190" y="435" type="curve" smooth="yes"/>
    </contour>
    <contour>
      <point x="603" y="452"/>
      <point x="596" y="444"/>
      <point x="596" y="428" type="curve" smooth="yes"/>
      <point x="596" y="418"/>
      <point x="599" y="407"/>
      <point x="605" y="395" type="curve"/>
      <point x="616" y="384"/>
      <point x="621" y="366"/>
      <point x="621" y="340" type="curve" smooth="yes"/>
      <point x="621" y="316"/>
      <point x="612" y="297"/>
      <point x="593" y="284" type="curve"/>
      <point x="632" y="257"/>
      <point x="652" y="217"/>
      <point x="652" y="166" type="curve" smooth="yes"/>
      <point x="652" y="139"/>
      <point x="647" y="118"/>
      <point x="637" y="101" type="curve"/>
      <point x="644" y="106"/>
      <point x="652" y="108"/>
      <point x="661" y="108" type="curve" smooth="yes"/>
      <point x="680" y="108"/>
      <point x="695" y="100"/>
      <point x="704" y="84" type="curve"/>
      <point x="721" y="140"/>
      <point x="729" y="194"/>
      <point x="729" y="247" type="curve" smooth="yes"/>
      <point x="729" y="368"/>
      <point x="675" y="452"/>
      <point x="618" y="452" type="curve" smooth="yes"/>
    </contour>
    <contour>
      <point x="686" y="65"/>
      <point x="673" y="78"/>
      <point x="661" y="78" type="curve" smooth="yes"/>
      <point x="646" y="78"/>
      <point x="634" y="66"/>
      <point x="634" y="55" type="curve" smooth="yes"/>
      <point x="634" y="39"/>
      <point x="648" y="28"/>
      <point x="661" y="28" type="curve" smooth="yes"/>
      <point x="676" y="28"/>
      <point x="686" y="38"/>
      <point x="686" y="53" type="curve" smooth="yes"/>
    </contour>
    <contour>
      <point x="505" y="305"/>
      <point x="533" y="302"/>
      <point x="569" y="295" type="curve"/>
      <point x="584" y="308"/>
      <point x="591" y="323"/>
      <point x="591" y="342" type="curve" smooth="yes"/>
      <point x="591" y="379"/>
      <point x="562" y="401"/>
      <point x="522" y="401" type="curve" smooth="yes"/>
      <point x="499" y="401"/>
      <point x="478" y="393"/>
      <point x="463" y="381" type="curve" smooth="yes"/>
      <point x="447" y="368"/>
      <point x="438" y="348"/>
      <point x="438" y="327" type="curve" smooth="yes"/>
      <point x="438" y="320"/>
      <point x="439" y="312"/>
      <point x="441" y="304" type="curve"/>
      <point x="459" y="305"/>
      <point x="473" y="305"/>
      <point x="484" y="305" type="curve" smooth="yes"/>
    </contour>
    <contour>
      <point x="112" y="78"/>
      <point x="98" y="58"/>
      <point x="110" y="39" type="curve"/>
      <point x="115" y="32"/>
      <point x="122" y="28"/>
      <point x="131" y="28" type="curve" smooth="yes"/>
      <point x="151" y="28"/>
      <point x="164" y="49"/>
      <point x="152" y="68" type="curve"/>
      <point x="147" y="75"/>
      <point x="140" y="78"/>
      <point x="131" y="78" type="curve" smooth="yes"/>
    </contour>
  </outline>
</glyph>
<glyph name="si_Ee" format="1">
  <advance width="653"/>
  <unicode hex="0D92"/>
  <outline>
    <contour>
      <point x="313" y="425"/>
      <point x="338" y="395"/>
      <point x="389" y="395" type="curve" smooth="yes"/>
      <point x="422" y="395"/>
      <point x="442" y="409"/>
      <point x="451" y="438" type="curve"/>
      <point x="424" y="483"/>
      <point x="397" y="509"/>
      <point x="334" y="560" type="curve"/>
      <point x="320" y="544"/>
      <point x="313" y="519"/>
      <point x="313" y="484" type="curve" smooth="yes"/>
    </contour>
    <contour>
      <point x="178" y="0"/>
      <point x="102" y="30"/>
      <point x="66" y="90" type="curve" smooth="yes"/>
      <point x="53" y="113"/>
      <point x="46" y="140"/>
      <point x="46" y="170" type="curve" smooth="yes"/>
      <point x="46" y="230"/>
      <point x="85" y="276"/>
      <point x="124" y="289" type="curve"/>
      <point x="16" y="289" type="line"/>
      <point x="16" y="315" type="line"/>
      <point x="260" y="315" type="line"/>
      <point x="261" y="351"/>
      <point x="231" y="394"/>
      <point x="198" y="394" type="curve" smooth="yes"/>
      <point x="177" y="394"/>
      <point x="160" y="383"/>
      <point x="148" y="362" type="curve" smooth="yes"/>
      <point x="136" y="341"/>
      <point x="108" y="329"/>
      <point x="87" y="346" type="curve" smooth="yes"/>
      <point x="80" y="352"/>
      <point x="77" y="360"/>
      <point x="77" y="369" type="curve" smooth="yes"/>
      <point x="77" y="411"/>
      <point x="109" y="432"/>
      <point x="173" y="432" type="curve" smooth="yes"/>
      <point x="174" y="432"/>
      <point x="175" y="432"/>
      <point x="176" y="432" type="curve" smooth="yes"/>
      <point x="249" y="432"/>
      <point x="294" y="369"/>
      <point x="295" y="288" type="curve"/>
      <point x="204" y="288" type="line" smooth="yes"/>
      <point x="148" y="288"/>
      <point x="83" y="242"/>
      <point x="83" y="193" type="curve" smooth="yes"/>
      <point x="83" y="112"/>
      <point x="152" y="71"/>
      <point x="290" y="71" type="curve" smooth="yes"/>
      <point x="423" y="71"/>
      <point x="513" y="143"/>
      <point x="513" y="267" type="curve" smooth="yes"/>
      <point x="513" y="324"/>
      <point x="499" y="372"/>
      <point x="470" y="411" type="curve"/>
      <point x="463" y="398"/>
      <point x="456" y="387"/>
      <point x="445" y="379" type="curve"/>
      <point x="434" y="370"/>
      <point x="421" y="364"/>
      <point x="406" y="361" type="curve"/>
      <point x="398" y="360"/>
      <point x="390" y="359"/>
      <point x="381" y="359" type="curve" smooth="yes"/>
      <point x="324" y="359"/>
      <point x="283" y="413"/>
      <point x="283" y="474" type="curve" smooth="yes"/>
      <point x="283" y="528"/>
      <point x="297" y="569"/>
      <point x="325" y="597" type="curve"/>
      <point x="385" y="566"/>
      <point x="456" y="493"/>
      <point x="493" y="428" type="curve" smooth="yes"/>
      <point x="528" y="369"/>
      <point x="545" y="309"/>
      <point x="545" y="246" type="curve" smooth="yes"/>
      <point x="545" y="101"/>
      <point x="441" y="0"/>
      <point x="294" y="0" type="curve" smooth="yes"/>
    </contour>
    <contour>
      <point x="519" y="503" type="line"/>
      <point x="528" y="498"/>
      <point x="539" y="496"/>
      <point x="552" y="496" type="curve" smooth="yes"/>
      <point x="587" y="496"/>
      <point x="605" y="511"/>
      <point x="605" y="542" type="curve" smooth="yes"/>
      <point x="605" y="566"/>
      <point x="592" y="587"/>
      <point x="568" y="607" type="curve"/>
      <point x="555" y="616"/>
      <point x="539" y="627"/>
      <point x="519" y="638" type="curve"/>
    </contour>
    <contour>
      <point x="642" y="501"/>
      <point x="607" y="468"/>
      <point x="564" y="468" type="curve" smooth="yes"/>
      <point x="549" y="468"/>
      <point x="534" y="471"/>
      <point x="519" y="478" type="curve"/>
      <point x="519" y="331" type="line"/>
      <point x="492" y="377" type="line"/>
      <point x="492" y="681" type="line"/>
      <point x="503" y="672"/>
      <point x="524" y="660"/>
      <point x="553" y="647" type="curve" smooth="yes"/>
      <point x="632" y="611"/>
      <point x="642" y="582"/>
      <point x="642" y="541" type="curve" smooth="yes"/>
    </contour>
  </outline>
</glyph>
<glyph name="si_Ei" format="1">
  <advance width="1196"/>
  <unicode hex="0D93"/>
  <outline>
    <contour>
      <point x="260" y="292"/>
      <point x="236" y="273"/>
      <point x="236" y="246" type="curve" smooth="yes"/>
      <point x="236" y="217"/>
      <point x="261" y="198"/>
      <point x="293" y="198" type="curve" smooth="yes"/>
      <point x="324" y="198"/>
      <point x="345" y="216"/>
      <point x="345" y="244" type="curve" smooth="yes"/>
      <point x="345" y="272"/>
      <point x="321" y="292"/>
      <point x="289" y="292" type="curve" smooth="yes"/>
    </contour>
    <contour>
      <point x="133" y="0"/>
      <point x="33" y="84"/>
      <point x="33" y="212" type="curve" smooth="yes"/>
      <point x="33" y="348"/>
      <point x="160" y="432"/>
      <point x="301" y="432" type="curve" smooth="yes"/>
      <point x="450" y="432"/>
      <point x="572" y="338"/>
      <point x="584" y="206" type="curve"/>
      <point x="555" y="206" type="line"/>
      <point x="544" y="311"/>
      <point x="432" y="403"/>
      <point x="301" y="403" type="curve" smooth="yes"/>
      <point x="246" y="403"/>
      <point x="192" y="388"/>
      <point x="149" y="361" type="curve" smooth="yes"/>
      <point x="106" y="334"/>
      <point x="77" y="290"/>
      <point x="77" y="242" type="curve" smooth="yes"/>
      <point x="77" y="138"/>
      <point x="161" y="71"/>
      <point x="270" y="71" type="curve" smooth="yes"/>
      <point x="318" y="71"/>
      <point x="361" y="81"/>
      <point x="397" y="99" type="curve" smooth="yes"/>
      <point x="432" y="117"/>
      <point x="455" y="149"/>
      <point x="455" y="189" type="curve" smooth="yes"/>
      <point x="455" y="241"/>
      <point x="413" y="276"/>
      <point x="360" y="287" type="curve"/>
      <point x="373" y="273"/>
      <point x="379" y="258"/>
      <point x="379" y="242" type="curve" smooth="yes"/>
      <point x="379" y="199"/>
      <point x="336" y="166"/>
      <point x="289" y="166" type="curve" smooth="yes"/>
      <point x="244" y="166"/>
      <point x="203" y="201"/>
      <point x="203" y="244" type="curve" smooth="yes"/>
      <point x="203" y="269"/>
      <point x="216" y="291"/>
      <point x="237" y="304" type="curve" smooth="yes"/>
      <point x="257" y="316"/>
      <point x="284" y="322"/>
      <point x="311" y="322" type="curve" smooth="yes"/>
      <point x="404" y="322"/>
      <point x="492" y="258"/>
      <point x="492" y="174" type="curve" smooth="yes"/>
      <point x="492" y="170"/>
      <point x="492" y="166"/>
      <point x="491" y="162" type="curve"/>
      <point x="481" y="54"/>
      <point x="407" y="0"/>
      <point x="269" y="0" type="curve" smooth="yes"/>
    </contour>
    <contour>
      <point x="903" y="425"/>
      <point x="928" y="395"/>
      <point x="979" y="395" type="curve" smooth="yes"/>
      <point x="1012" y="395"/>
      <point x="1032" y="409"/>
      <point x="1041" y="438" type="curve"/>
      <point x="1014" y="483"/>
      <point x="987" y="509"/>
      <point x="924" y="560" type="curve"/>
      <point x="910" y="544"/>
      <point x="903" y="519"/>
      <point x="903" y="484" type="curve" smooth="yes"/>
    </contour>
    <contour>
      <point x="768" y="0"/>
      <point x="692" y="30"/>
      <point x="656" y="90" type="curve" smooth="yes"/>
      <point x="643" y="113"/>
      <point x="636" y="140"/>
      <point x="636" y="170" type="curve" smooth="yes"/>
      <point x="636" y="230"/>
      <point x="675" y="276"/>
      <point x="714" y="289" type="curve"/>
      <point x="606" y="289" type="line"/>
      <point x="606" y="315" type="line"/>
      <point x="850" y="315" type="line"/>
      <point x="851" y="351"/>
      <point x="821" y="394"/>
      <point x="788" y="394" type="curve" smooth="yes"/>
      <point x="767" y="394"/>
      <point x="750" y="383"/>
      <point x="738" y="362" type="curve" smooth="yes"/>
      <point x="726" y="341"/>
      <point x="698" y="329"/>
      <point x="677" y="346" type="curve" smooth="yes"/>
      <point x="670" y="352"/>
      <point x="667" y="360"/>
      <point x="667" y="369" type="curve" smooth="yes"/>
      <point x="667" y="411"/>
      <point x="699" y="432"/>
      <point x="763" y="432" type="curve" smooth="yes"/>
      <point x="764" y="432"/>
      <point x="765" y="432"/>
      <point x="766" y="432" type="curve" smooth="yes"/>
      <point x="839" y="432"/>
      <point x="884" y="369"/>
      <point x="885" y="288" type="curve"/>
      <point x="794" y="288" type="line" smooth="yes"/>
      <point x="738" y="288"/>
      <point x="673" y="242"/>
      <point x="673" y="193" type="curve" smooth="yes"/>
      <point x="673" y="112"/>
      <point x="742" y="71"/>
      <point x="880" y="71" type="curve" smooth="yes"/>
      <point x="1013" y="71"/>
      <point x="1103" y="143"/>
      <point x="1103" y="267" type="curve" smooth="yes"/>
      <point x="1103" y="324"/>
      <point x="1089" y="372"/>
      <point x="1060" y="411" type="curve"/>
      <point x="1053" y="398"/>
      <point x="1046" y="387"/>
      <point x="1035" y="379" type="curve"/>
      <point x="1024" y="370"/>
      <point x="1011" y="364"/>
      <point x="996" y="361" type="curve"/>
      <point x="988" y="360"/>
      <point x="980" y="359"/>
      <point x="971" y="359" type="curve" smooth="yes"/>
      <point x="914" y="359"/>
      <point x="873" y="413"/>
      <point x="873" y="474" type="curve" smooth="yes"/>
      <point x="873" y="528"/>
      <point x="887" y="569"/>
      <point x="915" y="597" type="curve"/>
      <point x="975" y="566"/>
      <point x="1046" y="493"/>
      <point x="1083" y="428" type="curve" smooth="yes"/>
      <point x="1118" y="369"/>
      <point x="1135" y="309"/>
      <point x="1135" y="246" type="curve" smooth="yes"/>
      <point x="1135" y="101"/>
      <point x="1031" y="0"/>
      <point x="884" y="0" type="curve" smooth="yes"/>
    </contour>
  </outline>
</glyph>
<glyph name="si_O" format="1">
  <advance width="636"/>
  <unicode hex="0D94"/>
  <outline>
    <contour>
      <point x="294" y="408"/>
      <point x="274" y="389"/>
      <point x="274" y="365" type="curve" smooth="yes"/>
      <point x="274" y="341"/>
      <point x="295" y="321"/>
      <point x="319" y="321" type="curve" smooth="yes"/>
      <point x="344" y="321"/>
      <point x="363" y="340"/>
      <point x="363" y="365" type="curve" smooth="yes"/>
      <point x="363" y="389"/>
      <point x="343" y="408"/>
      <point x="318" y="408" type="curve" smooth="yes"/>
    </contour>
    <contour>
      <point x="199" y="298"/>
      <point x="240" y="254"/>
      <point x="292" y="254" type="curve" smooth="yes"/>
      <point x="340" y="254"/>
      <point x="372" y="273"/>
      <point x="389" y="311" type="curve" smooth="yes"/>
      <point x="392" y="318"/>
      <point x="394" y="328"/>
      <point x="394" y="340" type="curve" smooth="yes"/>
      <point x="394" y="347"/>
      <point x="393" y="356"/>
      <point x="392" y="365" type="curve"/>
      <point x="393" y="325"/>
      <point x="359" y="291"/>
      <point x="318" y="291" type="curve" smooth="yes"/>
      <point x="275" y="291"/>
      <point x="243" y="320"/>
      <point x="243" y="360" type="curve" smooth="yes"/>
      <point x="243" y="403"/>
      <point x="278" y="434"/>
      <point x="321" y="434" type="curve" smooth="yes"/>
      <point x="352" y="434"/>
      <point x="377" y="425"/>
      <point x="394" y="409" type="curve" smooth="yes"/>
      <point x="411" y="393"/>
      <point x="422" y="369"/>
      <point x="422" y="341" type="curve" smooth="yes"/>
      <point x="422" y="308"/>
      <point x="408" y="277"/>
      <point x="386" y="257" type="curve" smooth="yes"/>
      <point x="364" y="236"/>
      <point x="331" y="224"/>
      <point x="298" y="224" type="curve" smooth="yes"/>
      <point x="233" y="224"/>
      <point x="191" y="258"/>
      <point x="172" y="326" type="curve"/>
      <point x="172" y="327"/>
      <point x="172" y="331"/>
      <point x="172" y="339" type="curve" smooth="yes"/>
      <point x="172" y="346"/>
      <point x="172" y="357"/>
      <point x="172" y="372" type="curve" smooth="yes"/>
      <point x="172" y="396"/>
      <point x="164" y="406"/>
      <point x="144" y="406" type="curve" smooth="yes"/>
      <point x="96" y="406"/>
      <point x="61" y="321"/>
      <point x="61" y="254" type="curve" smooth="yes"/>
      <point x="61" y="147"/>
      <point x="112" y="70"/>
      <point x="205" y="70" type="curve" smooth="yes"/>
      <point x="232" y="70"/>
      <point x="254" y="77"/>
      <point x="270" y="89" type="curve" smooth="yes"/>
      <point x="285" y="101"/>
      <point x="294" y="120"/>
      <point x="294" y="141" type="curve" smooth="yes"/>
      <point x="294" y="167" type="line"/>
      <point x="316" y="167" type="line"/>
      <point x="316" y="140" type="line" smooth="yes"/>
      <point x="316" y="97"/>
      <point x="359" y="71"/>
      <point x="410" y="71" type="curve" smooth="yes"/>
      <point x="499" y="71"/>
      <point x="554" y="173"/>
      <point x="554" y="286" type="curve" smooth="yes"/>
      <point x="554" y="423"/>
      <point x="463" y="555"/>
      <point x="303" y="555" type="curve" smooth="yes"/>
      <point x="232" y="555"/>
      <point x="182" y="542"/>
      <point x="146" y="517" type="curve" smooth="yes"/>
      <point x="127" y="504"/>
      <point x="109" y="487"/>
      <point x="92" y="466" type="curve"/>
      <point x="62" y="466" type="line"/>
      <point x="125" y="553"/>
      <point x="194" y="578"/>
      <point x="306" y="578" type="curve" smooth="yes"/>
      <point x="397" y="578"/>
      <point x="467" y="546"/>
      <point x="520" y="477" type="curve" smooth="yes"/>
      <point x="567" y="416"/>
      <point x="590" y="342"/>
      <point x="590" y="254" type="curve" smooth="yes"/>
      <point x="590" y="126"/>
      <point x="539" y="0"/>
      <point x="422" y="0" type="curve" smooth="yes"/>
      <point x="369" y="0"/>
      <point x="317" y="22"/>
      <point x="305" y="55" type="curve"/>
      <point x="285" y="18"/>
      <point x="249" y="0"/>
      <point x="196" y="0" type="curve" smooth="yes"/>
      <point x="139" y="0"/>
      <point x="99" y="24"/>
      <point x="67" y="80" type="curve" smooth="yes"/>
      <point x="42" y="122"/>
      <point x="30" y="169"/>
      <point x="30" y="222" type="curve" smooth="yes"/>
      <point x="30" y="291"/>
      <point x="45" y="355"/>
      <point x="82" y="399" type="curve" smooth="yes"/>
      <point x="101" y="421"/>
      <point x="123" y="432"/>
      <point x="150" y="432" type="curve" smooth="yes"/>
      <point x="183" y="432"/>
      <point x="199" y="410"/>
      <point x="199" y="367" type="curve" smooth="yes"/>
      <point x="199" y="366"/>
      <point x="199" y="364"/>
      <point x="199" y="363" type="curve" smooth="yes"/>
      <point x="199" y="362"/>
      <point x="199" y="361"/>
      <point x="199" y="360" type="curve" smooth="yes"/>
      <point x="199" y="359"/>
      <point x="199" y="357"/>
      <point x="199" y="356" type="curve" smooth="yes"/>
      <point x="199" y="354"/>
      <point x="199" y="352"/>
      <point x="199" y="351" type="curve" smooth="yes"/>
    </contour>
  </outline>
</glyph>
<glyph name="si_Oo" format="1">
  <advance width="636"/>
  <unicode hex="0D95"/>
  <outline>
    <contour>
      <point x="194" y="517"/>
      <point x="228" y="520"/>
      <point x="268" y="520" type="curve" smooth="yes"/>
      <point x="351" y="520"/>
      <point x="413" y="509"/>
      <point x="452" y="486" type="curve" smooth="yes"/>
      <point x="489" y="465"/>
      <point x="516" y="442"/>
      <point x="531" y="419" type="curve"/>
      <point x="490" y="559"/>
      <point x="372" y="591"/>
      <point x="277" y="591" type="curve" smooth="yes"/>
      <point x="222" y="591"/>
      <point x="181" y="583"/>
      <point x="156" y="566" type="curve" smooth="yes"/>
      <point x="145" y="559"/>
      <point x="139" y="551"/>
      <point x="139" y="544" type="curve" smooth="yes"/>
      <point x="139" y="535"/>
      <point x="145" y="530"/>
      <point x="157" y="527" type="curve" smooth="yes"/>
      <point x="166" y="525"/>
      <point x="169" y="519"/>
      <point x="165" y="510" type="curve"/>
    </contour>
    <contour>
      <point x="316" y="140" type="line" smooth="yes"/>
      <point x="316" y="97"/>
      <point x="359" y="71"/>
      <point x="410" y="71" type="curve" smooth="yes"/>
      <point x="503" y="71"/>
      <point x="552" y="173"/>
      <point x="552" y="273" type="curve" smooth="yes"/>
      <point x="552" y="365"/>
      <point x="488" y="437"/>
      <point x="444" y="458" type="curve" smooth="yes"/>
      <point x="398" y="480"/>
      <point x="341" y="491"/>
      <point x="273" y="491" type="curve" smooth="yes"/>
      <point x="193" y="491"/>
      <point x="138" y="482"/>
      <point x="42" y="442" type="curve"/>
      <point x="42" y="474" type="line"/>
      <point x="43" y="475"/>
      <point x="47" y="476"/>
      <point x="52" y="477" type="curve" smooth="yes"/>
      <point x="57" y="478"/>
      <point x="61" y="480"/>
      <point x="66" y="482" type="curve"/>
      <point x="71" y="483"/>
      <point x="76" y="485"/>
      <point x="83" y="487" type="curve"/>
      <point x="95" y="491"/>
      <point x="105" y="495"/>
      <point x="114" y="500" type="curve"/>
      <point x="119" y="502"/>
      <point x="122" y="504"/>
      <point x="124" y="506" type="curve" smooth="yes"/>
      <point x="126" y="508"/>
      <point x="127" y="510"/>
      <point x="126" y="512" type="curve"/>
      <point x="107" y="523"/>
      <point x="98" y="533"/>
      <point x="98" y="543" type="curve" smooth="yes"/>
      <point x="98" y="552"/>
      <point x="103" y="562"/>
      <point x="112" y="573" type="curve" smooth="yes"/>
      <point x="137" y="602"/>
      <point x="205" y="623"/>
      <point x="274" y="623" type="curve" smooth="yes"/>
      <point x="394" y="623"/>
      <point x="481" y="576"/>
      <point x="528" y="497" type="curve" smooth="yes"/>
      <point x="551" y="458"/>
      <point x="566" y="411"/>
      <point x="572" y="356" type="curve"/>
      <point x="583" y="331"/>
      <point x="589" y="296"/>
      <point x="589" y="250" type="curve" smooth="yes"/>
      <point x="589" y="126"/>
      <point x="537" y="0"/>
      <point x="422" y="0" type="curve" smooth="yes"/>
      <point x="369" y="0"/>
      <point x="317" y="22"/>
      <point x="305" y="55" type="curve"/>
      <point x="285" y="18"/>
      <point x="249" y="0"/>
      <point x="196" y="0" type="curve" smooth="yes"/>
      <point x="139" y="0"/>
      <point x="99" y="24"/>
      <point x="67" y="80" type="curve" smooth="yes"/>
      <point x="42" y="122"/>
      <point x="30" y="169"/>
      <point x="30" y="222" type="curve" smooth="yes"/>
      <point x="30" y="291"/>
      <point x="45" y="355"/>
      <point x="82" y="399" type="curve" smooth="yes"/>
      <point x="101" y="421"/>
      <point x="123" y="432"/>
      <point x="150" y="432" type="curve" smooth="yes"/>
      <point x="183" y="432"/>
      <point x="199" y="410"/>
      <point x="199" y="367" type="curve" smooth="yes"/>
      <point x="199" y="366"/>
      <point x="199" y="364"/>
      <point x="199" y="363" type="curve" smooth="yes"/>
      <point x="199" y="362"/>
      <point x="199" y="361"/>
      <point x="199" y="360" type="curve" smooth="yes"/>
      <point x="199" y="359"/>
      <point x="199" y="357"/>
      <point x="199" y="356" type="curve" smooth="yes"/>
      <point x="199" y="354"/>
      <point x="199" y="352"/>
      <point x="199" y="351" type="curve" smooth="yes"/>
      <point x="199" y="298"/>
      <point x="240" y="254"/>
      <point x="292" y="254" type="curve" smooth="yes"/>
      <point x="340" y="254"/>
      <point x="372" y="273"/>
      <point x="389" y="311" type="curve" smooth="yes"/>
      <point x="392" y="318"/>
      <point x="394" y="328"/>
      <point x="394" y="340" type="curve" smooth="yes"/>
      <point x="394" y="347"/>
      <point x="393" y="356"/>
      <point x="392" y="365" type="curve"/>
      <point x="393" y="325"/>
      <point x="359" y="291"/>
      <point x="318" y="291" type="curve" smooth="yes"/>
      <point x="275" y="291"/>
      <point x="243" y="320"/>
      <point x="243" y="360" type="curve" smooth="yes"/>
      <point x="243" y="403"/>
      <point x="278" y="434"/>
      <point x="321" y="434" type="curve" smooth="yes"/>
      <point x="352" y="434"/>
      <point x="377" y="425"/>
      <point x="394" y="409" type="curve" smooth="yes"/>
      <point x="411" y="393"/>
      <point x="422" y="369"/>
      <point x="422" y="341" type="curve" smooth="yes"/>
      <point x="422" y="296"/>
      <point x="399" y="258"/>
      <point x="360" y="239" type="curve" smooth="yes"/>
      <point x="341" y="229"/>
      <point x="319" y="224"/>
      <point x="296" y="224" type="curve" smooth="yes"/>
      <point x="227" y="224"/>
      <point x="170" y="277"/>
      <point x="170" y="344" type="curve" smooth="yes"/>
      <point x="170" y="371"/>
      <point x="170" y="386"/>
      <point x="171" y="390" type="curve"/>
      <point x="167" y="402"/>
      <point x="159" y="406"/>
      <point x="144" y="406" type="curve" smooth="yes"/>
      <point x="96" y="406"/>
      <point x="61" y="321"/>
      <point x="61" y="254" type="curve" smooth="yes"/>
      <point x="61" y="147"/>
      <point x="112" y="70"/>
      <point x="205" y="70" type="curve" smooth="yes"/>
      <point x="232" y="70"/>
      <point x="254" y="77"/>
      <point x="270" y="89" type="curve" smooth="yes"/>
      <point x="285" y="101"/>
      <point x="294" y="120"/>
      <point x="294" y="141" type="curve" smooth="yes"/>
      <point x="294" y="167" type="line"/>
      <point x="316" y="167" type="line"/>
    </contour>
    <contour>
      <point x="294" y="408"/>
      <point x="274" y="389"/>
      <point x="274" y="365" type="curve" smooth="yes"/>
      <point x="274" y="341"/>
      <point x="295" y="321"/>
      <point x="319" y="321" type="curve" smooth="yes"/>
      <point x="344" y="321"/>
      <point x="363" y="340"/>
      <point x="363" y="365" type="curve" smooth="yes"/>
      <point x="363" y="389"/>
      <point x="343" y="408"/>
      <point x="318" y="408" type="curve" smooth="yes"/>
    </contour>
  </outline>
</glyph>
<glyph name="si_Ou" format="1">
  <advance width="999"/>
  <unicode hex="0D96"/>
  <outline>
    <contour>
      <point x="666" y="212"/>
      <point x="633" y="233"/>
      <point x="616" y="266" type="curve" smooth="yes"/>
      <point x="607" y="283"/>
      <point x="603" y="301"/>
      <point x="603" y="321" type="curve" smooth="yes"/>
      <point x="603" y="370"/>
      <point x="615" y="405"/>
      <point x="640" y="428" type="curve"/>
      <point x="675" y="428" type="line"/>
      <point x="646" y="410"/>
      <point x="632" y="375"/>
      <point x="632" y="322" type="curve" smooth="yes"/>
      <point x="632" y="275"/>
      <point x="664" y="237"/>
      <point x="708" y="237" type="curve" smooth="yes"/>
      <point x="736" y="237"/>
      <point x="756" y="261"/>
      <point x="756" y="290" type="curve" smooth="yes"/>
      <point x="756" y="307"/>
      <point x="749" y="323"/>
      <point x="736" y="337" type="curve"/>
      <point x="735" y="341"/>
      <point x="735" y="345"/>
      <point x="735" y="349" type="curve" smooth="yes"/>
      <point x="735" y="400"/>
      <point x="767" y="432"/>
      <point x="840" y="432" type="curve" smooth="yes"/>
      <point x="859" y="432"/>
      <point x="876" y="427"/>
      <point x="890" y="417" type="curve" smooth="yes"/>
      <point x="904" y="407"/>
      <point x="916" y="393"/>
      <point x="926" y="377" type="curve" smooth="yes"/>
      <point x="936" y="360"/>
      <point x="944" y="341"/>
      <point x="950" y="321" type="curve" smooth="yes"/>
      <point x="956" y="300"/>
      <point x="960" y="278"/>
      <point x="962" y="257" type="curve" smooth="yes"/>
      <point x="963" y="246"/>
      <point x="963" y="236"/>
      <point x="963" y="225" type="curve" smooth="yes"/>
      <point x="963" y="148"/>
      <point x="942" y="77"/>
      <point x="894" y="32" type="curve" smooth="yes"/>
      <point x="870" y="9"/>
      <point x="842" y="-2"/>
      <point x="809" y="-2" type="curve" smooth="yes"/>
      <point x="746" y="-2"/>
      <point x="704" y="52"/>
      <point x="704" y="120" type="curve" smooth="yes"/>
      <point x="704" y="132"/>
      <point x="705" y="144"/>
      <point x="708" y="157" type="curve"/>
      <point x="734" y="157" type="line"/>
      <point x="732" y="146"/>
      <point x="731" y="136"/>
      <point x="731" y="125" type="curve" smooth="yes"/>
      <point x="731" y="81"/>
      <point x="745" y="51"/>
      <point x="773" y="35" type="curve" smooth="yes"/>
      <point x="784" y="29"/>
      <point x="796" y="26"/>
      <point x="808" y="26" type="curve" smooth="yes"/>
      <point x="865" y="26"/>
      <point x="893" y="91"/>
      <point x="893" y="220" type="curve" smooth="yes"/>
      <point x="893" y="249"/>
      <point x="892" y="275"/>
      <point x="889" y="299" type="curve" smooth="yes"/>
      <point x="886" y="322"/>
      <point x="883" y="341"/>
      <point x="877" y="358" type="curve" smooth="yes"/>
      <point x="871" y="374"/>
      <point x="863" y="386"/>
      <point x="855" y="395" type="curve"/>
      <point x="846" y="403"/>
      <point x="834" y="408"/>
      <point x="822" y="408" type="curve" smooth="yes"/>
      <point x="786" y="408"/>
      <point x="763" y="385"/>
      <point x="763" y="349" type="curve" smooth="yes"/>
      <point x="763" y="347"/>
      <point x="763" y="345"/>
      <point x="763" y="343" type="curve"/>
      <point x="787" y="330"/>
      <point x="799" y="312"/>
      <point x="799" y="288" type="curve" smooth="yes"/>
      <point x="799" y="241"/>
      <point x="758" y="212"/>
      <point x="706" y="212" type="curve" smooth="yes"/>
    </contour>
    <contour>
      <point x="294" y="408"/>
      <point x="274" y="389"/>
      <point x="274" y="365" type="curve" smooth="yes"/>
      <point x="274" y="341"/>
      <point x="295" y="321"/>
      <point x="319" y="321" type="curve" smooth="yes"/>
      <point x="344" y="321"/>
      <point x="363" y="340"/>
      <point x="363" y="365" type="curve" smooth="yes"/>
      <point x="363" y="389"/>
      <point x="343" y="408"/>
      <point x="318" y="408" type="curve" smooth="yes"/>
    </contour>
    <contour>
      <point x="199" y="298"/>
      <point x="240" y="254"/>
      <point x="292" y="254" type="curve" smooth="yes"/>
      <point x="340" y="254"/>
      <point x="372" y="273"/>
      <point x="389" y="311" type="curve" smooth="yes"/>
      <point x="392" y="318"/>
      <point x="394" y="328"/>
      <point x="394" y="340" type="curve" smooth="yes"/>
      <point x="394" y="347"/>
      <point x="393" y="356"/>
      <point x="392" y="365" type="curve"/>
      <point x="393" y="325"/>
      <point x="359" y="291"/>
      <point x="318" y="291" type="curve" smooth="yes"/>
      <point x="275" y="291"/>
      <point x="243" y="320"/>
      <point x="243" y="360" type="curve" smooth="yes"/>
      <point x="243" y="403"/>
      <point x="278" y="434"/>
      <point x="321" y="434" type="curve" smooth="yes"/>
      <point x="352" y="434"/>
      <point x="377" y="425"/>
      <point x="394" y="409" type="curve" smooth="yes"/>
      <point x="411" y="393"/>
      <point x="422" y="369"/>
      <point x="422" y="341" type="curve" smooth="yes"/>
      <point x="422" y="308"/>
      <point x="408" y="277"/>
      <point x="386" y="257" type="curve" smooth="yes"/>
      <point x="364" y="236"/>
      <point x="331" y="224"/>
      <point x="298" y="224" type="curve" smooth="yes"/>
      <point x="233" y="224"/>
      <point x="191" y="258"/>
      <point x="172" y="326" type="curve"/>
      <point x="172" y="327"/>
      <point x="172" y="331"/>
      <point x="172" y="339" type="curve" smooth="yes"/>
      <point x="172" y="346"/>
      <point x="172" y="357"/>
      <point x="172" y="372" type="curve" smooth="yes"/>
      <point x="172" y="396"/>
      <point x="164" y="406"/>
      <point x="144" y="406" type="curve" smooth="yes"/>
      <point x="96" y="406"/>
      <point x="61" y="321"/>
      <point x="61" y="254" type="curve" smooth="yes"/>
      <point x="61" y="147"/>
      <point x="112" y="70"/>
      <point x="205" y="70" type="curve" smooth="yes"/>
      <point x="232" y="70"/>
      <point x="254" y="77"/>
      <point x="270" y="89" type="curve" smooth="yes"/>
      <point x="285" y="101"/>
      <point x="294" y="120"/>
      <point x="294" y="141" type="curve" smooth="yes"/>
      <point x="294" y="167" type="line"/>
      <point x="316" y="167" type="line"/>
      <point x="316" y="140" type="line" smooth="yes"/>
      <point x="316" y="97"/>
      <point x="359" y="71"/>
      <point x="410" y="71" type="curve" smooth="yes"/>
      <point x="499" y="71"/>
      <point x="554" y="173"/>
      <point x="554" y="286" type="curve" smooth="yes"/>
      <point x="554" y="423"/>
      <point x="463" y="555"/>
      <point x="303" y="555" type="curve" smooth="yes"/>
      <point x="232" y="555"/>
      <point x="182" y="542"/>
      <point x="146" y="517" type="curve" smooth="yes"/>
      <point x="127" y="504"/>
      <point x="109" y="487"/>
      <point x="92" y="466" type="curve"/>
      <point x="62" y="466" type="line"/>
      <point x="125" y="553"/>
      <point x="194" y="578"/>
      <point x="306" y="578" type="curve" smooth="yes"/>
      <point x="397" y="578"/>
      <point x="467" y="546"/>
      <point x="520" y="477" type="curve" smooth="yes"/>
      <point x="567" y="416"/>
      <point x="590" y="342"/>
      <point x="590" y="254" type="curve" smooth="yes"/>
      <point x="590" y="126"/>
      <point x="539" y="0"/>
      <point x="422" y="0" type="curve" smooth="yes"/>
      <point x="369" y="0"/>
      <point x="317" y="22"/>
      <point x="305" y="55" type="curve"/>
      <point x="285" y="18"/>
      <point x="249" y="0"/>
      <point x="196" y="0" type="curve" smooth="yes"/>
      <point x="139" y="0"/>
      <point x="99" y="24"/>
      <point x="67" y="80" type="curve" smooth="yes"/>
      <point x="42" y="122"/>
      <point x="30" y="169"/>
      <point x="30" y="222" type="curve" smooth="yes"/>
      <point x="30" y="291"/>
      <point x="45" y="355"/>
      <point x="82" y="399" type="curve" smooth="yes"/>
      <point x="101" y="421"/>
      <point x="123" y="432"/>
      <point x="150" y="432" type="curve" smooth="yes"/>
      <point x="183" y="432"/>
      <point x="199" y="410"/>
      <point x="199" y="367" type="curve" smooth="yes"/>
      <point x="199" y="366"/>
      <point x="199" y="364"/>
      <point x="199" y="363" type="curve" smooth="yes"/>
      <point x="199" y="362"/>
      <point x="199" y="361"/>
      <point x="199" y="360" type="curve" smooth="yes"/>
      <point x="199" y="359"/>
      <point x="199" y="357"/>
      <point x="199" y="356" type="curve" smooth="yes"/>
      <point x="199" y="354"/>
      <point x="199" y="352"/>
      <point x="199" y="351" type="curve" smooth="yes"/>
    </contour>
  </outline>
</glyph>
<glyph name="si_Kha" format="1">
  <advance width="630"/>
  <unicode hex="0D9B"/>
  <outline>
    <contour>
      <point x="108" y="115"/>
      <point x="90" y="97"/>
      <point x="90" y="74" type="curve" smooth="yes"/>
      <point x="90" y="50"/>
      <point x="112" y="29"/>
      <point x="136" y="29" type="curve" smooth="yes"/>
      <point x="159" y="29"/>
      <point x="177" y="48"/>
      <point x="177" y="71" type="curve" smooth="yes"/>
      <point x="177" y="98"/>
      <point x="159" y="115"/>
      <point x="132" y="115" type="curve" smooth="yes"/>
    </contour>
    <contour>
      <point x="132" y="320"/>
      <point x="63" y="256"/>
      <point x="63" y="156" type="curve" smooth="yes"/>
      <point x="63" y="139"/>
      <point x="65" y="122"/>
      <point x="70" y="105" type="curve"/>
      <point x="81" y="132"/>
      <point x="102" y="145"/>
      <point x="135" y="145" type="curve" smooth="yes"/>
      <point x="166" y="145"/>
      <point x="189" y="135"/>
      <point x="201" y="113" type="curve" smooth="yes"/>
      <point x="207" y="102"/>
      <point x="210" y="88"/>
      <point x="210" y="72" type="curve" smooth="yes"/>
      <point x="210" y="53"/>
      <point x="202" y="34"/>
      <point x="190" y="21" type="curve"/>
      <point x="177" y="8"/>
      <point x="160" y="-1"/>
      <point x="141" y="-1" type="curve" smooth="yes"/>
      <point x="94" y="-1"/>
      <point x="59" y="41"/>
      <point x="44" y="95" type="curve" smooth="yes"/>
      <point x="37" y="122"/>
      <point x="33" y="150"/>
      <point x="33" y="180" type="curve" smooth="yes"/>
      <point x="33" y="257"/>
      <point x="52" y="306"/>
      <point x="100" y="346" type="curve" smooth="yes"/>
      <point x="139" y="379"/>
      <point x="188" y="396"/>
      <point x="247" y="396" type="curve" smooth="yes"/>
      <point x="338" y="396"/>
      <point x="412" y="341"/>
      <point x="412" y="258" type="curve" smooth="yes"/>
      <point x="412" y="205"/>
      <point x="390" y="157"/>
      <point x="346" y="115" type="curve"/>
      <point x="349" y="116"/>
      <point x="352" y="116"/>
      <point x="355" y="116" type="curve" smooth="yes"/>
      <point x="360" y="116"/>
      <point x="367" y="111"/>
      <point x="378" y="101" type="curve"/>
      <point x="381" y="97"/>
      <point x="390" y="89"/>
      <point x="407" y="77" type="curve"/>
      <point x="418" y="70"/>
      <point x="429" y="67"/>
      <point x="439" y="67" type="curve" smooth="yes"/>
      <point x="519" y="67"/>
      <point x="548" y="239"/>
      <point x="548" y="312" type="curve" smooth="yes"/>
      <point x="548" y="387"/>
      <point x="521" y="453"/>
      <point x="477" y="500" type="curve" smooth="yes"/>
      <point x="432" y="547"/>
      <point x="366" y="576"/>
      <point x="294" y="576" type="curve" smooth="yes"/>
      <point x="204" y="576"/>
      <point x="139" y="541"/>
      <point x="98" y="470" type="curve"/>
      <point x="64" y="470" type="line"/>
      <point x="111" y="557"/>
      <point x="187" y="601"/>
      <point x="298" y="601" type="curve" smooth="yes"/>
      <point x="437" y="601"/>
      <point x="584" y="498"/>
      <point x="584" y="290" type="curve" smooth="yes"/>
      <point x="584" y="201"/>
      <point x="562" y="110"/>
      <point x="508" y="47" type="curve" smooth="yes"/>
      <point x="481" y="16"/>
      <point x="449" y="0"/>
      <point x="412" y="0" type="curve" smooth="yes"/>
      <point x="379" y="0"/>
      <point x="367" y="9"/>
      <point x="343" y="40" type="curve" smooth="yes"/>
      <point x="335" y="51"/>
      <point x="327" y="56"/>
      <point x="319" y="55" type="curve" smooth="yes"/>
      <point x="311" y="54"/>
      <point x="285" y="32"/>
      <point x="240" y="-13" type="curve"/>
      <point x="204" y="-10" type="line"/>
      <point x="231" y="17"/>
      <point x="325" y="124"/>
      <point x="350" y="168" type="curve" smooth="yes"/>
      <point x="362" y="190"/>
      <point x="368" y="210"/>
      <point x="368" y="228" type="curve" smooth="yes"/>
      <point x="368" y="289"/>
      <point x="324" y="320"/>
      <point x="235" y="320" type="curve" smooth="yes"/>
    </contour>
  </outline>
</glyph>
<glyph name="si_Ga" format="1">
  <advance width="636"/>
  <unicode hex="0D9C"/>
  <outline>
    <contour>
      <point x="352" y="27"/>
      <point x="266" y="-1"/>
      <point x="209" y="-2" type="curve" smooth="yes"/>
      <point x="96" y="-2"/>
      <point x="34" y="96"/>
      <point x="34" y="204" type="curve" smooth="yes"/>
      <point x="34" y="347"/>
      <point x="126" y="432"/>
      <point x="223" y="432" type="curve" smooth="yes"/>
      <point x="232" y="432"/>
      <point x="242" y="431"/>
      <point x="251" y="430" type="curve"/>
      <point x="251" y="407" type="line"/>
      <point x="244" y="408"/>
      <point x="236" y="409"/>
      <point x="229" y="409" type="curve" smooth="yes"/>
      <point x="182" y="409"/>
      <point x="140" y="388"/>
      <point x="112" y="355" type="curve" smooth="yes"/>
      <point x="83" y="322"/>
      <point x="65" y="276"/>
      <point x="65" y="229" type="curve" smooth="yes"/>
      <point x="65" y="190"/>
      <point x="75" y="156"/>
      <point x="95" y="127" type="curve" smooth="yes"/>
      <point x="114" y="100"/>
      <point x="135" y="83"/>
      <point x="163" y="75" type="curve"/>
      <point x="177" y="70"/>
      <point x="193" y="68"/>
      <point x="210" y="68" type="curve" smooth="yes"/>
      <point x="274" y="68"/>
      <point x="319" y="98"/>
      <point x="319" y="153" type="curve" smooth="yes"/>
      <point x="319" y="186"/>
      <point x="298" y="217"/>
      <point x="267" y="217" type="curve" smooth="yes"/>
      <point x="260" y="217"/>
      <point x="252" y="216"/>
      <point x="245" y="213" type="curve"/>
      <point x="242" y="202"/>
      <point x="241" y="195"/>
      <point x="241" y="192" type="curve"/>
      <point x="216" y="192" type="line"/>
      <point x="223" y="275"/>
      <point x="252" y="348"/>
      <point x="310" y="396" type="curve" smooth="yes"/>
      <point x="339" y="420"/>
      <point x="372" y="432"/>
      <point x="409" y="432" type="curve" smooth="yes"/>
      <point x="465" y="432"/>
      <point x="511" y="407"/>
      <point x="540" y="368" type="curve" smooth="yes"/>
      <point x="569" y="328"/>
      <point x="587" y="275"/>
      <point x="587" y="216" type="curve" smooth="yes"/>
      <point x="587" y="104"/>
      <point x="506" y="-1"/>
      <point x="369" y="-1" type="curve" smooth="yes"/>
      <point x="359" y="-1"/>
      <point x="349" y="0"/>
      <point x="338" y="1" type="curve"/>
      <point x="338" y="27" type="line"/>
      <point x="346" y="26"/>
      <point x="354" y="26"/>
      <point x="362" y="26" type="curve" smooth="yes"/>
      <point x="466" y="26"/>
      <point x="544" y="100"/>
      <point x="544" y="203" type="curve" smooth="yes"/>
      <point x="544" y="292"/>
      <point x="480" y="372"/>
      <point x="393" y="372" type="curve" smooth="yes"/>
      <point x="320" y="372"/>
      <point x="261" y="311"/>
      <point x="250" y="239" type="curve"/>
      <point x="257" y="240"/>
      <point x="263" y="241"/>
      <point x="270" y="241" type="curve" smooth="yes"/>
      <point x="323" y="241"/>
      <point x="352" y="203"/>
      <point x="352" y="136" type="curve" smooth="yes"/>
    </contour>
  </outline>
</glyph>
<glyph name="si_Gha" format="1">
  <advance width="677"/>
  <unicode hex="0D9D"/>
  <outline>
    <contour>
      <point x="540" y="374"/>
      <point x="509" y="392"/>
      <point x="469" y="392" type="curve" smooth="yes"/>
      <point x="416" y="392"/>
      <point x="387" y="365"/>
      <point x="382" y="310" type="curve"/>
      <point x="398" y="315"/>
      <point x="419" y="317"/>
      <point x="445" y="317" type="curve" smooth="yes"/>
      <point x="479" y="317"/>
      <point x="506" y="313"/>
      <point x="525" y="306" type="curve"/>
      <point x="535" y="317"/>
      <point x="540" y="328"/>
      <point x="540" y="341" type="curve" smooth="yes"/>
    </contour>
    <contour>
      <point x="579" y="326"/>
      <point x="566" y="301"/>
      <point x="550" y="297" type="curve"/>
      <point x="603" y="271"/>
      <point x="629" y="224"/>
      <point x="629" y="155" type="curve" smooth="yes"/>
      <point x="629" y="70"/>
      <point x="553" y="0"/>
      <point x="464" y="0" type="curve" smooth="yes"/>
      <point x="440" y="0"/>
      <point x="413" y="4"/>
      <point x="382" y="12" type="curve"/>
      <point x="379" y="17"/>
      <point x="378" y="23"/>
      <point x="378" y="30" type="curve" smooth="yes"/>
      <point x="378" y="34"/>
      <point x="380" y="46"/>
      <point x="385" y="66" type="curve" smooth="yes"/>
      <point x="390" y="85"/>
      <point x="392" y="98"/>
      <point x="392" y="103" type="curve" smooth="yes"/>
      <point x="392" y="140"/>
      <point x="369" y="171"/>
      <point x="334" y="171" type="curve" smooth="yes"/>
      <point x="295" y="171"/>
      <point x="271" y="142"/>
      <point x="271" y="101" type="curve" smooth="yes"/>
      <point x="271" y="96"/>
      <point x="273" y="85"/>
      <point x="276" y="67" type="curve" smooth="yes"/>
      <point x="279" y="49"/>
      <point x="281" y="38"/>
      <point x="281" y="33" type="curve" smooth="yes"/>
      <point x="281" y="26"/>
      <point x="280" y="18"/>
      <point x="277" y="11" type="curve"/>
      <point x="244" y="3"/>
      <point x="218" y="-1"/>
      <point x="199" y="-1" type="curve" smooth="yes"/>
      <point x="118" y="-1"/>
      <point x="51" y="70"/>
      <point x="51" y="154" type="curve" smooth="yes"/>
      <point x="51" y="222"/>
      <point x="82" y="266"/>
      <point x="144" y="285" type="curve"/>
      <point x="5" y="285" type="line"/>
      <point x="5" y="308" type="line"/>
      <point x="282" y="308" type="line"/>
      <point x="278" y="359"/>
      <point x="254" y="385"/>
      <point x="211" y="385" type="curve" smooth="yes"/>
      <point x="210" y="385"/>
      <point x="210" y="385"/>
      <point x="209" y="385" type="curve" smooth="yes"/>
      <point x="193" y="385"/>
      <point x="180" y="375"/>
      <point x="170" y="354" type="curve"/>
      <point x="161" y="333"/>
      <point x="146" y="323"/>
      <point x="125" y="323" type="curve" smooth="yes"/>
      <point x="101" y="323"/>
      <point x="89" y="335"/>
      <point x="89" y="362" type="curve" smooth="yes"/>
      <point x="89" y="383"/>
      <point x="101" y="402"/>
      <point x="119" y="414" type="curve" smooth="yes"/>
      <point x="137" y="426"/>
      <point x="159" y="433"/>
      <point x="183" y="433" type="curve" smooth="yes"/>
      <point x="270" y="433"/>
      <point x="312" y="384"/>
      <point x="312" y="295" type="curve" smooth="yes"/>
      <point x="312" y="291"/>
      <point x="312" y="287"/>
      <point x="312" y="282" type="curve"/>
      <point x="283" y="283"/>
      <point x="260" y="284"/>
      <point x="242" y="284" type="curve" smooth="yes"/>
      <point x="155" y="284"/>
      <point x="89" y="247"/>
      <point x="89" y="175" type="curve" smooth="yes"/>
      <point x="89" y="118"/>
      <point x="151" y="71"/>
      <point x="212" y="71" type="curve" smooth="yes"/>
      <point x="232" y="71"/>
      <point x="244" y="73"/>
      <point x="247" y="76" type="curve"/>
      <point x="244" y="89"/>
      <point x="242" y="100"/>
      <point x="242" y="111" type="curve" smooth="yes"/>
      <point x="242" y="146"/>
      <point x="260" y="174"/>
      <point x="287" y="189" type="curve" smooth="yes"/>
      <point x="300" y="196"/>
      <point x="315" y="200"/>
      <point x="330" y="200" type="curve" smooth="yes"/>
      <point x="383" y="200"/>
      <point x="420" y="161"/>
      <point x="420" y="108" type="curve" smooth="yes"/>
      <point x="420" y="99"/>
      <point x="419" y="89"/>
      <point x="417" y="79" type="curve"/>
      <point x="422" y="74"/>
      <point x="440" y="71"/>
      <point x="471" y="71" type="curve" smooth="yes"/>
      <point x="512" y="71"/>
      <point x="551" y="90"/>
      <point x="575" y="122" type="curve" smooth="yes"/>
      <point x="587" y="138"/>
      <point x="593" y="156"/>
      <point x="593" y="176" type="curve" smooth="yes"/>
      <point x="593" y="239"/>
      <point x="544" y="284"/>
      <point x="481" y="289" type="curve" smooth="yes"/>
      <point x="470" y="290"/>
      <point x="459" y="290"/>
      <point x="448" y="290" type="curve" smooth="yes"/>
      <point x="417" y="290"/>
      <point x="386" y="287"/>
      <point x="353" y="280" type="curve"/>
      <point x="353" y="284"/>
      <point x="353" y="288"/>
      <point x="353" y="292" type="curve" smooth="yes"/>
      <point x="353" y="335"/>
      <point x="365" y="369"/>
      <point x="386" y="394" type="curve" smooth="yes"/>
      <point x="407" y="418"/>
      <point x="441" y="432"/>
      <point x="481" y="432" type="curve" smooth="yes"/>
      <point x="532" y="432"/>
      <point x="564" y="410"/>
      <point x="577" y="365" type="curve"/>
      <point x="578" y="360"/>
      <point x="579" y="354"/>
      <point x="579" y="349" type="curve" smooth="yes"/>
    </contour>
  </outline>
</glyph>
<glyph name="si_Nnga" format="1">
  <advance width="749"/>
  <unicode hex="0D9F"/>
  <outline>
    <contour>
      <point x="150" y="293"/>
      <point x="181" y="360"/>
      <point x="244" y="404" type="curve"/>
      <point x="237" y="405"/>
      <point x="230" y="405"/>
      <point x="223" y="405" type="curve" smooth="yes"/>
      <point x="116" y="405"/>
      <point x="57" y="334"/>
      <point x="57" y="218" type="curve" smooth="yes"/>
      <point x="57" y="137"/>
      <point x="83" y="74"/>
      <point x="135" y="29" type="curve"/>
      <point x="135" y="0" type="line"/>
      <point x="68" y="33"/>
      <point x="27" y="120"/>
      <point x="27" y="221" type="curve" smooth="yes"/>
      <point x="27" y="337"/>
      <point x="87" y="413"/>
      <point x="180" y="429" type="curve" smooth="yes"/>
      <point x="199" y="432"/>
      <point x="225" y="434"/>
      <point x="259" y="434" type="curve" smooth="yes"/>
      <point x="289" y="434"/>
      <point x="325" y="433"/>
      <point x="367" y="430" type="curve"/>
      <point x="367" y="407" type="line"/>
      <point x="360" y="408"/>
      <point x="352" y="409"/>
      <point x="345" y="409" type="curve" smooth="yes"/>
      <point x="308" y="409"/>
      <point x="274" y="396"/>
      <point x="247" y="373" type="curve" smooth="yes"/>
      <point x="220" y="350"/>
      <point x="201" y="320"/>
      <point x="190" y="284" type="curve" smooth="yes"/>
      <point x="185" y="266"/>
      <point x="182" y="247"/>
      <point x="182" y="228" type="curve" smooth="yes"/>
      <point x="182" y="183"/>
      <point x="197" y="142"/>
      <point x="222" y="114" type="curve"/>
      <point x="246" y="85"/>
      <point x="283" y="68"/>
      <point x="326" y="68" type="curve" smooth="yes"/>
      <point x="390" y="68"/>
      <point x="436" y="100"/>
      <point x="436" y="153" type="curve" smooth="yes"/>
      <point x="436" y="186"/>
      <point x="414" y="217"/>
      <point x="383" y="217" type="curve" smooth="yes"/>
      <point x="376" y="217"/>
      <point x="368" y="216"/>
      <point x="361" y="213" type="curve"/>
      <point x="358" y="202"/>
      <point x="357" y="195"/>
      <point x="357" y="192" type="curve"/>
      <point x="333" y="192" type="line"/>
      <point x="338" y="253"/>
      <point x="357" y="311"/>
      <point x="389" y="357" type="curve" smooth="yes"/>
      <point x="420" y="403"/>
      <point x="470" y="432"/>
      <point x="526" y="432" type="curve" smooth="yes"/>
      <point x="634" y="432"/>
      <point x="703" y="339"/>
      <point x="703" y="219" type="curve" smooth="yes"/>
      <point x="703" y="104"/>
      <point x="622" y="-1"/>
      <point x="485" y="-1" type="curve" smooth="yes"/>
      <point x="475" y="-1"/>
      <point x="465" y="0"/>
      <point x="454" y="1" type="curve"/>
      <point x="454" y="27" type="line"/>
      <point x="462" y="26"/>
      <point x="470" y="26"/>
      <point x="478" y="26" type="curve" smooth="yes"/>
      <point x="582" y="26"/>
      <point x="660" y="99"/>
      <point x="660" y="202" type="curve" smooth="yes"/>
      <point x="660" y="293"/>
      <point x="594" y="372"/>
      <point x="509" y="372" type="curve" smooth="yes"/>
      <point x="436" y="372"/>
      <point x="377" y="310"/>
      <point x="366" y="239" type="curve"/>
      <point x="373" y="240"/>
      <point x="379" y="241"/>
      <point x="386" y="241" type="curve" smooth="yes"/>
      <point x="439" y="241"/>
      <point x="468" y="203"/>
      <point x="468" y="136" type="curve" smooth="yes"/>
      <point x="468" y="27"/>
      <point x="382" y="-1"/>
      <point x="325" y="-2" type="curve" smooth="yes"/>
      <point x="212" y="-2"/>
      <point x="150" y="96"/>
      <point x="150" y="204" type="curve" smooth="yes"/>
    </contour>
  </outline>
</glyph>
<glyph name="si_Ja" format="1">
  <advance width="598"/>
  <unicode hex="0DA2"/>
  <outline>
    <contour>
      <point x="410" y="406"/>
      <point x="388" y="386"/>
      <point x="388" y="359" type="curve" smooth="yes"/>
      <point x="388" y="331"/>
      <point x="412" y="308"/>
      <point x="440" y="308" type="curve" smooth="yes"/>
      <point x="467" y="308"/>
      <point x="489" y="328"/>
      <point x="489" y="355" type="curve" smooth="yes"/>
      <point x="489" y="383"/>
      <point x="466" y="406"/>
      <point x="437" y="406" type="curve" smooth="yes"/>
    </contour>
    <contour>
      <point x="368" y="319"/>
      <point x="359" y="337"/>
      <point x="359" y="363" type="curve" smooth="yes"/>
      <point x="359" y="376"/>
      <point x="362" y="391"/>
      <point x="368" y="406" type="curve"/>
      <point x="338" y="389"/>
      <point x="323" y="365"/>
      <point x="323" y="334" type="curve" smooth="yes"/>
      <point x="323" y="327"/>
      <point x="324" y="318"/>
      <point x="326" y="309" type="curve"/>
      <point x="341" y="310"/>
      <point x="364" y="312"/>
      <point x="385" y="309" type="curve"/>
    </contour>
    <contour>
      <point x="222" y="432"/>
      <point x="266" y="393"/>
      <point x="266" y="326" type="curve" smooth="yes"/>
      <point x="266" y="314"/>
      <point x="265" y="301"/>
      <point x="262" y="288" type="curve"/>
      <point x="251" y="289"/>
      <point x="240" y="290"/>
      <point x="229" y="290" type="curve" smooth="yes"/>
      <point x="167" y="290"/>
      <point x="123" y="276"/>
      <point x="96" y="248" type="curve"/>
      <point x="79" y="229"/>
      <point x="70" y="209"/>
      <point x="70" y="186" type="curve" smooth="yes"/>
      <point x="70" y="143"/>
      <point x="100" y="112"/>
      <point x="146" y="96" type="curve" smooth="yes"/>
      <point x="192" y="79"/>
      <point x="242" y="71"/>
      <point x="298" y="71" type="curve" smooth="yes"/>
      <point x="442" y="71"/>
      <point x="514" y="110"/>
      <point x="514" y="188" type="curve" smooth="yes"/>
      <point x="514" y="217"/>
      <point x="501" y="242"/>
      <point x="481" y="257" type="curve" smooth="yes"/>
      <point x="461" y="272"/>
      <point x="431" y="282"/>
      <point x="402" y="287" type="curve"/>
      <point x="387" y="289"/>
      <point x="372" y="290"/>
      <point x="355" y="290" type="curve" smooth="yes"/>
      <point x="336" y="290"/>
      <point x="318" y="288"/>
      <point x="300" y="285" type="curve"/>
      <point x="295" y="301"/>
      <point x="293" y="316"/>
      <point x="293" y="331" type="curve" smooth="yes"/>
      <point x="293" y="384"/>
      <point x="321" y="418"/>
      <point x="378" y="433" type="curve"/>
      <point x="403" y="504"/>
      <point x="492" y="619"/>
      <point x="544" y="619" type="curve" smooth="yes"/>
      <point x="560" y="619"/>
      <point x="568" y="612"/>
      <point x="568" y="597" type="curve" smooth="yes"/>
      <point x="568" y="590"/>
      <point x="565" y="584"/>
      <point x="558" y="580" type="curve" smooth="yes"/>
      <point x="538" y="569"/>
      <point x="509" y="549"/>
      <point x="472" y="522" type="curve"/>
      <point x="439" y="493"/>
      <point x="417" y="464"/>
      <point x="406" y="433" type="curve"/>
      <point x="430" y="433" type="line" smooth="yes"/>
      <point x="431" y="433"/>
      <point x="432" y="433"/>
      <point x="433" y="433" type="curve" smooth="yes"/>
      <point x="480" y="433"/>
      <point x="520" y="400"/>
      <point x="520" y="357" type="curve" smooth="yes"/>
      <point x="520" y="325"/>
      <point x="505" y="302"/>
      <point x="474" y="289" type="curve"/>
      <point x="495" y="281"/>
      <point x="514" y="263"/>
      <point x="527" y="242" type="curve" smooth="yes"/>
      <point x="540" y="221"/>
      <point x="549" y="192"/>
      <point x="549" y="164" type="curve" smooth="yes"/>
      <point x="549" y="119"/>
      <point x="529" y="80"/>
      <point x="498" y="56" type="curve" smooth="yes"/>
      <point x="466" y="31"/>
      <point x="421" y="13"/>
      <point x="374" y="6" type="curve" smooth="yes"/>
      <point x="350" y="2"/>
      <point x="325" y="0"/>
      <point x="298" y="0" type="curve" smooth="yes"/>
      <point x="226" y="0"/>
      <point x="165" y="13"/>
      <point x="114" y="39" type="curve" smooth="yes"/>
      <point x="63" y="65"/>
      <point x="33" y="110"/>
      <point x="33" y="171" type="curve" smooth="yes"/>
      <point x="33" y="215"/>
      <point x="53" y="252"/>
      <point x="85" y="276" type="curve" smooth="yes"/>
      <point x="117" y="299"/>
      <point x="160" y="312"/>
      <point x="208" y="312" type="curve" smooth="yes"/>
      <point x="217" y="312"/>
      <point x="226" y="312"/>
      <point x="235" y="311" type="curve"/>
      <point x="236" y="318"/>
      <point x="237" y="324"/>
      <point x="237" y="331" type="curve" smooth="yes"/>
      <point x="237" y="372"/>
      <point x="219" y="393"/>
      <point x="182" y="393" type="curve" smooth="yes"/>
      <point x="162" y="393"/>
      <point x="149" y="385"/>
      <point x="143" y="369" type="curve" smooth="yes"/>
      <point x="132" y="338"/>
      <point x="115" y="322"/>
      <point x="92" y="322" type="curve" smooth="yes"/>
      <point x="68" y="322"/>
      <point x="56" y="335"/>
      <point x="56" y="360" type="curve" smooth="yes"/>
      <point x="56" y="366"/>
      <point x="57" y="372"/>
      <point x="60" y="378" type="curve"/>
      <point x="75" y="414"/>
      <point x="107" y="432"/>
      <point x="154" y="432" type="curve" smooth="yes"/>
    </contour>
  </outline>
</glyph>
<glyph name="si_Jha" format="1">
  <advance width="1079"/>
  <unicode hex="0DA3"/>
  <outline>
    <contour>
      <point x="574" y="399"/>
      <point x="538" y="404"/>
      <point x="492" y="404" type="curve" smooth="yes"/>
      <point x="384" y="404"/>
      <point x="293" y="370"/>
      <point x="219" y="303" type="curve"/>
      <point x="249" y="310"/>
      <point x="278" y="313"/>
      <point x="305" y="313" type="curve" smooth="yes"/>
      <point x="382" y="313"/>
      <point x="441" y="287"/>
      <point x="482" y="236" type="curve"/>
      <point x="490" y="308"/>
      <point x="537" y="362"/>
      <point x="601" y="389" type="curve"/>
    </contour>
    <contour>
      <point x="576" y="0"/>
      <point x="527" y="36"/>
      <point x="508" y="80" type="curve"/>
      <point x="492" y="26"/>
      <point x="455" y="-1"/>
      <point x="397" y="-1" type="curve" smooth="yes"/>
      <point x="351" y="-1"/>
      <point x="317" y="20"/>
      <point x="296" y="63" type="curve"/>
      <point x="259" y="-21"/>
      <point x="176" y="-14"/>
      <point x="124" y="37" type="curve" smooth="yes"/>
      <point x="123" y="38"/>
      <point x="118" y="46"/>
      <point x="110" y="59" type="curve"/>
      <point x="104" y="68"/>
      <point x="97" y="73"/>
      <point x="90" y="73" type="curve" smooth="yes"/>
      <point x="66" y="73"/>
      <point x="46" y="39"/>
      <point x="47" y="11" type="curve"/>
      <point x="21" y="22" type="line"/>
      <point x="28" y="86"/>
      <point x="70" y="179"/>
      <point x="109" y="232" type="curve" smooth="yes"/>
      <point x="135" y="268"/>
      <point x="163" y="299"/>
      <point x="193" y="326" type="curve"/>
      <point x="194" y="333"/>
      <point x="194" y="339"/>
      <point x="194" y="345" type="curve" smooth="yes"/>
      <point x="194" y="376"/>
      <point x="181" y="392"/>
      <point x="154" y="392" type="curve" smooth="yes"/>
      <point x="136" y="392"/>
      <point x="126" y="382"/>
      <point x="123" y="363" type="curve" smooth="yes"/>
      <point x="118" y="332"/>
      <point x="110" y="312"/>
      <point x="101" y="303" type="curve"/>
      <point x="94" y="297"/>
      <point x="85" y="294"/>
      <point x="72" y="294" type="curve" smooth="yes"/>
      <point x="42" y="294"/>
      <point x="27" y="308"/>
      <point x="27" y="336" type="curve" smooth="yes"/>
      <point x="27" y="376"/>
      <point x="63" y="416"/>
      <point x="100" y="428" type="curve"/>
      <point x="111" y="431"/>
      <point x="123" y="433"/>
      <point x="136" y="433" type="curve" smooth="yes"/>
      <point x="188" y="433"/>
      <point x="226" y="403"/>
      <point x="226" y="355" type="curve" smooth="yes"/>
      <point x="226" y="351"/>
      <point x="226" y="347"/>
      <point x="225" y="343" type="curve"/>
      <point x="268" y="392"/>
      <point x="388" y="434"/>
      <point x="481" y="434" type="curve" smooth="yes"/>
      <point x="554" y="434"/>
      <point x="615" y="422"/>
      <point x="666" y="398" type="curve"/>
      <point x="666" y="373" type="line"/>
      <point x="662" y="373"/>
      <point x="658" y="373"/>
      <point x="655" y="373" type="curve" smooth="yes"/>
      <point x="586" y="373"/>
      <point x="512" y="305"/>
      <point x="512" y="218" type="curve" smooth="yes"/>
      <point x="512" y="139"/>
      <point x="561" y="71"/>
      <point x="632" y="71" type="curve" smooth="yes"/>
      <point x="687" y="71"/>
      <point x="733" y="99"/>
      <point x="733" y="143" type="curve" smooth="yes"/>
      <point x="733" y="196" type="line"/>
      <point x="764" y="196" type="line"/>
      <point x="764" y="143" type="line" smooth="yes"/>
      <point x="764" y="98"/>
      <point x="809" y="71"/>
      <point x="862" y="71" type="curve" smooth="yes"/>
      <point x="923" y="71"/>
      <point x="968" y="123"/>
      <point x="987" y="188" type="curve" smooth="yes"/>
      <point x="996" y="221"/>
      <point x="1001" y="256"/>
      <point x="1001" y="295" type="curve" smooth="yes"/>
      <point x="1001" y="432"/>
      <point x="887" y="557"/>
      <point x="738" y="557" type="curve" smooth="yes"/>
      <point x="658" y="557"/>
      <point x="592" y="527"/>
      <point x="539" y="468" type="curve"/>
      <point x="510" y="468" type="line"/>
      <point x="567" y="543"/>
      <point x="645" y="580"/>
      <point x="744" y="580" type="curve" smooth="yes"/>
      <point x="823" y="580"/>
      <point x="890" y="551"/>
      <point x="945" y="494" type="curve" smooth="yes"/>
      <point x="1005" y="431"/>
      <point x="1033" y="359"/>
      <point x="1033" y="258" type="curve" smooth="yes"/>
      <point x="1033" y="134"/>
      <point x="990" y="0"/>
      <point x="867" y="0" type="curve" smooth="yes"/>
      <point x="818" y="0"/>
      <point x="778" y="20"/>
      <point x="748" y="59" type="curve"/>
      <point x="717" y="20"/>
      <point x="678" y="0"/>
      <point x="631" y="0" type="curve" smooth="yes"/>
    </contour>
    <contour>
      <point x="475" y="236"/>
      <point x="406" y="285"/>
      <point x="301" y="285" type="curve" smooth="yes"/>
      <point x="244" y="285"/>
      <point x="204" y="279"/>
      <point x="179" y="267" type="curve"/>
      <point x="135" y="230"/>
      <point x="86" y="152"/>
      <point x="70" y="95" type="curve"/>
      <point x="76" y="98"/>
      <point x="82" y="100"/>
      <point x="89" y="100" type="curve" smooth="yes"/>
      <point x="94" y="100"/>
      <point x="107" y="96"/>
      <point x="126" y="88" type="curve" smooth="yes"/>
      <point x="153" y="77"/>
      <point x="176" y="71"/>
      <point x="195" y="71" type="curve" smooth="yes"/>
      <point x="247" y="71"/>
      <point x="279" y="102"/>
      <point x="279" y="158" type="curve" smooth="yes"/>
      <point x="279" y="159"/>
      <point x="279" y="161"/>
      <point x="279" y="163" type="curve"/>
      <point x="309" y="163" type="line"/>
      <point x="309" y="161"/>
      <point x="309" y="159"/>
      <point x="309" y="157" type="curve" smooth="yes"/>
      <point x="309" y="100"/>
      <point x="337" y="71"/>
      <point x="392" y="71" type="curve" smooth="yes"/>
      <point x="447" y="71"/>
      <point x="475" y="117"/>
      <point x="475" y="156" type="curve" smooth="yes"/>
    </contour>
  </outline>
</glyph>
<glyph name="si_Ndja" format="1">
  <advance width="637"/>
  <unicode hex="0DA6"/>
  <outline>
    <contour>
      <point x="448" y="406"/>
      <point x="426" y="386"/>
      <point x="426" y="359" type="curve" smooth="yes"/>
      <point x="426" y="331"/>
      <point x="450" y="308"/>
      <point x="478" y="308" type="curve" smooth="yes"/>
      <point x="505" y="308"/>
      <point x="527" y="328"/>
      <point x="527" y="355" type="curve" smooth="yes"/>
      <point x="527" y="383"/>
      <point x="504" y="406"/>
      <point x="475" y="406" type="curve" smooth="yes"/>
    </contour>
    <contour>
      <point x="406" y="319"/>
      <point x="397" y="337"/>
      <point x="397" y="363" type="curve" smooth="yes"/>
      <point x="397" y="376"/>
      <point x="400" y="391"/>
      <point x="406" y="406" type="curve"/>
      <point x="376" y="389"/>
      <point x="361" y="365"/>
      <point x="361" y="334" type="curve" smooth="yes"/>
      <point x="361" y="327"/>
      <point x="362" y="318"/>
      <point x="364" y="309" type="curve"/>
      <point x="379" y="310"/>
      <point x="402" y="312"/>
      <point x="423" y="309" type="curve"/>
    </contour>
    <contour>
      <point x="227" y="432"/>
      <point x="254" y="422"/>
      <point x="274" y="404" type="curve" smooth="yes"/>
      <point x="293" y="386"/>
      <point x="304" y="359"/>
      <point x="304" y="326" type="curve" smooth="yes"/>
      <point x="304" y="314"/>
      <point x="303" y="301"/>
      <point x="300" y="288" type="curve"/>
      <point x="289" y="289"/>
      <point x="278" y="290"/>
      <point x="267" y="290" type="curve" smooth="yes"/>
      <point x="205" y="290"/>
      <point x="161" y="276"/>
      <point x="134" y="248" type="curve"/>
      <point x="117" y="229"/>
      <point x="108" y="209"/>
      <point x="108" y="186" type="curve" smooth="yes"/>
      <point x="108" y="143"/>
      <point x="138" y="112"/>
      <point x="184" y="96" type="curve" smooth="yes"/>
      <point x="230" y="79"/>
      <point x="280" y="71"/>
      <point x="336" y="71" type="curve" smooth="yes"/>
      <point x="480" y="71"/>
      <point x="552" y="110"/>
      <point x="552" y="188" type="curve" smooth="yes"/>
      <point x="552" y="213"/>
      <point x="544" y="235"/>
      <point x="529" y="249" type="curve" smooth="yes"/>
      <point x="513" y="263"/>
      <point x="494" y="275"/>
      <point x="470" y="281" type="curve" smooth="yes"/>
      <point x="445" y="287"/>
      <point x="421" y="290"/>
      <point x="393" y="290" type="curve" smooth="yes"/>
      <point x="374" y="290"/>
      <point x="356" y="288"/>
      <point x="338" y="285" type="curve"/>
      <point x="333" y="301"/>
      <point x="331" y="316"/>
      <point x="331" y="331" type="curve" smooth="yes"/>
      <point x="331" y="384"/>
      <point x="359" y="418"/>
      <point x="416" y="433" type="curve"/>
      <point x="441" y="504"/>
      <point x="530" y="619"/>
      <point x="582" y="619" type="curve" smooth="yes"/>
      <point x="598" y="619"/>
      <point x="606" y="612"/>
      <point x="606" y="597" type="curve" smooth="yes"/>
      <point x="606" y="590"/>
      <point x="603" y="584"/>
      <point x="596" y="580" type="curve" smooth="yes"/>
      <point x="576" y="569"/>
      <point x="547" y="549"/>
      <point x="510" y="522" type="curve"/>
      <point x="477" y="493"/>
      <point x="455" y="464"/>
      <point x="444" y="433" type="curve"/>
      <point x="468" y="433" type="line" smooth="yes"/>
      <point x="469" y="433"/>
      <point x="470" y="433"/>
      <point x="471" y="433" type="curve" smooth="yes"/>
      <point x="518" y="433"/>
      <point x="558" y="400"/>
      <point x="558" y="357" type="curve" smooth="yes"/>
      <point x="558" y="325"/>
      <point x="543" y="302"/>
      <point x="512" y="289" type="curve"/>
      <point x="533" y="281"/>
      <point x="552" y="263"/>
      <point x="565" y="242" type="curve" smooth="yes"/>
      <point x="578" y="221"/>
      <point x="587" y="192"/>
      <point x="587" y="164" type="curve" smooth="yes"/>
      <point x="587" y="107"/>
      <point x="557" y="62"/>
      <point x="509" y="38" type="curve" smooth="yes"/>
      <point x="461" y="13"/>
      <point x="403" y="0"/>
      <point x="336" y="0" type="curve" smooth="yes"/>
      <point x="259" y="0"/>
      <point x="198" y="13"/>
      <point x="151" y="39" type="curve"/>
      <point x="150" y="40"/>
      <point x="149" y="41"/>
      <point x="148" y="42" type="curve"/>
      <point x="143" y="24" type="line"/>
      <point x="116" y="37"/>
      <point x="90" y="58"/>
      <point x="64" y="87" type="curve"/>
      <point x="39" y="129"/>
      <point x="27" y="174"/>
      <point x="27" y="221" type="curve" smooth="yes"/>
      <point x="27" y="309"/>
      <point x="58" y="372"/>
      <point x="121" y="411" type="curve"/>
      <point x="136" y="425"/>
      <point x="157" y="432"/>
      <point x="182" y="432" type="curve" smooth="yes"/>
      <point x="184" y="432"/>
      <point x="186" y="432"/>
      <point x="189" y="432" type="curve" smooth="yes"/>
      <point x="190" y="432"/>
      <point x="191" y="432"/>
      <point x="192" y="432" type="curve" smooth="yes"/>
    </contour>
    <contour>
      <point x="275" y="359"/>
      <point x="267" y="377"/>
      <point x="251" y="386" type="curve"/>
      <point x="243" y="391"/>
      <point x="233" y="393"/>
      <point x="220" y="393" type="curve" smooth="yes"/>
      <point x="200" y="393"/>
      <point x="187" y="385"/>
      <point x="181" y="369" type="curve" smooth="yes"/>
      <point x="170" y="338"/>
      <point x="153" y="322"/>
      <point x="130" y="322" type="curve" smooth="yes"/>
      <point x="110" y="322"/>
      <point x="98" y="331"/>
      <point x="95" y="349" type="curve"/>
      <point x="70" y="320"/>
      <point x="57" y="276"/>
      <point x="57" y="218" type="curve" smooth="yes"/>
      <point x="57" y="150"/>
      <point x="79" y="100"/>
      <point x="124" y="68" type="curve"/>
      <point x="102" y="95"/>
      <point x="84" y="129"/>
      <point x="71" y="168" type="curve"/>
      <point x="70" y="256"/>
      <point x="146" y="312"/>
      <point x="246" y="312" type="curve" smooth="yes"/>
      <point x="255" y="312"/>
      <point x="264" y="312"/>
      <point x="273" y="311" type="curve"/>
      <point x="274" y="318"/>
      <point x="275" y="324"/>
      <point x="275" y="331" type="curve" smooth="yes"/>
    </contour>
  </outline>
</glyph>
